<?xml version="1.0" encoding="utf-8"?>
<!-- Generator: Adobe Illustrator 27.5.0, SVG Export Plug-In . SVG Version: 6.00 Build 0)  -->
<svg version="1.1" xmlns="http://www.w3.org/2000/svg" xmlns:xlink="http://www.w3.org/1999/xlink" x="0px" y="0px"
	 viewBox="0 0 2475 1650" style="enable-background:new 0 0 2475 1650;" xml:space="preserve">
<g id="Background">
	<rect style="fill:#FFFFFF;" width="2475" height="1650"/>
</g>
<g id="Illustration">
	<g>
		<linearGradient id="SVGID_1_" gradientUnits="userSpaceOnUse" x1="945.6937" y1="-68.0218" x2="1593.6858" y2="1768.6229">
			<stop  offset="0" style="stop-color:#DAE3FE"/>
			<stop  offset="1" style="stop-color:#E9EFFD"/>
		</linearGradient>
		<path style="fill:url(#SVGID_1_);" d="M2313.572,398.681c-55.57-109.084-177.586-191.114-296.348-165.947
			c-71.109,15.07-141.786,65.624-209.967,40.244c-49.145-18.293-76.884-70.17-118.193-102.719
			c-63.582-50.099-153.832-49.516-231.32-27.069c-77.487,22.446-148.418,63.725-224.97,89.243
			c-130.466,43.491-276.08,38.769-403.524-13.085c-55.946-22.763-108.314-54.179-165.269-74.221
			c-56.955-20.042-121.551-27.825-176.527-2.76c-54.976,25.064-94.425,90.62-75.345,148.471c3.805,11.535,9.772,22.901,8.992,35.035
			c-1.25,19.458-19.836,33.709-38.637,38.037c-18.8,4.328-38.394,1.502-57.669,1.996c-86.499,2.218-163.799,82.016-164.21,169.516
			c-0.34,72.56,43.914,136.321,81.747,197.975c37.833,61.654,71.835,135.632,49.298,204.52
			c-13.364,40.849-44.715,72.804-65.253,110.486c-53.248,97.691-43.235,238.495,49.567,309.446
			c57.743,44.147,232.018,73.702,296.267,73.702c149.086,0,298.172,0,447.258,0c168.643,0,337.287,0,505.93,0
			c122.922,0,246.151,8.523,368.765,0c202.525-14.078,338.301-239.366,407.325-404.11c13.572-32.393,24.974-65.695,33.389-99.76
			c22.257-90.1,26.941-186.469,29.592-278.916C2366.898,564.096,2352.344,474.791,2313.572,398.681z"/>
		<g>
			<path style="fill:#91B3FA;" d="M1574.03,1421.974c0,0,121.009-738.511,460.745-1158.527
				c22.838-28.235,69.424-20.818,82.058,13.173C2201.313,503.904,2384.085,1197.91,1574.03,1421.974z"/>
			
				<linearGradient id="SVGID_00000137120319761940051560000007549758211022093725_" gradientUnits="userSpaceOnUse" x1="1645.1283" y1="928.636" x2="2060.9358" y2="928.636">
				<stop  offset="0" style="stop-color:#DAE3FE"/>
				<stop  offset="1" style="stop-color:#E9EFFD"/>
			</linearGradient>
			<path style="fill:url(#SVGID_00000137120319761940051560000007549758211022093725_);" d="M1645.675,1370.363
				c-1.708,1.851,0.958,4.443,2.912,2.831c72.064-59.407,346.093-346.303,412.336-888.041c0.213-1.74-2.469-2.23-2.838-0.516
				C2030.917,610.951,1915.863,1077.648,1645.675,1370.363z"/>
		</g>
		<g>
			<g>
				<path style="fill:#BDD0FB;" d="M717.116,922.722c-11.561-98.879-75.882-198.433-120.569-294.118
					c-23.626-50.591-42.249-102.117-48.353-157.927c-6.069-55.49,3.182-119.829-34.345-166.502
					c-75.611-94.025-172.667-15.271-213.893,82.362c-47.841,113.298-26.213,271.133-21.979,396.068
					c2.553,75.317-2.902,154.778,7.955,229.27c17.985,123.402,67.653,198.904,140.077,239.257
					c69.465,38.704,155.937,27.014,212.737-28.636C690.058,1172.223,735.766,1082.236,717.116,922.722z"/>
				
					<linearGradient id="SVGID_00000095310895399895388710000007093868917804146084_" gradientUnits="userSpaceOnUse" x1="379.137" y1="896.0695" x2="586.9404" y2="896.0695">
					<stop  offset="0" style="stop-color:#DAE3FE"/>
					<stop  offset="1" style="stop-color:#E9EFFD"/>
				</linearGradient>
				<path style="fill:url(#SVGID_00000095310895399895388710000007093868917804146084_);" d="M583.649,1431.31
					c-0.826-0.168-1.563-0.713-1.945-1.536c-21.981-47.451-75.236-179.376-119.453-339.038
					c-32.458-117.198-55.755-232.359-69.243-342.286c-16.867-137.457-18.358-267.075-4.433-385.254
					c0.177-1.505,1.542-2.582,3.046-2.404c1.516,0.165,2.583,1.541,2.405,3.047c-13.872,117.727-12.383,246.882,4.423,383.88
					c13.45,109.643,36.687,224.524,69.064,341.449c44.12,159.335,97.245,290.96,119.172,338.298
					c0.637,1.375,0.039,3.007-1.337,3.644C584.796,1431.366,584.203,1431.423,583.649,1431.31z"/>
			</g>
		</g>
		<g>
			<path style="fill:#91B3FA;" d="M407.109,1401.382c-92.879,33.417-233.917-91.42-238.201-201.213
				c-1.678-43.011,18.524-60.811,12.1-121.881c-7.794-74.098-41.408-84.722-40.928-142.589
				c0.423-50.898,27.126-126.703,85.22-145.343c54.275-17.415,115.256,21.708,139.153,66.409
				c25.118,46.984-3.392,76.45,21.06,130.253c24.178,53.2,64.564,51.921,94.246,90.173
				C545.099,1161.395,503.812,1366.589,407.109,1401.382z"/>
			<path style="opacity:0.3;fill:#FFFFFF;" d="M233.452,850.626c12.957,41.823,25.538,83.701,38.065,125.566l18.933,62.74
				l9.507,31.347c3.229,10.429,6.492,20.846,9.64,31.299c3.123,10.463,6.494,20.841,9.781,31.249l4.952,15.605
				c1.589,5.223,3.309,10.399,4.982,15.591l10.094,31.143c3.558,10.309,6.939,20.684,10.418,31.027
				c14.134,41.288,28.816,82.364,45.132,122.952l-2.491,1.172c-5.022-9.737-9.933-19.548-14.816-29.385
				c-2.536-4.88-4.687-9.919-6.953-14.913l-6.751-15.01l-3.354-7.518c-1.114-2.509-2.223-5.02-3.239-7.564l-6.252-15.217
				c-4.169-10.145-8.364-20.295-12.154-30.579c-3.857-10.263-7.813-20.495-11.592-30.792l-10.883-31.034
				c-1.799-5.178-3.67-10.333-5.364-15.544l-5.096-15.629c-3.383-10.424-6.852-20.823-10.068-31.296
				c-13.296-41.769-25.044-83.995-36.097-126.383c-5.528-21.195-10.689-42.484-15.598-63.832
				c-4.825-21.371-9.55-42.756-13.469-64.341L233.452,850.626z"/>
			<path style="fill:#FFFFFF;" d="M234.854,911.767c-26.096-15.202-45.621-43.545-45.815-43.829l1.137-0.776
				c0.193,0.282,19.549,28.374,45.371,43.415L234.854,911.767z"/>
			<path style="fill:#FFFFFF;" d="M237.3,945.146c-38.247-16.276-59.941-49.45-60.156-49.782l1.156-0.746
				c0.213,0.33,21.692,33.157,59.538,49.261L237.3,945.146z"/>
			<path style="fill:#FFFFFF;" d="M243.476,986.176c-46.253-13.125-70.152-55.594-70.388-56.022l1.205-0.664
				c0.234,0.423,23.87,42.398,69.557,55.361L243.476,986.176z"/>
			<path style="fill:#FFFFFF;" d="M256.717,1023.295c-45.383-6.023-74.961-47.285-75.254-47.7l1.124-0.794
				c0.29,0.412,29.535,41.186,74.312,47.129L256.717,1023.295z"/>
			<path style="fill:#FFFFFF;" d="M266.639,1056.883c-29.44-1.849-58.356-24.524-58.644-24.752l0.855-1.08
				c0.285,0.227,28.872,22.637,57.876,24.458L266.639,1056.883z"/>
			<path style="fill:#FFFFFF;" d="M275.703,1096.698c-40.986-2.934-60.309-21.18-60.499-21.364l0.956-0.99
				c0.188,0.181,19.193,18.085,59.641,20.98L275.703,1096.698z"/>
			<path style="fill:#FFFFFF;" d="M293.44,1144.567c-42.685,0.43-76.71-35.501-77.049-35.865l1.006-0.938
				c0.334,0.358,33.959,35.85,76.028,35.426L293.44,1144.567z"/>
			<path style="fill:#FFFFFF;" d="M304.016,1192.35c-51.719,1.754-88.736-41.516-89.103-41.953l1.053-0.887
				c0.364,0.432,36.964,43.195,88.004,41.465L304.016,1192.35z"/>
			<path style="fill:#FFFFFF;" d="M323.68,1243.193c-77.298-5.38-116.547-56.986-116.934-57.506l1.104-0.823
				c0.384,0.516,39.284,51.622,115.927,56.957L323.68,1243.193z"/>
			<path style="fill:#FFFFFF;" d="M341.621,1302.333c-80.362,3.313-129.513-71.444-130-72.199l1.157-0.746
				c0.483,0.749,49.223,74.849,128.786,71.569L341.621,1302.333z"/>
			<path style="fill:#FFFFFF;" d="M361.222,1356.4c-41.838,3.069-76.009-18.622-97.307-37.359
				c-23.045-20.274-36.403-41.563-36.535-41.774l1.168-0.728c0.525,0.844,53.39,84.297,132.574,78.489L361.222,1356.4z"/>
		</g>
		<g>
			<rect x="1356.306" y="877.952" style="fill:#7D97F4;" width="285.647" height="550.89"/>
			
				<linearGradient id="SVGID_00000113351925334953374890000007012702342039461823_" gradientUnits="userSpaceOnUse" x1="1519.8693" y1="792.7652" x2="2299.0264" y2="617.0159">
				<stop  offset="0" style="stop-color:#4042E2"/>
				<stop  offset="1" style="stop-color:#4F52FF"/>
			</linearGradient>
			<path style="fill:url(#SVGID_00000113351925334953374890000007012702342039461823_);" d="M1680.21,925.56h-337.507l-61.77-248.24
				h327.013l85.559,227.419C1698.011,914.452,1690.918,925.56,1680.21,925.56z"/>
			
				<linearGradient id="SVGID_00000114040160278708411320000009727655483023876262_" gradientUnits="userSpaceOnUse" x1="1435.8516" y1="687.6597" x2="1467.8514" y2="1355.6583">
				<stop  offset="0" style="stop-color:#4042E2"/>
				<stop  offset="1" style="stop-color:#4F52FF"/>
			</linearGradient>
			<path style="fill:url(#SVGID_00000114040160278708411320000009727655483023876262_);" d="M1607.947,680.72l-344.731,13.602
				v-27.205l322.135-13.602c12.48,0,22.597,7.385,22.597,16.495V680.72z"/>
			<g style="opacity:0.89;">
				<path style="opacity:0.79;fill:#FFFFFF;" d="M1580.469,1279.218h-160.98c-0.62,0-1.123-0.503-1.123-1.123V1028.7
					c0-0.62,0.503-1.123,1.123-1.123h160.98c0.62,0,1.123,0.503,1.123,1.123v249.395
					C1581.593,1278.715,1581.09,1279.218,1580.469,1279.218z"/>
				<g style="opacity:0.9;">
					
						<linearGradient id="SVGID_00000001654382236727100940000007917233162613827748_" gradientUnits="userSpaceOnUse" x1="1531.7485" y1="1288.3658" x2="1259.7485" y2="762.3647">
						<stop  offset="0" style="stop-color:#4042E2"/>
						<stop  offset="1" style="stop-color:#4F52FF"/>
					</linearGradient>
					<path style="fill:url(#SVGID_00000001654382236727100940000007917233162613827748_);" d="M1493.018,1265.615h-62.126
						c-0.345,0-0.624-0.279-0.624-0.624v-223.188c0-0.345,0.28-0.624,0.624-0.624h62.126c0.345,0,0.624,0.279,0.624,0.624v223.188
						C1493.642,1265.336,1493.363,1265.615,1493.018,1265.615z"/>
					
						<linearGradient id="SVGID_00000181048579076065891470000005490410077676953491_" gradientUnits="userSpaceOnUse" x1="1591.7522" y1="1257.3373" x2="1319.7523" y2="731.3364">
						<stop  offset="0" style="stop-color:#4042E2"/>
						<stop  offset="1" style="stop-color:#4F52FF"/>
					</linearGradient>
					<path style="fill:url(#SVGID_00000181048579076065891470000005490410077676953491_);" d="M1569.067,1265.615h-62.125
						c-0.345,0-0.624-0.279-0.624-0.624v-223.188c0-0.345,0.279-0.624,0.624-0.624h62.125c0.345,0,0.624,0.279,0.624,0.624v223.188
						C1569.691,1265.336,1569.411,1265.615,1569.067,1265.615z"/>
				</g>
			</g>
			<path style="fill:#7D97F4;" d="M366.092,1428.842h275.47v-550.89H355.916v540.714
				C355.916,1424.286,360.472,1428.842,366.092,1428.842z"/>
			
				<linearGradient id="SVGID_00000085218862355818489610000010071352446304774833_" gradientUnits="userSpaceOnUse" x1="618.9573" y1="863.4159" x2="76.4757" y2="583.0736">
				<stop  offset="0" style="stop-color:#4042E2"/>
				<stop  offset="1" style="stop-color:#4F52FF"/>
			</linearGradient>
			<path style="fill:url(#SVGID_00000085218862355818489610000010071352446304774833_);" d="M317.658,925.56h337.507l61.235-231.498
				L389.921,677.32l-85.559,227.419C299.857,914.452,306.95,925.56,317.658,925.56z"/>
			
				<linearGradient id="SVGID_00000170999698460534026080000017452063281552864665_" gradientUnits="userSpaceOnUse" x1="579.709" y1="760.0104" x2="623.7726" y2="1679.8423">
				<stop  offset="0" style="stop-color:#4042E2"/>
				<stop  offset="1" style="stop-color:#4F52FF"/>
			</linearGradient>
			<path style="fill:url(#SVGID_00000170999698460534026080000017452063281552864665_);" d="M389.921,680.72L761,716l0.248-48.883
				l-346.987-13.602c-13.443,0-24.34,7.385-24.34,16.495V680.72z"/>
			<g style="opacity:0.89;">
				<path style="opacity:0.79;fill:#FFFFFF;" d="M417.398,1279.218h160.98c0.62,0,1.123-0.503,1.123-1.123V1028.7
					c0-0.62-0.503-1.123-1.123-1.123H417.398c-0.62,0-1.123,0.503-1.123,1.123v249.395
					C416.275,1278.715,416.778,1279.218,417.398,1279.218z"/>
				<g style="opacity:0.9;">
					
						<linearGradient id="SVGID_00000107576908806791902670000011559309879434309535_" gradientUnits="userSpaceOnUse" x1="590.2147" y1="1285.3861" x2="316.215" y2="619.386">
						<stop  offset="0" style="stop-color:#4042E2"/>
						<stop  offset="1" style="stop-color:#4F52FF"/>
					</linearGradient>
					<path style="fill:url(#SVGID_00000107576908806791902670000011559309879434309535_);" d="M504.85,1265.615h62.126
						c0.345,0,0.624-0.279,0.624-0.624v-223.188c0-0.345-0.279-0.624-0.624-0.624H504.85c-0.345,0-0.624,0.279-0.624,0.624v223.188
						C504.226,1265.336,504.505,1265.615,504.85,1265.615z"/>
					
						<linearGradient id="SVGID_00000085224750241579717080000015570686723442802877_" gradientUnits="userSpaceOnUse" x1="525.1744" y1="1312.1443" x2="251.1747" y2="646.1442">
						<stop  offset="0" style="stop-color:#4042E2"/>
						<stop  offset="1" style="stop-color:#4F52FF"/>
					</linearGradient>
					<path style="fill:url(#SVGID_00000085224750241579717080000015570686723442802877_);" d="M428.801,1265.615h62.126
						c0.345,0,0.624-0.279,0.624-0.624v-223.188c0-0.345-0.28-0.624-0.624-0.624h-62.126c-0.345,0-0.624,0.279-0.624,0.624v223.188
						C428.177,1265.336,428.457,1265.615,428.801,1265.615z"/>
				</g>
			</g>
			<path style="fill:#91B3FA;" d="M998.934,533.398c0,0-387.257,292.356-396.851,292.356v607.364
				c0,11.067,8.971,20.038,20.038,20.038h755.904c9.808,0,17.76-7.951,17.76-17.76V825.754L998.934,533.398z"/>
			<g>
				
					<linearGradient id="SVGID_00000112613553476119586290000010586699340147308713_" gradientUnits="userSpaceOnUse" x1="1000.6232" y1="1079.1536" x2="990.623" y2="1249.1537">
					<stop  offset="0" style="stop-color:#4042E2"/>
					<stop  offset="1" style="stop-color:#4F52FF"/>
				</linearGradient>
				<path style="opacity:0.9;fill:url(#SVGID_00000112613553476119586290000010586699340147308713_);" d="M1104.233,1428.842
					H858.148v-38.575c0-1.751,1.419-3.17,3.17-3.17h239.745c1.751,0,3.17,1.419,3.17,3.17V1428.842z"/>
				
					<linearGradient id="SVGID_00000050644028805823201520000007521524020466455735_" gradientUnits="userSpaceOnUse" x1="990.3886" y1="1578.2828" x2="1005.1799" y2="1796.4558">
					<stop  offset="0" style="stop-color:#4042E2"/>
					<stop  offset="1" style="stop-color:#4F52FF"/>
				</linearGradient>
				<path style="opacity:0.9;fill:url(#SVGID_00000050644028805823201520000007521524020466455735_);" d="M1104.233,1461.951
					H858.148v-38.575c0-1.751,1.419-3.171,3.17-3.171h239.745c1.751,0,3.17,1.419,3.17,3.17V1461.951z"/>
				
					<linearGradient id="SVGID_00000068636041357343451370000000005294140741680825_" gradientUnits="userSpaceOnUse" x1="963.6632" y1="840.325" x2="925.6632" y2="6.3262">
					<stop  offset="0" style="stop-color:#FE7062"/>
					<stop  offset="1" style="stop-color:#FF928E"/>
				</linearGradient>
				<path style="fill:url(#SVGID_00000068636041357343451370000000005294140741680825_);" d="M1065.172,1387.097H897.209V1062.99
					c0-1.966,1.594-3.56,3.56-3.56h160.843c1.966,0,3.56,1.594,3.56,3.56V1387.097z"/>
				<path style="fill:#BDD0FB;" d="M1053.312,1037.375H909.069c-6.55,0-11.86-5.309-11.86-11.86v-10.359
					c0-6.231,4.822-11.399,11.038-11.831l144.243-10.02c6.857-0.476,12.682,4.958,12.682,11.831v20.379
					C1065.172,1032.066,1059.862,1037.375,1053.312,1037.375z"/>
				<g style="opacity:0.9;">
					
						<linearGradient id="SVGID_00000132773243853190080080000012260114438066172824_" gradientUnits="userSpaceOnUse" x1="1325.8379" y1="1201.7245" x2="887.8381" y2="579.7237">
						<stop  offset="0" style="stop-color:#4042E2"/>
						<stop  offset="1" style="stop-color:#4F52FF"/>
					</linearGradient>
					<path style="opacity:0.9;fill:url(#SVGID_00000132773243853190080080000012260114438066172824_);" d="M1198.555,891.816h-1.596
						c-41.483,0-77.8,29.369-77.8,70.852v74.707h79.396V891.816z"/>
					
						<linearGradient id="SVGID_00000119103030677794598020000009886283292087970728_" gradientUnits="userSpaceOnUse" x1="1228.3202" y1="1270.3951" x2="790.3209" y2="648.3951">
						<stop  offset="0" style="stop-color:#4042E2"/>
						<stop  offset="1" style="stop-color:#4F52FF"/>
					</linearGradient>
					<path style="opacity:0.9;fill:url(#SVGID_00000119103030677794598020000009886283292087970728_);" d="M1119.159,1059.43
						v219.788c0,7.401,8.688,18.875,16.088,18.875h63.308V1059.43H1119.159z"/>
					
						<linearGradient id="SVGID_00000026878678841100092610000014920967228906907826_" gradientUnits="userSpaceOnUse" x1="1379.2891" y1="1164.0858" x2="941.2894" y2="542.0851">
						<stop  offset="0" style="stop-color:#4042E2"/>
						<stop  offset="1" style="stop-color:#4F52FF"/>
					</linearGradient>
					<path style="opacity:0.9;fill:url(#SVGID_00000026878678841100092610000014920967228906907826_);" d="M1220.234,891.816h-4.035
						v145.56h79.396v-74.707C1295.595,921.185,1261.717,891.816,1220.234,891.816z"/>
					
						<linearGradient id="SVGID_00000136385207831057066380000011814631699887506061_" gradientUnits="userSpaceOnUse" x1="1289.8918" y1="1227.0376" x2="851.8923" y2="605.0372">
						<stop  offset="0" style="stop-color:#4042E2"/>
						<stop  offset="1" style="stop-color:#4F52FF"/>
					</linearGradient>
					<path style="opacity:0.9;fill:url(#SVGID_00000136385207831057066380000011814631699887506061_);" d="M1216.198,1298.092
						h65.747c7.401,0,13.649-11.474,13.649-18.875V1059.43h-79.396V1298.092z"/>
				</g>
				<g style="opacity:0.9;">
					
						<linearGradient id="SVGID_00000163047935106499515120000004122259580440413064_" gradientUnits="userSpaceOnUse" x1="1033.4952" y1="1407.5874" x2="595.4957" y2="785.5869">
						<stop  offset="0" style="stop-color:#4042E2"/>
						<stop  offset="1" style="stop-color:#4F52FF"/>
					</linearGradient>
					<path style="opacity:0.9;fill:url(#SVGID_00000163047935106499515120000004122259580440413064_);" d="M761.248,891.816h-1.596
						c-41.483,0-77.8,29.369-77.8,70.852v74.707h79.396V891.816z"/>
					
						<linearGradient id="SVGID_00000176733629572000929310000007033929512592344960_" gradientUnits="userSpaceOnUse" x1="935.9769" y1="1476.2572" x2="497.9774" y2="854.2568">
						<stop  offset="0" style="stop-color:#4042E2"/>
						<stop  offset="1" style="stop-color:#4F52FF"/>
					</linearGradient>
					<path style="opacity:0.9;fill:url(#SVGID_00000176733629572000929310000007033929512592344960_);" d="M681.852,1059.43v219.788
						c0,7.401,8.688,18.875,16.088,18.875h63.308V1059.43H681.852z"/>
					
						<linearGradient id="SVGID_00000090973735590065094700000005049453416157277375_" gradientUnits="userSpaceOnUse" x1="1086.946" y1="1369.948" x2="648.9468" y2="747.948">
						<stop  offset="0" style="stop-color:#4042E2"/>
						<stop  offset="1" style="stop-color:#4F52FF"/>
					</linearGradient>
					<path style="opacity:0.9;fill:url(#SVGID_00000090973735590065094700000005049453416157277375_);" d="M782.926,891.816h-4.035
						v145.56h79.396v-74.707C858.288,921.185,824.41,891.816,782.926,891.816z"/>
					
						<linearGradient id="SVGID_00000105398079351592689410000016481336518168555176_" gradientUnits="userSpaceOnUse" x1="997.5487" y1="1432.8999" x2="559.5496" y2="810.9">
						<stop  offset="0" style="stop-color:#4042E2"/>
						<stop  offset="1" style="stop-color:#4F52FF"/>
					</linearGradient>
					<path style="opacity:0.9;fill:url(#SVGID_00000105398079351592689410000016481336518168555176_);" d="M778.892,1298.092h65.747
						c7.401,0,13.649-11.474,13.649-18.875V1059.43h-79.396V1298.092z"/>
				</g>
				<path style="opacity:0.64;fill:#FFFFFF;" d="M957.867,1299.013h-25.35c-8.454,0-15.33-6.877-15.33-15.33v-187.406
					c0-8.453,6.877-15.33,15.33-15.33h25.35c8.453,0,15.33,6.877,15.33,15.33v187.406
					C973.198,1292.136,966.321,1299.013,957.867,1299.013z M932.517,1082.787c-7.438,0-13.49,6.052-13.49,13.49v187.406
					c0,7.438,6.052,13.49,13.49,13.49h25.35c7.438,0,13.49-6.052,13.49-13.49v-187.406c0-7.438-6.052-13.49-13.49-13.49H932.517z"/>
				<path style="opacity:0.64;fill:#FFFFFF;" d="M1028.608,1299.013h-25.35c-8.453,0-15.33-6.877-15.33-15.33v-187.406
					c0-8.453,6.877-15.33,15.33-15.33h25.35c8.453,0,15.33,6.877,15.33,15.33v187.406
					C1043.939,1292.136,1037.062,1299.013,1028.608,1299.013z M1003.258,1082.787c-7.438,0-13.49,6.052-13.49,13.49v187.406
					c0,7.438,6.052,13.49,13.49,13.49h25.35c7.438,0,13.49-6.052,13.49-13.49v-187.406c0-7.438-6.052-13.49-13.49-13.49H1003.258z"
					/>
				<path style="opacity:0.64;fill:#FFFFFF;" d="M957.867,1362.194h-25.35c-8.454,0-15.33-6.877-15.33-15.33v-21.555
					c0-8.453,6.877-15.33,15.33-15.33h25.35c8.453,0,15.33,6.877,15.33,15.33v21.555
					C973.198,1355.318,966.321,1362.194,957.867,1362.194z M932.517,1311.82c-7.438,0-13.49,6.051-13.49,13.489v21.555
					c0,7.438,6.052,13.49,13.49,13.49h25.35c7.438,0,13.49-6.052,13.49-13.49v-21.555c0-7.438-6.052-13.489-13.49-13.489H932.517z"
					/>
				<path style="opacity:0.64;fill:#FFFFFF;" d="M1028.608,1362.194h-25.35c-8.453,0-15.33-6.877-15.33-15.33v-21.555
					c0-8.453,6.877-15.33,15.33-15.33h25.35c8.453,0,15.33,6.877,15.33,15.33v21.555
					C1043.939,1355.318,1037.062,1362.194,1028.608,1362.194z M1003.258,1311.82c-7.438,0-13.49,6.051-13.49,13.489v21.555
					c0,7.438,6.052,13.49,13.49,13.49h25.35c7.438,0,13.49-6.052,13.49-13.49v-21.555c0-7.438-6.052-13.489-13.49-13.489H1003.258z"
					/>
				<path style="opacity:0.64;fill:#FFFFFF;" d="M1302.464,1311.82H1111.34c-10.959,0-19.875-8.916-19.875-19.876V961.031
					c0-52.329,42.574-94.902,94.903-94.902h41.068c52.329,0,94.902,42.573,94.902,94.902v330.913
					C1322.339,1302.904,1313.423,1311.82,1302.464,1311.82z M1186.368,867.97c-51.315,0-93.062,41.747-93.062,93.062v330.913
					c0,9.945,8.09,18.035,18.034,18.035h191.124c9.944,0,18.034-8.09,18.034-18.035V961.031c0-51.315-41.747-93.062-93.062-93.062
					H1186.368z"/>
				<path style="opacity:0.64;fill:#FFFFFF;" d="M865.243,1311.82H674.119c-10.959,0-19.875-8.916-19.875-19.876V961.031
					c0-52.329,42.573-94.902,94.902-94.902h41.068c52.33,0,94.903,42.573,94.903,94.902v330.913
					C885.117,1302.904,876.202,1311.82,865.243,1311.82z M749.146,867.97c-51.315,0-93.062,41.747-93.062,93.062v330.913
					c0,9.945,8.09,18.035,18.034,18.035h191.124c9.944,0,18.034-8.09,18.034-18.035V961.031c0-51.315-41.747-93.062-93.062-93.062
					H749.146z"/>
			</g>
			<g>
				
					<linearGradient id="SVGID_00000115493540175156023100000002120717750693861521_" gradientUnits="userSpaceOnUse" x1="1170.7073" y1="640.3784" x2="1006.7076" y2="862.3782">
					<stop  offset="0" style="stop-color:#4042E2"/>
					<stop  offset="1" style="stop-color:#4F52FF"/>
				</linearGradient>
				
					<rect x="1172.713" y="539.782" style="fill:url(#SVGID_00000115493540175156023100000002120717750693861521_);" width="65.651" height="106.894"/>
				
					<linearGradient id="SVGID_00000098202426883886344320000011558168021648619425_" gradientUnits="userSpaceOnUse" x1="1200.6909" y1="392.0537" x2="1217.9159" y2="814.0667">
					<stop  offset="0" style="stop-color:#4042E2"/>
					<stop  offset="1" style="stop-color:#4F52FF"/>
				</linearGradient>
				<path style="fill:url(#SVGID_00000098202426883886344320000011558168021648619425_);" d="M1260,557.103h-106.114v-26.73
					c0-3.366,2.729-6.095,6.095-6.095h90.74c5.124,0,9.278,4.154,9.278,9.278V557.103z"/>
				
					<linearGradient id="SVGID_00000051380312937429791480000003642230030970409636_" gradientUnits="userSpaceOnUse" x1="1025.8546" y1="228.5358" x2="1017.8548" y2="420.5358">
					<stop  offset="0" style="stop-color:#4042E2"/>
					<stop  offset="1" style="stop-color:#4F52FF"/>
				</linearGradient>
				<path style="fill:url(#SVGID_00000051380312937429791480000003642230030970409636_);" d="M577.752,856.405l421.182-323.007
					l399.798,310.111c14.531,11.272,35.846,3.377,39.53-14.641l5.608-27.428L998.934,462.5L568.255,791.456
					c-7.711,5.89-10.509,16.222-6.824,25.199L577.752,856.405z"/>
			</g>
		</g>
		<g>
			
				<linearGradient id="SVGID_00000137851468142543647260000011164724362932049814_" gradientUnits="userSpaceOnUse" x1="2042.4384" y1="379.7007" x2="1118.3485" y2="1363.7977">
				<stop  offset="0" style="stop-color:#FF928E"/>
				<stop  offset="1" style="stop-color:#FEB3B1"/>
			</linearGradient>
			<path style="fill:url(#SVGID_00000137851468142543647260000011164724362932049814_);" d="M1646.855,1457.228h-112.829V279.494
				c0-20.398,16.536-36.933,36.933-36.933h45.375c16.856,0,30.521,13.665,30.521,30.521V1457.228z"/>
			
				<linearGradient id="SVGID_00000171697724076458651250000008739512318257462456_" gradientUnits="userSpaceOnUse" x1="1635.7814" y1="594.4294" x2="2915.9714" y2="-134.7657">
				<stop  offset="0" style="stop-color:#FE7062"/>
				<stop  offset="1" style="stop-color:#FF928E"/>
			</linearGradient>
			<path style="fill:url(#SVGID_00000171697724076458651250000008739512318257462456_);" d="M1914.466,835.899h-646.251
				c-18.464,0-33.433-14.968-33.433-33.433V437.02c0-18.465,14.969-33.433,33.433-33.433h646.251
				c18.464,0,33.433,14.968,33.433,33.433v365.447C1947.899,820.931,1932.931,835.899,1914.466,835.899z"/>
			<path style="fill:#FFFFFF;" d="M1898.657,823.625h-613.104c-18.464,0-33.433-14.968-33.433-33.433V456.112
				c0-18.465,14.968-33.433,33.433-33.433h613.104c18.464,0,33.433,14.968,33.433,33.433v334.081
				C1932.09,808.656,1917.122,823.625,1898.657,823.625z"/>
			<g>
				<path style="fill:#BDD0FB;" d="M1579.965,1461.447c-2.031-0.122-3.912-1.047-5.243-2.586
					c-19.409-22.426-161.53-198.661-3.759-381.385c149.774-173.462,220.672-212.096,223.307-307.594
					c0.308-11.152,15.069-14.933,20.742-5.327c42.394,71.796,112.791,241.476-68.298,369.936
					c-199.761,141.705-172.231,278.509-159.162,316.991C1589.279,1456.568,1585.327,1461.77,1579.965,1461.447L1579.965,1461.447z"
					/>
				<path style="fill:#BDD0FB;" d="M1606.18,1463.028c-4.81-0.29-8.858-3.678-9.948-8.371
					c-7.425-31.945-28.771-151.799,57.797-190.516c95.299-42.621,181.236,42.656,247.868-34.157
					c3.506-4.042,10.122-1.247,9.614,4.08c-3.608,37.779-25.654,126.314-151.344,153.245
					c-134.531,28.825-148.656,45.569-144.457,64.707C1617.004,1457.915,1612.209,1463.391,1606.18,1463.028L1606.18,1463.028z"/>
				
					<linearGradient id="SVGID_00000018921751204222144740000001949881460104024477_" gradientUnits="userSpaceOnUse" x1="1521.3096" y1="1148.0074" x2="1796.8291" y2="1148.0074">
					<stop  offset="0" style="stop-color:#DAE3FE"/>
					<stop  offset="1" style="stop-color:#E9EFFD"/>
				</linearGradient>
				<path style="fill:url(#SVGID_00000018921751204222144740000001949881460104024477_);" d="M1796.799,866.855
					c-1.131,7.156-2.843,13.918-4.986,20.665c-2.095,6.736-4.595,13.339-7.374,19.824c-5.489,13.009-12.315,25.437-19.916,37.359
					c-15.319,23.798-34.415,45.127-55.839,63.607c-10.687,9.19-22.207,17.764-33.644,25.588
					c-11.134,7.628-21.768,16.025-31.882,25.013c-20.244,17.975-38.287,38.423-53.916,60.531
					c-31.123,44.238-51.653,96.344-55.632,150.478c-2.077,27.011-0.069,54.357,5.633,81.008
					c5.662,26.689,15.332,52.513,27.38,77.206c0.65,1.316,0.11,2.909-1.206,3.559c-1.264,0.624-2.795,0.132-3.489-1.073
					c-13.741-24.264-24.606-50.342-31.584-77.588c-3.542-13.604-6.078-27.501-7.558-41.533c-1.395-14.035-1.864-28.198-1.143-42.322
					c1.299-28.266,7.137-56.298,16.575-82.982c9.47-26.699,22.731-51.97,38.686-75.311c15.947-23.372,34.889-44.634,55.926-63.547
					c10.542-9.438,21.644-18.272,33.319-26.336c11.44-7.759,22.265-15.583,32.661-24.343c20.763-17.322,39.68-36.94,55.571-58.899
					c8.062-10.898,15.234-22.452,21.682-34.42c6.301-11.979,12.087-24.554,15.965-37.399l0.051-0.167
					c0.386-1.283,1.741-2.008,3.023-1.621C1796.279,864.509,1796.987,865.676,1796.799,866.855z"/>
				
					<linearGradient id="SVGID_00000125569578199349395210000008202180853682366905_" gradientUnits="userSpaceOnUse" x1="1597.0975" y1="1348.7659" x2="1892.8013" y2="1348.7659">
					<stop  offset="0" style="stop-color:#DAE3FE"/>
					<stop  offset="1" style="stop-color:#E9EFFD"/>
				</linearGradient>
				<path style="fill:url(#SVGID_00000125569578199349395210000008202180853682366905_);" d="M1598.889,1441.532
					c0.328-1.201,0.116-2.279-0.006-3.394l-0.354-3.323l-0.578-6.653c-0.326-4.439-0.564-8.883-0.703-13.332
					c-0.272-8.897-0.182-17.812,0.341-26.715c1.096-17.779,3.764-35.626,9.625-52.687c5.79-16.94,15.249-33.425,29.917-44.833
					c7.313-5.609,15.719-9.843,24.574-12.339c8.841-2.569,18.052-3.544,27.139-3.43c35.693,1.443,70.885,5.62,106.073,8.514
					c17.515,1.28,35.254,2.265,52.085-1.339c4.18-0.937,8.274-2.173,12.22-3.776c3.897-1.697,7.707-3.63,11.219-6.059
					c7.078-4.779,13.146-11.039,18.475-17.882l0.017-0.021c0.734-0.943,2.093-1.112,3.035-0.378c0.93,0.724,1.106,2.058,0.406,2.999
					c-5.378,7.223-11.636,13.995-19.144,19.305c-3.724,2.692-7.795,4.879-11.971,6.798c-4.222,1.825-8.597,3.246-13.037,4.34
					c-17.911,4.015-36.035,3.108-53.735,2.024c-17.758-1.179-35.352-3.132-52.975-4.64c-17.568-1.521-35.332-2.931-52.769-3.658
					c-8.594-0.185-17.207,0.665-25.399,2.968c-8.211,2.236-15.934,6.05-22.718,11.151c-13.678,10.228-23.007,25.569-28.9,41.859
					c-5.97,16.375-8.936,33.841-10.333,51.344c-0.678,8.766-0.929,17.575-0.821,26.382c0.057,4.403,0.212,8.806,0.454,13.204
					l0.451,6.589l0.289,3.286c0.111,1.086,0.145,2.209,0.759,3.203c0.582,0.944,0.29,2.181-0.653,2.764
					c-0.944,0.583-2.182,0.29-2.764-0.653c-0.303-0.491-0.369-1.062-0.23-1.578L1598.889,1441.532z"/>
			</g>
			<g>
				
					<linearGradient id="SVGID_00000090974642159883275270000002885978461865123766_" gradientUnits="userSpaceOnUse" x1="1342.9313" y1="508.8982" x2="1678.9644" y2="-1.1527">
					<stop  offset="0" style="stop-color:#FE7062"/>
					<stop  offset="1" style="stop-color:#FF928E"/>
				</linearGradient>
				<path style="fill:url(#SVGID_00000090974642159883275270000002885978461865123766_);" d="M1376.105,531.637v26.322h-43.871
					v49.135h-35.096V478.992h82.477v28.077h-47.38v24.568H1376.105z"/>
				
					<linearGradient id="SVGID_00000012444707397485501190000013143611825148946357_" gradientUnits="userSpaceOnUse" x1="1440.6096" y1="573.2509" x2="1776.6433" y2="63.1993">
					<stop  offset="0" style="stop-color:#FE7062"/>
					<stop  offset="1" style="stop-color:#FF928E"/>
				</linearGradient>
				<path style="fill:url(#SVGID_00000012444707397485501190000013143611825148946357_);" d="M1412.517,494.873
					c11.873-11.757,27.872-17.636,47.995-17.636c20.12,0,36.12,5.879,47.995,17.636c11.873,11.757,17.812,27.814,17.812,48.17
					s-5.939,36.413-17.812,48.17c-11.875,11.757-27.874,17.636-47.995,17.636c-20.123,0-36.122-5.879-47.995-17.636
					c-11.875-11.757-17.811-27.814-17.811-48.17S1400.642,506.631,1412.517,494.873z M1430.679,543.043
					c0,24.568,9.943,36.852,29.832,36.852c19.888,0,29.832-12.284,29.832-36.852c0-24.568-9.945-36.852-29.832-36.852
					C1440.622,506.192,1430.679,518.476,1430.679,543.043z"/>
				
					<linearGradient id="SVGID_00000014627181143167504270000007302740119583395737_" gradientUnits="userSpaceOnUse" x1="1534.5466" y1="635.1387" x2="1870.5802" y2="125.0871">
					<stop  offset="0" style="stop-color:#FE7062"/>
					<stop  offset="1" style="stop-color:#FF928E"/>
				</linearGradient>
				<path style="fill:url(#SVGID_00000014627181143167504270000007302740119583395737_);" d="M1578.261,562.346v44.748h-34.219
					V479.87c15.206-1.755,30.416-2.632,45.625-2.632c35.097,0,52.645,13.161,52.645,39.484c0,7.37-2.282,14.214-6.844,20.531
					c-4.562,6.317-10.471,10.822-17.724,13.512v0.351c3.51,1.991,6.432,4.535,8.774,7.634c2.339,3.101,4.562,7.518,6.669,13.249
					l12.635,35.097h-35.974l-10.88-33.342c-1.288-4.094-2.925-7.019-4.913-8.774c-1.991-1.755-4.623-2.632-7.897-2.632H1578.261z
					 M1578.261,536.901h9.652c5.966,0,10.674-1.492,14.126-4.475c3.449-2.983,5.176-7.047,5.176-12.196
					c0-11.113-6.435-16.671-19.303-16.671c-3.746,0-6.962,0.293-9.652,0.877V536.901z"/>
				
					<linearGradient id="SVGID_00000142883997195706821480000017342797488806583684_" gradientUnits="userSpaceOnUse" x1="1533.4813" y1="634.437" x2="1869.515" y2="124.3852">
					<stop  offset="0" style="stop-color:#FE7062"/>
					<stop  offset="1" style="stop-color:#FF928E"/>
				</linearGradient>
				<path style="fill:url(#SVGID_00000142883997195706821480000017342797488806583684_);" d="M1469.232,725.518v44.748h-34.219
					V643.041c15.206-1.755,30.416-2.632,45.625-2.632c35.096,0,52.645,13.161,52.645,39.484c0,7.37-2.282,14.214-6.844,20.531
					c-4.563,6.318-10.472,10.823-17.724,13.512v0.351c3.51,1.991,6.432,4.535,8.774,7.633c2.339,3.101,4.562,7.518,6.668,13.249
					l12.635,35.097h-35.974l-10.88-33.342c-1.288-4.094-2.925-7.019-4.913-8.774c-1.991-1.755-4.623-2.632-7.897-2.632H1469.232z
					 M1469.232,700.073h9.652c5.966,0,10.674-1.492,14.126-4.475c3.449-2.983,5.176-7.047,5.176-12.196
					c0-11.113-6.435-16.671-19.303-16.671c-3.746,0-6.962,0.293-9.652,0.877V700.073z"/>
				
					<linearGradient id="SVGID_00000147192362893758404390000000275004775206093199_" gradientUnits="userSpaceOnUse" x1="1611.1052" y1="685.5775" x2="1947.1388" y2="175.5259">
					<stop  offset="0" style="stop-color:#FE7062"/>
					<stop  offset="1" style="stop-color:#FF928E"/>
				</linearGradient>
				<path style="fill:url(#SVGID_00000147192362893758404390000000275004775206093199_);" d="M1636.115,691.299v26.323h-45.625
					v24.568h49.135v28.077h-84.231V642.163h84.231v28.077h-49.135v21.058H1636.115z"/>
				
					<linearGradient id="SVGID_00000127736175254346144180000011264166437121931685_" gradientUnits="userSpaceOnUse" x1="1694.4385" y1="740.4792" x2="2030.472" y2="230.4277">
					<stop  offset="0" style="stop-color:#FE7062"/>
					<stop  offset="1" style="stop-color:#FF928E"/>
				</linearGradient>
				<path style="fill:url(#SVGID_00000127736175254346144180000011264166437121931685_);" d="M1735.965,712.356h0.351v-70.193
					h34.219v128.103h-34.219l-38.255-70.193h-0.351v70.193h-34.219V642.163h34.219L1735.965,712.356z"/>
				
					<linearGradient id="SVGID_00000144327262383993818110000002829009867935604893_" gradientUnits="userSpaceOnUse" x1="1771.1631" y1="791.0273" x2="2107.196" y2="280.9768">
					<stop  offset="0" style="stop-color:#FE7062"/>
					<stop  offset="1" style="stop-color:#FF928E"/>
				</linearGradient>
				<path style="fill:url(#SVGID_00000144327262383993818110000002829009867935604893_);" d="M1897.057,642.163v28.955h-34.746
					v99.148h-35.798v-99.148h-34.746v-28.955H1897.057z"/>
			</g>
		</g>
		<g>
			<g>
				
					<linearGradient id="SVGID_00000077282129159524799080000013807106449989462447_" gradientUnits="userSpaceOnUse" x1="2070.2781" y1="1131.3799" x2="2136.9265" y2="1131.3799" gradientTransform="matrix(-0.9999 0.0161 0.0161 0.9999 4119.3433 -45.9411)">
					<stop  offset="0" style="stop-color:#FF928E"/>
					<stop  offset="1" style="stop-color:#FEB3B1"/>
				</linearGradient>
				<path style="fill:url(#SVGID_00000077282129159524799080000013807106449989462447_);" d="M2042.948,1084.697
					c6.954,7.187,17.122,13.331,24.269,17.149c-10.367,13.246-24.471,26.572-43.214,39.693l-5.227,12.258l-17.712-20.546
					C2001.064,1133.25,2031.993,1117.232,2042.948,1084.697z"/>
				
					<linearGradient id="SVGID_00000015327567008094957010000002746249558835842967_" gradientUnits="userSpaceOnUse" x1="2137.2903" y1="1474.2736" x2="2187.2664" y2="1474.2736" gradientTransform="matrix(-0.9999 0.0161 0.0161 0.9999 4119.3433 -45.9411)">
					<stop  offset="0" style="stop-color:#09005D"/>
					<stop  offset="1" style="stop-color:#1A0F91"/>
				</linearGradient>
				<path style="fill:url(#SVGID_00000015327567008094957010000002746249558835842967_);" d="M1956.319,1481.193
					c-0.012-0.372,0.007-0.75,0.096-1.131c5.269-22.404,32.979-36.752,32.979-36.752l11.083,0.689
					c6.682,19.564,6.058,31.639,5.122,37.028c-0.026,0.151-0.069,0.295-0.107,0.441
					C1996.375,1482.432,1977.589,1483.268,1956.319,1481.193z"/>
				
					<linearGradient id="SVGID_00000053514464186803283490000005626122809620901046_" gradientUnits="userSpaceOnUse" x1="2136.8984" y1="1830.218" x2="2158.8984" y2="1542.2174" gradientTransform="matrix(-0.9999 0.0161 0.0161 0.9999 4119.3433 -45.9411)">
					<stop  offset="0" style="stop-color:#4042E2"/>
					<stop  offset="1" style="stop-color:#4F52FF"/>
				</linearGradient>
				<path style="fill:url(#SVGID_00000053514464186803283490000005626122809620901046_);" d="M2005.493,1481.469
					c-0.464,1.802-1.766,3.22-3.456,3.604c-12.945,2.941-33.626,1.075-42.312,0.081c-1.917-0.219-3.343-1.965-3.407-3.961
					C1977.589,1483.268,1996.375,1482.432,2005.493,1481.469z"/>
				
					<linearGradient id="SVGID_00000090987112666637052660000010810748265313068991_" gradientUnits="userSpaceOnUse" x1="2151.1882" y1="1417.3782" x2="2141.6421" y2="1500.6914" gradientTransform="matrix(-0.9999 0.0161 0.0161 0.9999 4119.3433 -45.9411)">
					<stop  offset="0" style="stop-color:#FF928E"/>
					<stop  offset="1" style="stop-color:#FEB3B1"/>
				</linearGradient>
				<path style="fill:url(#SVGID_00000090987112666637052660000010810748265313068991_);" d="M2004.663,1427.441l-4.325,22.645
					c-0.317,1.659-1.568,2.918-3.104,3.087c-1.881,0.207-4.562,0.354-7.265,0.001c-2.424-0.317-4.148-2.747-3.762-5.392
					l2.936-20.092L2004.663,1427.441z"/>
				
					<linearGradient id="SVGID_00000116918406894168178940000016843943080606565253_" gradientUnits="userSpaceOnUse" x1="2223.1152" y1="1836.8031" x2="2245.1152" y2="1548.8031" gradientTransform="matrix(-0.9999 0.0161 0.0161 0.9999 4119.3433 -45.9411)">
					<stop  offset="0" style="stop-color:#4042E2"/>
					<stop  offset="1" style="stop-color:#4F52FF"/>
				</linearGradient>
				<path style="fill:url(#SVGID_00000116918406894168178940000016843943080606565253_);" d="M1908.392,1482.807
					c12.22-0.54,18.52-2.081,21.767-3.47c0.028,1.215,0.041,2.453,0.022,3.735c-0.02,1.37-1.016,2.48-2.264,2.492l-67.132,0.648
					c-2.143,0.021-3.435-2.444-2.537-4.423C1867.061,1482.374,1889.503,1483.64,1908.392,1482.807z"/>
				
					<linearGradient id="SVGID_00000007418099058065561760000004245344766349290881_" gradientUnits="userSpaceOnUse" x1="2213.3909" y1="1475.6034" x2="2285.3301" y2="1475.6034" gradientTransform="matrix(-0.9999 0.0161 0.0161 0.9999 4119.3433 -45.9411)">
					<stop  offset="0" style="stop-color:#09005D"/>
					<stop  offset="1" style="stop-color:#1A0F91"/>
				</linearGradient>
				<path style="fill:url(#SVGID_00000007418099058065561760000004245344766349290881_);" d="M1858.248,1481.789
					c0.078-0.172,0.145-0.348,0.257-0.511c5.795-8.379,20.628-25.116,50.347-32.75l14.305-0.682c0,0,6.551,10.974,7.002,31.491
					c-3.247,1.389-9.547,2.93-21.767,3.47C1889.503,1483.64,1867.061,1482.374,1858.248,1481.789z"/>
				
					<linearGradient id="SVGID_00000014611026339839221800000001364896745242723766_" gradientUnits="userSpaceOnUse" x1="2228.95" y1="1426.2887" x2="2219.4038" y2="1509.6019" gradientTransform="matrix(-0.9999 0.0161 0.0161 0.9999 4119.3433 -45.9411)">
					<stop  offset="0" style="stop-color:#FF928E"/>
					<stop  offset="1" style="stop-color:#FEB3B1"/>
				</linearGradient>
				<path style="fill:url(#SVGID_00000014611026339839221800000001364896745242723766_);" d="M1925.462,1426.112
					c-0.142,1.069-1.842,17.315-2.5,23.615c-0.156,1.497-1.22,2.67-2.582,2.855c-2.432,0.33-6.372,0.659-9.833,0.007
					c-1.868-0.352-3.244-2.118-3.277-4.197l-0.41-25.452L1925.462,1426.112z"/>
				
					<linearGradient id="SVGID_00000002382467146236917470000002386449790430037889_" gradientUnits="userSpaceOnUse" x1="2342.3779" y1="1045.3103" x2="2037.0516" y2="1519.0929" gradientTransform="matrix(-0.9999 0.0161 0.0161 0.9999 4119.3433 -45.9411)">
					<stop  offset="0" style="stop-color:#09005D"/>
					<stop  offset="1" style="stop-color:#1A0F91"/>
				</linearGradient>
				<path style="fill:url(#SVGID_00000002382467146236917470000002386449790430037889_);" d="M1932.178,1130.02
					c0,0-32.408,131.747-29.124,296.828c0.06,3.01,2.215,5.573,5.171,6.146c4.355,0.844,10.752,1.827,16.032,1.594
					c2.818-0.125,5.142-2.253,5.571-5.042c4.383-28.463,29.585-188.821,44.993-215.037c0,0,12.707,142.255,10.569,216.199
					c-0.053,1.839,1.318,3.411,3.148,3.593c2.776,0.276,7.214,0.447,12.847-0.243c2.138-0.262,3.84-1.909,4.112-4.046
					c3.061-24.079,20.602-167.395,18.099-270.391c-0.141-5.808-15.863-30.819-15.863-30.819L1932.178,1130.02z"/>
				
					<linearGradient id="SVGID_00000065058147682773959290000001408634703425375161_" gradientUnits="userSpaceOnUse" x1="2004.1022" y1="1011.0226" x2="1659.1024" y2="1243.0225">
					<stop  offset="0" style="stop-color:#FE7062"/>
					<stop  offset="1" style="stop-color:#FF928E"/>
				</linearGradient>
				<path style="fill:url(#SVGID_00000065058147682773959290000001408634703425375161_);" d="M1881.611,972.019
					c5.4-9.265,10.801-18.53,16.201-27.795c42.441-31.679,107.353-17.036,132.415-14.289c8.218,0.901,15.783,4.823,21.288,10.991
					c21.832,24.457,69.955,91.604,15.701,160.92c-7.146-3.819-17.315-9.962-24.269-17.149c5.846-17.362,5.992-39.432-7.278-66.279
					c-0.404,2.151-0.912,4.283-1.537,6.383c-16.787,56.328-16.98,102.979-16.767,113.727c0.029,1.459-0.826,2.787-2.172,3.353
					c-23.132,9.704-68.037,4.873-83.118,2.874c-2.765-0.367-4.662-2.905-4.326-5.674c6.522-53.61-32.788-140.997-43.152-162.875
					C1883.853,974.63,1882.834,973.219,1881.611,972.019z"/>
				
					<linearGradient id="SVGID_00000005261128764534676280000015974649294633618068_" gradientUnits="userSpaceOnUse" x1="2172.2813" y1="884.7766" x2="2135.8318" y2="1042.2905" gradientTransform="matrix(-0.9999 0.0161 0.0161 0.9999 4119.3433 -45.9411)">
					<stop  offset="0" style="stop-color:#FF928E"/>
					<stop  offset="1" style="stop-color:#FEB3B1"/>
				</linearGradient>
				<path style="fill:url(#SVGID_00000005261128764534676280000015974649294633618068_);" d="M1989.261,885.542l5.225,45.771
					c0,0-25.664,8.183-44.635-4.749l12.515-41.877L1989.261,885.542z"/>
				<g>
					
						<linearGradient id="SVGID_00000049207855057408505840000018262374132225542284_" gradientUnits="userSpaceOnUse" x1="-47.631" y1="401.9995" x2="-112.2993" y2="487.5505" gradientTransform="matrix(-0.697 -0.717 -0.717 0.697 2222.1089 528.7878)">
						<stop  offset="0" style="stop-color:#FF928E"/>
						<stop  offset="1" style="stop-color:#FEB3B1"/>
					</linearGradient>
					<path style="fill:url(#SVGID_00000049207855057408505840000018262374132225542284_);" d="M1958.495,833.773
						c-0.611,0.595-25.377,51.23-25.377,51.23l29.212,13.526l30.603-44.504C1992.933,854.025,1968.729,823.824,1958.495,833.773z"/>
					
						<linearGradient id="SVGID_00000093169576391568243860000013920535059525326008_" gradientUnits="userSpaceOnUse" x1="-97.0183" y1="422.5444" x2="-19.7704" y2="422.5444" gradientTransform="matrix(-0.697 -0.717 -0.717 0.697 2222.1089 528.7878)">
						<stop  offset="0" style="stop-color:#09005D"/>
						<stop  offset="1" style="stop-color:#1A0F91"/>
					</linearGradient>
					<path style="fill:url(#SVGID_00000093169576391568243860000013920535059525326008_);" d="M1980.127,855.45
						c0.539,1.329,0.436,2.824-0.282,4.066l-14.069,24.333c-0.213,0.369-0.469,0.704-0.777,1c-1.695,1.629-7.509,6.384-12.163,0.114
						c-3.967-5.344-7.686-10.201-11.62-12.165c-2.297-1.147-5.085-0.157-6.204,2.154c-2.305,4.76-6.764,14.457-9.516,23.63
						c-0.689,2.299,0.531,4.736,2.769,5.601c5.908,2.283,17.578,6.397,27.895,7.652c1.695,0.206,3.358-0.534,4.342-1.929
						c4.331-6.139,16.541-23.295,20.733-27.608c3.894-4.007,11.224-2.637,14.53-1.745c1.255,0.339,2.583,0.145,3.686-0.544
						c3.307-2.065,9.055-7.168,3.587-15.564c-1.36-2.087-0.729-4.907,1.33-6.309c3.689-2.513,7.661-7.182,3.686-14.576
						c-4.024-7.485-11.003-8.05-15.74-7.393c-2.096,0.291-4.245-0.776-5.083-2.719c-0.372-0.864-1.093-1.595-2.416-1.841
						c-2.495-0.465-4.165-2.713-3.717-5.212c0.768-4.284,0.049-9.823-6.831-13.462c-12.618-6.675-23.393,4.706-26.026,14.209
						c-2.633,9.503,11.458,15.962,20.272,16.936C1974.987,844.792,1978.643,851.787,1980.127,855.45z"/>
					
						<linearGradient id="SVGID_00000076586661433604024590000007419220120891704962_" gradientUnits="userSpaceOnUse" x1="-141.3172" y1="469.6893" x2="-89.9223" y2="416.9595" gradientTransform="matrix(-0.697 -0.717 -0.717 0.697 2222.1089 528.7878)">
						<stop  offset="0" style="stop-color:#FF928E"/>
						<stop  offset="1" style="stop-color:#FEB3B1"/>
					</linearGradient>
					<path style="fill:url(#SVGID_00000076586661433604024590000007419220120891704962_);" d="M1974.577,890.51
						c0,0,6.67-15.639,13.798-15.156c7.129,0.482,12.846,7.484,4.151,15.598C1981.712,901.046,1974.577,890.51,1974.577,890.51z"/>
				</g>
				
					<linearGradient id="SVGID_00000147937071557113054570000012842973482063913378_" gradientUnits="userSpaceOnUse" x1="2010.9785" y1="1235.4159" x2="2222.9792" y2="1590.4177">
					<stop  offset="0" style="stop-color:#09005D"/>
					<stop  offset="1" style="stop-color:#1A0F91"/>
				</linearGradient>
				<path style="fill:url(#SVGID_00000147937071557113054570000012842973482063913378_);" d="M1976.036,1211.146
					c0.578-0.009,1.101-0.406,1.243-0.995c2.685-11.087,23.926-23.566,24.14-23.691c0.621-0.362,0.832-1.158,0.47-1.78
					c-0.362-0.621-1.155-0.833-1.78-0.47c-0.913,0.531-22.415,13.165-25.359,25.328c-0.169,0.698,0.26,1.402,0.959,1.571
					C1975.817,1211.136,1975.928,1211.147,1976.036,1211.146z"/>
				<g>
					
						<linearGradient id="SVGID_00000013875585204588901070000009182126672720397742_" gradientUnits="userSpaceOnUse" x1="1950.0426" y1="930.6323" x2="1605.043" y2="1162.632">
						<stop  offset="0" style="stop-color:#FE7062"/>
						<stop  offset="1" style="stop-color:#FF928E"/>
					</linearGradient>
					<path style="fill:url(#SVGID_00000013875585204588901070000009182126672720397742_);" d="M1794.681,987.841
						c48.683,6.505,79.844-24.648,103.131-43.617c30.746-25.044,55.173-13.494,55.173-13.494l-32.19,63.918
						c-48.843,47.561-99.861,37.995-132.163,23.359C1787.941,1005.771,1791.047,995.473,1794.681,987.841z"/>
					
						<linearGradient id="SVGID_00000110452575971862262990000004383298151037598136_" gradientUnits="userSpaceOnUse" x1="1697.2656" y1="948.7231" x2="1830.2655" y2="1025.7231">
						<stop  offset="0" style="stop-color:#FF928E"/>
						<stop  offset="1" style="stop-color:#FEB3B1"/>
					</linearGradient>
					<path style="fill:url(#SVGID_00000110452575971862262990000004383298151037598136_);" d="M1725.955,959.966l16.245,8.407
						c19.505,11.449,36.889,17.385,52.48,19.468c-3.633,7.632-6.74,17.93-6.049,30.165c-20.563-9.317-33.543-20.689-33.543-20.689
						C1718.253,976.149,1725.955,959.966,1725.955,959.966z"/>
				</g>
				
					<linearGradient id="SVGID_00000173133504966850276840000000721283657791458181_" gradientUnits="userSpaceOnUse" x1="1688.6046" y1="963.6829" x2="1821.6046" y2="1040.6829">
					<stop  offset="0" style="stop-color:#FF928E"/>
					<stop  offset="1" style="stop-color:#FEB3B1"/>
				</linearGradient>
				<path style="fill:url(#SVGID_00000173133504966850276840000000721283657791458181_);" d="M1678.875,983.426
					c0.984-3.473,3.494-6.311,6.822-7.711l32.474-13.671c0,0,0.426-4.2-7.019-6.929c-7.446-2.729-5.849-11.045-5.849-11.045
					s10.183,4.449,25.101,11.524c8.531,4.046,13.399,11.355,16.006,16.874l-8.236,11.201c-20.048,6.376-40.413,7.862-61.01,5.792
					L1678.875,983.426z"/>
			</g>
			<g>
				
					<linearGradient id="SVGID_00000162347510777448945850000018436792422923705023_" gradientUnits="userSpaceOnUse" x1="2054.3743" y1="873.3717" x2="2357.0552" y2="1204.3677">
					<stop  offset="0" style="stop-color:#09005D"/>
					<stop  offset="1" style="stop-color:#1A0F91"/>
				</linearGradient>
				<path style="fill:url(#SVGID_00000162347510777448945850000018436792422923705023_);" d="M2050.019,970.925
					c4.97-8.207,13.641-13.597,18.871-21.642c6.587-10.133,6.813-23.552,2.497-34.841c-3.581-9.367-9.96-17.455-13.612-26.795
					c-4.915-12.57-5.008-17.978-2.768-30.597c1.972-11.115,6.291-22.954,16.961-29.329c13.198-7.885,29.34-9.381,44.447-6.527
					c15.68,2.962,30.883,9.62,42.354,20.713c11.471,11.093,18.949,26.657,18.759,42.614c-0.129,10.795-3.603,21.924-0.143,32.15
					c2.69,7.953,9.684,14.3,17.859,16.208c9.086,2.121,18.529-0.984,27.859-0.863c9.248,0.121,18.418,3.549,25.476,9.525
					c6.252,5.294,10.885,12.718,11.94,20.842c1.054,8.124-1.775,16.864-8.02,22.166c-4.271,3.626-10.28,6.081-11.857,11.457
					c-1.764,6.015,3.413,12.058,9.186,14.5c5.773,2.443,12.269,2.652,18.143,4.839c13.143,4.892,21.106,19.704,20.079,33.69
					s-9.875,26.646-21.479,34.521c-11.605,7.874-25.689,11.41-39.666,12.549c-13.978,1.139-28.025,0.025-42.033-0.635
					c-16.023-0.755-32.365-0.966-47.559-6.106c-15.366-5.198-28.643-15.142-41.022-25.624c-5.862-4.963-11.806-10.392-14.437-17.608
					c-1.91-5.239-1.919-11.06-4.116-16.185c-4.713-10.999-17.783-15.675-25.342-24.952
					C2044.73,995.59,2043.734,981.303,2050.019,970.925z"/>
				<path style="fill:#91B3FA;" d="M2223.858,990.693c0.029,0,0.059-0.002,0.089-0.008c6.626-1.22,12.467-6.073,14.88-12.362
					c2.412-6.293,1.315-13.805-2.796-19.143c-6.106-7.927-16.858-9.979-27.348-11.401l-19.008-2.578
					c-10.727-1.454-21.716-3.537-27.885-11.464c-6.58-8.456-5.267-20.007-3.997-31.18c0.146-1.279,0.289-2.548,0.42-3.8
					c1.663-15.96-0.007-29.835-4.965-41.238c-6.049-13.913-17.324-24.149-30.161-27.38c-0.263-0.072-0.522,0.091-0.588,0.352
					c-0.065,0.259,0.093,0.522,0.352,0.586c12.549,3.159,23.579,13.187,29.509,26.828c4.89,11.25,6.536,24.961,4.891,40.75
					c-0.131,1.25-0.274,2.517-0.419,3.792c-1.292,11.365-2.627,23.117,4.195,31.883c6.393,8.216,17.594,10.35,28.519,11.831
					l19.008,2.578c10.29,1.394,20.829,3.395,26.71,11.031c3.91,5.077,4.955,12.222,2.66,18.205
					c-2.294,5.982-7.849,10.598-14.152,11.757c-0.263,0.049-0.437,0.301-0.389,0.564
					C2223.426,990.53,2223.629,990.693,2223.858,990.693z"/>
				<path style="fill:#91B3FA;" d="M2217.862,984.858c0.238,0,0.476-0.087,0.662-0.261c2.323-2.177,4.957-4.645,6.52-7.774
					c1.419-2.841,2.128-7.057-0.144-10.376c-1.48-2.162-3.898-3.401-6.291-4.418c-5.806-2.47-11.906-4.239-18.135-5.252
					c-4.053-0.662-8.201-1.006-12.213-1.341c-5.18-0.431-10.535-0.878-15.66-2.009c-6.128-1.352-17.124-5.059-21.907-14.685
					c-3.866-7.779-2.43-16.455-0.911-25.64c1.232-7.446,2.506-15.148,0.759-22.466c-0.125-0.52-0.649-0.844-1.167-0.717
					c-0.52,0.125-0.841,0.647-0.717,1.167c1.656,6.938,0.414,14.443-0.787,21.7c-1.503,9.084-3.056,18.477,1.088,26.818
					c5.143,10.348,16.758,14.286,23.224,15.714c5.252,1.159,10.674,1.611,15.917,2.048c3.975,0.331,8.084,0.673,12.062,1.32
					c6.075,0.991,12.026,2.714,17.688,5.124c1.977,0.842,4.192,1.893,5.451,3.73c1.481,2.164,1.485,5.468,0.01,8.417
					c-1.407,2.818-3.799,5.06-6.111,7.225c-0.391,0.367-0.41,0.98-0.044,1.369C2217.345,984.755,2217.604,984.858,2217.862,984.858z
					"/>
				
					<linearGradient id="SVGID_00000026846747107090448020000002312979047626096813_" gradientUnits="userSpaceOnUse" x1="2127.4775" y1="997.2884" x2="1988.4779" y2="1137.2882">
					<stop  offset="0" style="stop-color:#4042E2"/>
					<stop  offset="1" style="stop-color:#4F52FF"/>
				</linearGradient>
				<path style="fill:url(#SVGID_00000026846747107090448020000002312979047626096813_);" d="M2063.865,952.211
					c9.05-2.873,35.448-8.333,61.009,14.504c4.335,3.873,6.177,9.835,4.744,15.469c-6.364,25.014-23.027,98.882-6.865,130.467
					c0,0-27.089,30.846-57.571,6.827c0,0-14.447-58.618-32.545-84.162c-12.495-17.635,18.387-67.275,26.209-79.273
					C2060.031,954.226,2061.798,952.867,2063.865,952.211z"/>
				
					<linearGradient id="SVGID_00000104701056289737165350000008688705286605670033_" gradientUnits="userSpaceOnUse" x1="2078.7085" y1="862.7952" x2="2096.7087" y2="1022.7951">
					<stop  offset="0" style="stop-color:#FF928E"/>
					<stop  offset="1" style="stop-color:#FEB3B1"/>
				</linearGradient>
				<path style="fill:url(#SVGID_00000104701056289737165350000008688705286605670033_);" d="M2088.177,902.327
					c0,0,14.062,37.826,15.344,54.593c0,0-14.756,6.999-28.946-4.184c0,0-2.082-37.975-4.315-44.745L2088.177,902.327z"/>
				
					<linearGradient id="SVGID_00000158712270317052485690000010210170112606186419_" gradientUnits="userSpaceOnUse" x1="-7238.751" y1="-691.7529" x2="-7246.751" y2="-579.7528" gradientTransform="matrix(0.9646 0.2639 -0.2639 0.9646 9817.4678 791.7588)">
					<stop  offset="0" style="stop-color:#FF928E"/>
					<stop  offset="1" style="stop-color:#FEB3B1"/>
				</linearGradient>
				<path style="fill:url(#SVGID_00000158712270317052485690000010210170112606186419_);" d="M2068.66,850.757
					c0,0-34.385,49.796-13.126,63.757c21.259,13.961,45.737-21.428,45.737-21.428s7.729-27.077-0.954-36.08
					C2091.635,848.003,2068.66,850.757,2068.66,850.757z"/>
				
					<linearGradient id="SVGID_00000141421603300266855660000015101895409609288323_" gradientUnits="userSpaceOnUse" x1="2084.6582" y1="845.6788" x2="2387.3384" y2="1176.6741">
					<stop  offset="0" style="stop-color:#09005D"/>
					<stop  offset="1" style="stop-color:#1A0F91"/>
				</linearGradient>
				<path style="fill:url(#SVGID_00000141421603300266855660000015101895409609288323_);" d="M2084.753,838.731
					c0,0-16.099,4.09-18.246,11.438c-2.147,7.349,23.145,13.724,30.206,13.942l6.161,29.415c0,0,16.359-28.028,9.444-43.951
					C2105.402,833.65,2084.753,838.731,2084.753,838.731z"/>
				
					<linearGradient id="SVGID_00000091009453388012884640000001430682109441633446_" gradientUnits="userSpaceOnUse" x1="-7212.1489" y1="-689.8589" x2="-7220.1489" y2="-577.8588" gradientTransform="matrix(0.9646 0.2639 -0.2639 0.9646 9817.4678 791.7588)">
					<stop  offset="0" style="stop-color:#FF928E"/>
					<stop  offset="1" style="stop-color:#FEB3B1"/>
				</linearGradient>
				<path style="fill:url(#SVGID_00000091009453388012884640000001430682109441633446_);" d="M2094.393,889.574
					c0,0,13.437-16.078,19.05-5.828c5.613,10.25-12.033,18.298-18.267,13.321L2094.393,889.574z"/>
				
					<linearGradient id="SVGID_00000039815272074358855860000010553901796209631932_" gradientUnits="userSpaceOnUse" x1="2054.9446" y1="1369.4646" x2="2374.9446" y2="1362.4645">
					<stop  offset="0" style="stop-color:#FF928E"/>
					<stop  offset="1" style="stop-color:#FEB3B1"/>
				</linearGradient>
				<path style="fill:url(#SVGID_00000039815272074358855860000010553901796209631932_);" d="M2032.048,1243.574
					c0.146,2.669-4.202,23.931-6.572,35.273c-0.954,4.563-0.162,9.31,2.218,13.319l90.784,147.337
					c1.098,1.782,1.908,3.719,2.414,5.75c1.732,6.955,5.367,24.01,3.864,39.602l-4.419,9.57l19.703-4.809l3.447-53.175l-5.653-3.323
					c-4.884-2.871-8.721-7.219-10.961-12.422c-8.305-19.285-28.948-68.383-34.452-92.385c-6.255-27.277-37.008-49.019-37.008-49.019
					l5.136-12.71L2032.048,1243.574z"/>
				
					<linearGradient id="SVGID_00000134229636996705770270000017264437047613078175_" gradientUnits="userSpaceOnUse" x1="5823.7007" y1="1484.8708" x2="5871.1699" y2="1484.8708" gradientTransform="matrix(-1 0.0066 0.0066 1 7975.5894 -57.3689)">
					<stop  offset="0" style="stop-color:#09005D"/>
					<stop  offset="1" style="stop-color:#1A0F91"/>
				</linearGradient>
				<path style="fill:url(#SVGID_00000134229636996705770270000017264437047613078175_);" d="M2161.722,1470.989
					c0,0-10.951-16.759-12.314-23.329c-1.363-6.57-5.048-18.151-11.575-14.542c0,0-2.587,32.064-1.316,44.556
					c1.271,12.492-13.946,12.335-13.946,12.335s-4.183,0.657-7.203,3.775c-2.086,2.154-0.51,5.806,2.484,5.951
					c4.982,0.241,12.89,0.197,21.166-1.541c2.892-0.607,5.003-3.111,5.131-6.063l1.598-36.881l13.744,16.792L2161.722,1470.989z"/>
				
					<linearGradient id="SVGID_00000139978412149900630890000001229967259196886152_" gradientUnits="userSpaceOnUse" x1="2403.0881" y1="1284.4531" x2="2218.0886" y2="1340.453">
					<stop  offset="0" style="stop-color:#FF928E"/>
					<stop  offset="1" style="stop-color:#FEB3B1"/>
				</linearGradient>
				<path style="fill:url(#SVGID_00000139978412149900630890000001229967259196886152_);" d="M2085.231,1266.42
					c0,0,5.26,133.015,5.987,151.907s-2.005,60.828-20.749,73.652l8.342,5.97c0,0,10.161-8.922,19.955-25.937
					c11.002-19.114,14.365-22.628,14.365-22.628l-3.875-7.623c-1.697-3.338-2.241-7.135-1.544-10.814
					c3.769-19.881,16.365-86.008,19.863-100.262c4.128-16.825,4.08-39.204-11.521-57.686
					C2100.452,1254.517,2085.231,1266.42,2085.231,1266.42z"/>
				
					<linearGradient id="SVGID_00000078038056757457837460000002986553948578992011_" gradientUnits="userSpaceOnUse" x1="5867.7109" y1="1493.4445" x2="5924.2988" y2="1493.4445" gradientTransform="matrix(-1 0.0066 0.0066 1 7975.5894 -57.3689)">
					<stop  offset="0" style="stop-color:#09005D"/>
					<stop  offset="1" style="stop-color:#1A0F91"/>
				</linearGradient>
				<path style="fill:url(#SVGID_00000078038056757457837460000002986553948578992011_);" d="M2106.55,1503.501
					c0.588-0.004,1.08-0.433,1.154-1.016c0.559-4.446,2.897-22.274,4.971-26.914c2.375-5.314,10.054-27.641-0.477-29.357
					c0,0-25.492,38.562-30.42,43.785c-4.928,5.224-11.307,1.979-11.307,1.979s-4.859,1.521-8.466,6.286
					c-1.716,2.268-0.031,5.529,2.813,5.51l17.587-0.116c5.108-0.033,9.651-3.21,11.473-7.981
					c2.971-7.781,8.105-19.206,14.221-24.337l-2.723,30.885C2105.313,1502.914,2105.858,1503.506,2106.55,1503.501L2106.55,1503.501
					z"/>
				
					<linearGradient id="SVGID_00000104708398653289567500000015305350825400065709_" gradientUnits="userSpaceOnUse" x1="2033.0436" y1="1286.7826" x2="2137.0435" y2="1132.7826">
					<stop  offset="0" style="stop-color:#09005D"/>
					<stop  offset="1" style="stop-color:#1A0F91"/>
				</linearGradient>
				<path style="fill:url(#SVGID_00000104708398653289567500000015305350825400065709_);" d="M2060.789,1105.198
					c0,0,4.166,12.566-1.586,33.467l-35.639,132.479c-0.56,2.082,0.593,4.232,2.634,4.928c11.361,3.872,48.678,14.732,99.311,10.422
					c2.549-0.217,4.66-2.058,5.175-4.565c3.098-15.088,13.667-66.565,15.844-77.142c8.293-40.303,17.579-83.772-26.759-109.252
					C2099.669,1104.53,2080.874,1109.943,2060.789,1105.198z"/>
				
					<linearGradient id="SVGID_00000000934252003519226140000000581465705052589449_" gradientUnits="userSpaceOnUse" x1="2210.3376" y1="802.9532" x2="2192.3376" y2="865.9532">
					<stop  offset="0" style="stop-color:#FF928E"/>
					<stop  offset="1" style="stop-color:#FEB3B1"/>
				</linearGradient>
				<path style="fill:url(#SVGID_00000000934252003519226140000000581465705052589449_);" d="M2128.557,971.627
					c0,0,43.541,35.015,54.99,83.636c11.449,48.621-61.916,54.99-61.916,54.99s-10.15-10.974-21.923-6.812
					c-11.773,4.162-1.229-19.417,12.622-19.579c13.851-0.162,7.611,10.893,27.061,1.703c18.947-8.953,30.313-35.88-19.036-75.626
					c-2.861-2.304-5.161-5.262-6.572-8.654C2103.938,977.622,2111.19,961.891,2128.557,971.627z"/>
			</g>
			<g>
				
					<linearGradient id="SVGID_00000048463645783755015710000016736751894809132461_" gradientUnits="userSpaceOnUse" x1="425.5407" y1="1752.1443" x2="468.5407" y2="1760.1443" gradientTransform="matrix(0.9776 -0.2106 0.2106 0.9776 -2522.7271 -266.7475)">
					<stop  offset="0" style="stop-color:#FF928E"/>
					<stop  offset="1" style="stop-color:#FEB3B1"/>
				</linearGradient>
				<path style="fill:url(#SVGID_00000048463645783755015710000016736751894809132461_);" d="M1753.043,1220.687
					c0,0,21.543,58.048,54.309,50.925c0,0,3.378,19.753-2.137,22.082c0,0-49.149,1.425-54.033-66.076L1753.043,1220.687z"/>
				<g>
					
						<linearGradient id="SVGID_00000038388038657586929910000018443814364026171302_" gradientUnits="userSpaceOnUse" x1="432.4118" y1="1715.213" x2="475.4117" y2="1723.213" gradientTransform="matrix(0.9776 -0.2106 0.2106 0.9776 -2522.7271 -266.7475)">
						<stop  offset="0" style="stop-color:#FF928E"/>
						<stop  offset="1" style="stop-color:#FEB3B1"/>
					</linearGradient>
					<path style="fill:url(#SVGID_00000038388038657586929910000018443814364026171302_);" d="M1753.967,1234.29
						c-0.093,1.006,3.648,1.702,4.839-2.588c-0.327-1.862-0.909-10.017-2.337-11.284c-7.605-6.748-21.165-14.338-21.165-14.338
						c-1.517,2.316,0.472,3.841,0.472,3.841l6.769,4.568c-0.706,2.339-1.737,4.406-1.853,7.077
						c-0.088,2.022,0.659,4.002,2.001,5.536c1.347,1.539,3.161,3.527,4.796,5.036
						C1750.583,1234.993,1753.967,1234.29,1753.967,1234.29z"/>
					
						<linearGradient id="SVGID_00000077303090508981719050000005793415824321585300_" gradientUnits="userSpaceOnUse" x1="-6631.4258" y1="1224.0417" x2="-6621.3037" y2="1224.0417" gradientTransform="matrix(-1 0 0 1 -4876.8154 0)">
						<stop  offset="0" style="stop-color:#FF928E"/>
						<stop  offset="1" style="stop-color:#FEB3B1"/>
					</linearGradient>
					<path style="fill:url(#SVGID_00000077303090508981719050000005793415824321585300_);" d="M1750.382,1230.927
						c-0.917-2.234-3.557-8.305-4.751-9.553c-0.811-0.848-1.184-1.618-1.139-2.353c0.038-0.613,0.36-1.16,0.986-1.671l0.236-0.193
						l6.334,3.386l2.562,4.013l-0.772,0.493l-2.433-3.811l-5.569-2.978c-0.271,0.272-0.412,0.541-0.429,0.816
						c-0.028,0.459,0.27,1.019,0.887,1.663c1.558,1.628,4.799,9.504,4.936,9.839L1750.382,1230.927z"/>
				</g>
				
					<linearGradient id="SVGID_00000059309303078645315680000001261754436032350651_" gradientUnits="userSpaceOnUse" x1="-6653.6631" y1="1175.1879" x2="-6693.939" y2="1210.7253" gradientTransform="matrix(-1 0 0 1 -4876.8154 0)">
					<stop  offset="0" style="stop-color:#09005D"/>
					<stop  offset="1" style="stop-color:#1A0F91"/>
				</linearGradient>
				<path style="fill-rule:evenodd;clip-rule:evenodd;fill:url(#SVGID_00000059309303078645315680000001261754436032350651_);" d="
					M1807.037,1196.43c0,0,10.403-9.397-2.973-19.583c-12.567-9.57-21.752,3.273-17.588,11.537c0.295,0.586-0.038,1.296-0.679,1.436
					c-1.097,0.24-2.047,1.334-0.316,5.195c0.149,0.332,0.102,0.72-0.116,1.012c-1.542,2.066-6.68,10.345,8.819,11.61
					c0.279,0.023,0.559-0.073,0.766-0.261L1807.037,1196.43z"/>
				
					<linearGradient id="SVGID_00000049929286565352508660000003415792987463769480_" gradientUnits="userSpaceOnUse" x1="-7364.7778" y1="-9.2955" x2="-7332.0879" y2="-9.2955" gradientTransform="matrix(-0.9842 -0.1769 -0.1769 0.9842 -5356.0591 -78.9985)">
					<stop  offset="0" style="stop-color:#09005D"/>
					<stop  offset="1" style="stop-color:#1A0F91"/>
				</linearGradient>
				<path style="fill-rule:evenodd;clip-rule:evenodd;fill:url(#SVGID_00000049929286565352508660000003415792987463769480_);" d="
					M1861.684,1210.222c0,0,0.998-11.991,7.416-15.9c6.417-3.909,18.875-7.233,24.094,5.805c2.49,6.219,1.665,9.177,0.122,10.571
					c-1.407,1.271-1.565,3.246-0.635,4.907c1.057,1.887,1.198,4.221-1.988,6.34c-0.94,0.625-1.572,1.546-1.772,2.589
					c-0.832,4.347-5.281,14.776-29.054,3.374L1861.684,1210.222z"/>
				
					<linearGradient id="SVGID_00000145045145527140225880000008237014620810279059_" gradientUnits="userSpaceOnUse" x1="-5610.5991" y1="-1173.2386" x2="-5787.1372" y2="-1050.0504" gradientTransform="matrix(-0.9842 -0.1769 -0.1769 0.9842 -5356.0591 -78.9985)">
					<stop  offset="0" style="stop-color:#09005D"/>
					<stop  offset="1" style="stop-color:#1A0F91"/>
				</linearGradient>
				<path style="fill-rule:evenodd;clip-rule:evenodd;fill:url(#SVGID_00000145045145527140225880000008237014620810279059_);" d="
					M1834.198,1188.662c4.678-2.006,14.589-4.049,22.298,9.434c0.538,0.941,1.316,1.719,2.265,2.243
					c4.593,2.532,17.887,11.736,5.782,28.346c-0.554,0.76-0.92,1.641-1.053,2.571c-0.405,2.815-1.744,9.05-5.77,10.589
					c-1.203,0.46-2.214,1.305-2.883,2.406c-2.706,4.455-10.422,13.825-23.403,4.038c-0.661-0.499-1.423-0.853-2.232-1.031
					l-17.927-3.949c-0.954-0.21-1.942-0.17-2.88,0.104c-2.192,0.64-6.62,1.2-8.268-3.954c-0.336-1.051-0.958-1.985-1.798-2.699
					c-3.005-2.555-9.387-9.483-4.56-19.198c0.541-1.087,0.739-2.31,0.552-3.51c-0.566-3.638-0.862-11.716,6.688-15.202
					c1.135-0.524,2.08-1.378,2.656-2.487c2.518-4.847,10.724-17.264,25.184-8.157
					C1830.457,1189.219,1832.453,1189.411,1834.198,1188.662z"/>
				
					<linearGradient id="SVGID_00000071541221589167331180000006083532869642553499_" gradientUnits="userSpaceOnUse" x1="-6689.2725" y1="1480.8057" x2="-6657.9658" y2="1480.8057" gradientTransform="matrix(-1 0 0 1 -4876.8154 0)">
					<stop  offset="0" style="stop-color:#4042E2"/>
					<stop  offset="1" style="stop-color:#4F52FF"/>
				</linearGradient>
				<path style="fill-rule:evenodd;clip-rule:evenodd;fill:url(#SVGID_00000071541221589167331180000006083532869642553499_);" d="
					M1809.849,1473.552l2.609,3.015l-1.79,6.546c-0.469,1.717-1.881,3.009-3.632,3.329c-5.826,1.067-19.038,2.997-25.836,0.071
					c0,0-2.114-14.167,21.305-9.946L1809.849,1473.552z"/>
				
					<linearGradient id="SVGID_00000044857020128882296380000006686496294365397166_" gradientUnits="userSpaceOnUse" x1="-6728.8989" y1="1490.9564" x2="-6711.4858" y2="1490.9564" gradientTransform="matrix(-1 0 0 1 -4876.8154 0)">
					<stop  offset="0" style="stop-color:#4042E2"/>
					<stop  offset="1" style="stop-color:#4F52FF"/>
				</linearGradient>
				<path style="fill-rule:evenodd;clip-rule:evenodd;fill:url(#SVGID_00000044857020128882296380000006686496294365397166_);" d="
					M1850.695,1481.075l1.389,3.41l-0.563,12.277c-0.079,1.725-1.471,3.173-3.347,3.463c-2.561,0.395-6.286,0.795-9.79,0.524
					c-2.744-0.212-4.463-2.789-3.389-5.09l4.133-8.855c0.618-1.325,1.748-2.342,3.13-2.819L1850.695,1481.075z"/>
				
					<linearGradient id="SVGID_00000044856390600231539280000010970277286758860721_" gradientUnits="userSpaceOnUse" x1="1827.1584" y1="1238.576" x2="1833.1584" y2="1311.576">
					<stop  offset="0" style="stop-color:#FF928E"/>
					<stop  offset="1" style="stop-color:#FEB3B1"/>
				</linearGradient>
				<path style="fill-rule:evenodd;clip-rule:evenodd;fill:url(#SVGID_00000044856390600231539280000010970277286758860721_);" d="
					M1838.804,1241.737l2.667,26.414c0,0-14.358,4.87-23.815-0.627l2.556-26.521L1838.804,1241.737z"/>
				
					<linearGradient id="SVGID_00000182495497053504800740000000956547196840076970_" gradientUnits="userSpaceOnUse" x1="-5490.6538" y1="-793.0302" x2="-5510.6538" y2="-757.0303" gradientTransform="matrix(-1 0 0 1 -4876.8154 0)">
					<stop  offset="0" style="stop-color:#FF928E"/>
					<stop  offset="1" style="stop-color:#FEB3B1"/>
				</linearGradient>
				<path style="fill-rule:evenodd;clip-rule:evenodd;fill:url(#SVGID_00000182495497053504800740000000956547196840076970_);" d="
					M1861.835,1386.353c0,0-6.816,75.984-11.317,99.233c0,0-3.368,2.454-8.406-0.71l-6.117-101.402L1861.835,1386.353z"/>
				
					<linearGradient id="SVGID_00000068663978238913182400000001790069635127206304_" gradientUnits="userSpaceOnUse" x1="-5464.3589" y1="-778.429" x2="-5484.3589" y2="-742.429" gradientTransform="matrix(-1 0 0 1 -4876.8154 0)">
					<stop  offset="0" style="stop-color:#FF928E"/>
					<stop  offset="1" style="stop-color:#FEB3B1"/>
				</linearGradient>
				<path style="fill-rule:evenodd;clip-rule:evenodd;fill:url(#SVGID_00000068663978238913182400000001790069635127206304_);" d="
					M1831.548,1390.915l-18.672,85.093c0,0-5.08,5.267-11.682,0l3.218-89.454L1831.548,1390.915z"/>
				
					<linearGradient id="SVGID_00000146465760151665060160000011613218674444808609_" gradientUnits="userSpaceOnUse" x1="-6805.9565" y1="1396.9421" x2="-6721.4214" y2="1280.792" gradientTransform="matrix(-1 0 0 1 -4876.8154 0)">
					<stop  offset="0" style="stop-color:#FF928E"/>
					<stop  offset="1" style="stop-color:#FEB3B1"/>
				</linearGradient>
				<path style="fill-rule:evenodd;clip-rule:evenodd;fill:url(#SVGID_00000146465760151665060160000011613218674444808609_);" d="
					M1855.168,1270.141l4.672,0.521c9.044,9.698,25.635,76.341,31.619,90.512l24.352-3.977c0.954-0.196,1.734,0.752,1.365,1.654
					c-1.081,2.642-5.137,10.264-20.942,10.264c-7.384,0,4.142,5.731-0.274,7.697c0,0-9.705-3.494-9.72-9.64
					c0,0-27.82-63.367-33.54-70.037C1846.98,1290.465,1855.168,1270.141,1855.168,1270.141z"/>
				
					<linearGradient id="SVGID_00000157294230080459591650000007436756875329597885_" gradientUnits="userSpaceOnUse" x1="1846.4882" y1="1252.5607" x2="1682.4884" y2="1616.5603">
					<stop  offset="0" style="stop-color:#FE7062"/>
					<stop  offset="1" style="stop-color:#FF928E"/>
				</linearGradient>
				<path style="fill-rule:evenodd;clip-rule:evenodd;fill:url(#SVGID_00000157294230080459591650000007436756875329597885_);" d="
					M1859.841,1270.662c0,0-24.748-9.169-55.64,0.322c0,0-3.463,23.388-1.681,34.52l53.233,1.928L1859.841,1270.662z"/>
				
					<linearGradient id="SVGID_00000088095444143745938040000016202931126217378232_" gradientUnits="userSpaceOnUse" x1="1882.1219" y1="1268.6154" x2="1718.1219" y2="1632.6157">
					<stop  offset="0" style="stop-color:#FE7062"/>
					<stop  offset="1" style="stop-color:#FF928E"/>
				</linearGradient>
				<path style="fill-rule:evenodd;clip-rule:evenodd;fill:url(#SVGID_00000088095444143745938040000016202931126217378232_);" d="
					M1803.247,1312.814c0,0-17.012,54.615-19.537,91.004c-0.13,1.872,1.278,3.486,3.15,3.62c3.54,0.253,9.784,1.125,18.267,3.95
					c13.755,4.58,25.144,3.07,35.427,0.117c8.071-2.318,28.256-4.345,36.565-5.109c1.98-0.182,3.376-2.017,3.025-3.974
					c-2.416-13.464-11.594-61.251-25.517-93.734L1803.247,1312.814z"/>
				
					<linearGradient id="SVGID_00000021797785877424236950000017738784838893024673_" gradientUnits="userSpaceOnUse" x1="1827.3052" y1="1315.4934" x2="1799.3052" y2="1435.4933">
					<stop  offset="0" style="stop-color:#E1473D"/>
					<stop  offset="1" style="stop-color:#E9605A"/>
				</linearGradient>
				<path style="fill-rule:evenodd;clip-rule:evenodd;fill:url(#SVGID_00000021797785877424236950000017738784838893024673_);" d="
					M1802.346,1304.243l0.901,8.571c0,0,16.37,0.063,52.537-1.154l0.188-6.199
					C1855.972,1305.461,1815.905,1306.246,1802.346,1304.243z"/>
				
					<linearGradient id="SVGID_00000117657036544131535570000017570600842827348663_" gradientUnits="userSpaceOnUse" x1="1829.0621" y1="1179.7166" x2="1823.0621" y2="1250.7163">
					<stop  offset="0" style="stop-color:#FF928E"/>
					<stop  offset="1" style="stop-color:#FEB3B1"/>
				</linearGradient>
				<path style="fill-rule:evenodd;clip-rule:evenodd;fill:url(#SVGID_00000117657036544131535570000017570600842827348663_);" d="
					M1802.464,1216.128c-4.11,15.882-2.911,34.135,15.775,38.23c12.928,2.833,26.514-10.339,30.624-26.222
					c4.11-15.882-2.927-27.978-15.74-31.293C1820.311,1193.527,1806.574,1200.246,1802.464,1216.128z"/>
				
					<linearGradient id="SVGID_00000031165601952327162980000015600696926716896167_" gradientUnits="userSpaceOnUse" x1="1804.5673" y1="1177.6466" x2="1798.5673" y2="1248.6465">
					<stop  offset="0" style="stop-color:#FF928E"/>
					<stop  offset="1" style="stop-color:#FEB3B1"/>
				</linearGradient>
				<path style="fill-rule:evenodd;clip-rule:evenodd;fill:url(#SVGID_00000031165601952327162980000015600696926716896167_);" d="
					M1803.869,1221.028c0,0-0.612-9.603-5.402-6.641c-4.79,2.962,1.851,14.471,4.812,15.146
					C1806.24,1230.207,1803.869,1221.028,1803.869,1221.028z"/>
				
					<linearGradient id="SVGID_00000168825638002156223880000008370254003967898294_" gradientUnits="userSpaceOnUse" x1="1851.3854" y1="1181.603" x2="1845.3855" y2="1252.603">
					<stop  offset="0" style="stop-color:#FF928E"/>
					<stop  offset="1" style="stop-color:#FEB3B1"/>
				</linearGradient>
				<path style="fill-rule:evenodd;clip-rule:evenodd;fill:url(#SVGID_00000168825638002156223880000008370254003967898294_);" d="
					M1844.845,1232.104c0,0,1.433-7.326,6.623-3.94c5.19,3.386-4.713,15.355-10.815,12.693L1844.845,1232.104z"/>
				
					<linearGradient id="SVGID_00000135672264097278441030000014580385295068066207_" gradientUnits="userSpaceOnUse" x1="-5613.9175" y1="-1177.9884" x2="-5790.4551" y2="-1054.8003" gradientTransform="matrix(-0.9842 -0.1769 -0.1769 0.9842 -5356.0591 -78.9985)">
					<stop  offset="0" style="stop-color:#09005D"/>
					<stop  offset="1" style="stop-color:#1A0F91"/>
				</linearGradient>
				<path style="fill-rule:evenodd;clip-rule:evenodd;fill:url(#SVGID_00000135672264097278441030000014580385295068066207_);" d="
					M1852.527,1226.28c0,0-14.859,16.086-22.578-17.294c0,0-7.704,9.971-11.22,1.151c0,0-15.336,5.257-17.031-1.195
					c-1.695-6.451,20.733-23.943,38.77-11.39C1858.504,1210.107,1852.527,1226.28,1852.527,1226.28z"/>
			</g>
			<g>
				
					<linearGradient id="SVGID_00000088110218888978396340000011571456333941179812_" gradientUnits="userSpaceOnUse" x1="3091.1978" y1="1321.4891" x2="3066.6978" y2="1102.9888" gradientTransform="matrix(0.9776 -0.2106 0.2106 0.9776 -1433.3365 -266.7475)">
					<stop  offset="0" style="stop-color:#FF928E"/>
					<stop  offset="1" style="stop-color:#FEB3B1"/>
				</linearGradient>
				<path style="fill:url(#SVGID_00000088110218888978396340000011571456333941179812_);" d="M2093.741,1133.726
					c0,0,47.215,67.609,87.389,76.797c0,0-3.195,19.313-10.197,22.269c0,0-38.465-9.19-79.554-90.268L2093.741,1133.726z"/>
				<g>
					
						<linearGradient id="SVGID_00000082332912547164680980000010750932506754911121_" gradientUnits="userSpaceOnUse" x1="3064.4771" y1="1324.4858" x2="3039.9773" y2="1105.9857" gradientTransform="matrix(0.9776 -0.2106 0.2106 0.9776 -1433.3365 -266.7475)">
						<stop  offset="0" style="stop-color:#FF928E"/>
						<stop  offset="1" style="stop-color:#FEB3B1"/>
					</linearGradient>
					<path style="fill:url(#SVGID_00000082332912547164680980000010750932506754911121_);" d="M2101.862,1152.781
						c-0.119,1.277,4.631,2.16,6.143-3.285c-0.415-2.364-1.154-12.717-2.966-14.325c-9.654-8.566-26.869-18.202-26.869-18.202
						c-1.926,2.94,0.6,4.876,0.6,4.876l8.594,5.799c-0.897,2.969-2.205,5.594-2.353,8.984c-0.112,2.567,0.836,5.08,2.54,7.027
						c1.71,1.954,4.012,4.477,6.088,6.393C2097.566,1153.673,2101.862,1152.781,2101.862,1152.781z"/>
					
						<linearGradient id="SVGID_00000035511135616821949640000017944885448569274811_" gradientUnits="userSpaceOnUse" x1="2098.7905" y1="1119.6049" x2="2088.2908" y2="1191.6049">
						<stop  offset="0" style="stop-color:#FF928E"/>
						<stop  offset="1" style="stop-color:#FEB3B1"/>
					</linearGradient>
					<path style="fill:url(#SVGID_00000035511135616821949640000017944885448569274811_);" d="M2097.421,1148.467
						c-0.042-0.102-4.213-10.239-6.056-12.165c-1.006-1.052-1.469-2-1.413-2.898c0.046-0.743,0.441-1.409,1.209-2.036l0.239-0.196
						l7.944,4.247l3.236,5.068l-0.781,0.499l-3.106-4.864l-7.174-3.835c-0.406,0.387-0.617,0.773-0.641,1.174
						c-0.038,0.617,0.351,1.358,1.158,2.201c1.962,2.051,6.07,12.03,6.244,12.454L2097.421,1148.467z"/>
				</g>
				
					<linearGradient id="SVGID_00000169555492808918365810000009973675680558265731_" gradientUnits="userSpaceOnUse" x1="2618.2095" y1="-5742.019" x2="2639.2095" y2="-5567.019" gradientTransform="matrix(0.4933 0.8699 0.8699 -0.4933 1291.3453 -1718.8345)">
					<stop  offset="0" style="stop-color:#09005D"/>
					<stop  offset="1" style="stop-color:#1A0F91"/>
				</linearGradient>
				<path style="fill-rule:evenodd;clip-rule:evenodd;fill:url(#SVGID_00000169555492808918365810000009973675680558265731_);" d="
					M2293.489,1405.092c2.116-1.899,5.46-4.688,8.558-6.36c0.79-0.426,1.762-0.223,2.31,0.487
					c3.221,4.17,13.973,18.609,16.374,28.546c0.199,0.824-0.222,1.668-0.973,2.06c-2.771,1.445-10.083,3.006-20.507-11.496
					l-6.264-8.849C2292.013,1408.101,2292.234,1406.218,2293.489,1405.092z"/>
				
					<linearGradient id="SVGID_00000007410242355418209630000007302107986264418736_" gradientUnits="userSpaceOnUse" x1="-1602.7565" y1="938.1208" x2="-1692.7565" y2="1086.1208" gradientTransform="matrix(-1 0 0 1 378.4521 0)">
					<stop  offset="0" style="stop-color:#FF928E"/>
					<stop  offset="1" style="stop-color:#FEB3B1"/>
				</linearGradient>
				<path style="fill-rule:evenodd;clip-rule:evenodd;fill:url(#SVGID_00000007410242355418209630000007302107986264418736_);" d="
					M2229.953,1372.675c0,0,3.503,47.292,22.77,63.056c16.869,13.802,43.135-11.333,49.414-17.804
					c0.915-0.944,1.355-2.28,1.094-3.569c-0.629-3.109-2.138-5.523-4.786-7.04c-1.863-1.067-4.206-0.823-5.783,0.634
					c-5.231,4.834-18.931,16.564-25.927,13.766c-8.758-3.503-14.012-49.043-14.012-49.043H2229.953z"/>
				<g>
					
						<linearGradient id="SVGID_00000059305455692043227790000011570898375728354457_" gradientUnits="userSpaceOnUse" x1="2366.7805" y1="1153.1771" x2="2253.7805" y2="1205.1772">
						<stop  offset="0" style="stop-color:#FF928E"/>
						<stop  offset="1" style="stop-color:#FEB3B1"/>
					</linearGradient>
					<path style="fill-rule:evenodd;clip-rule:evenodd;fill:url(#SVGID_00000059305455692043227790000011570898375728354457_);" d="
						M2275.493,1229.048c0,0,26.273-12.261,40.708-79.47l-7.184-3.682c0,0-27.889,54.882-42.281,67.388
						C2252.343,1225.79,2275.493,1229.048,2275.493,1229.048z"/>
					
						<linearGradient id="SVGID_00000025425819162571331860000001559727477842544265_" gradientUnits="userSpaceOnUse" x1="2351.7996" y1="1120.6219" x2="2238.7996" y2="1172.6219">
						<stop  offset="0" style="stop-color:#FF928E"/>
						<stop  offset="1" style="stop-color:#FEB3B1"/>
					</linearGradient>
					<path style="fill-rule:evenodd;clip-rule:evenodd;fill:url(#SVGID_00000025425819162571331860000001559727477842544265_);" d="
						M2310.643,1153.987l5.558-4.408c0,0,7.583-7.362,10.245-13.618c2.662-6.256-5.153-11.894-8.1-13.223
						c-2.947-1.329-4.564,1.471-3.977,7.759c0,0-6.715,7.807-5.748,19.188L2310.643,1153.987z"/>
				</g>
				
					<linearGradient id="SVGID_00000152943223769897047210000006885326273002551728_" gradientUnits="userSpaceOnUse" x1="-1881.1349" y1="1111.9142" x2="-1860.1348" y2="1286.9139" gradientTransform="matrix(-1 -0.0047 -0.0047 1 377.0641 1.142)">
					<stop  offset="0" style="stop-color:#09005D"/>
					<stop  offset="1" style="stop-color:#1A0F91"/>
				</linearGradient>
				<path style="fill-rule:evenodd;clip-rule:evenodd;fill:url(#SVGID_00000152943223769897047210000006885326273002551728_);" d="
					M2220.789,1494.308c0,0,2.087,7.749,1.943,13.473c-0.023,0.899-0.689,1.647-1.581,1.77c-5.231,0.722-23.089,2.862-32.898,0.005
					c-0.79-0.23-1.331-0.967-1.307-1.789c0.089-3.079,2.257-10.306,20.176-12.152L2220.789,1494.308z"/>
				
					<linearGradient id="SVGID_00000095310739528452065530000010776638500222158774_" gradientUnits="userSpaceOnUse" x1="2430.5562" y1="1064.1891" x2="2340.5559" y2="1212.1896">
					<stop  offset="0" style="stop-color:#FF928E"/>
					<stop  offset="1" style="stop-color:#FEB3B1"/>
				</linearGradient>
				<path style="fill-rule:evenodd;clip-rule:evenodd;fill:url(#SVGID_00000095310739528452065530000010776638500222158774_);" d="
					M2189.957,1375.776c-2.205,1.44,14.431,118.265,18.462,119.114c0,0,4.61,4.285,11.725-0.599
					c-4.107-38.075-6.608-76.695-4.397-116.163L2189.957,1375.776z"/>
				
					<linearGradient id="SVGID_00000173865308812989142770000016136250870743761580_" gradientUnits="userSpaceOnUse" x1="-1700.2472" y1="1471.5425" x2="-1627.7238" y2="1471.5425" gradientTransform="matrix(-0.9977 0.0685 0.0685 0.9977 458.6043 -7.6026)">
					<stop  offset="0" style="stop-color:#09005D"/>
					<stop  offset="1" style="stop-color:#1A0F91"/>
				</linearGradient>
				<path style="fill-rule:evenodd;clip-rule:evenodd;fill:url(#SVGID_00000173865308812989142770000016136250870743761580_);" d="
					M2248.307,1304.871c0,0-54.255,2.482-67.177,7.018c0,0,1.593,44.11,6.896,71.216c0.206,1.051,1,1.884,2.044,2.126
					c3.481,0.807,12.245,1.961,26.134-1.928c1.235-0.346,2.056-1.518,1.968-2.797l-1.433-17.57c-0.081-1.18,0.81-2.201,1.989-2.282
					l1.453-0.22c1.23-0.084,2.276,0.884,2.287,2.116l2.743,17.819c0.01,1.154,0.746,2.173,1.839,2.543
					c4.078,1.382,14.691,3.96,28.685-0.304c1.128-0.343,1.91-1.384,1.918-2.562
					C2257.797,1358.418,2253.912,1332.551,2248.307,1304.871z"/>
				
					<linearGradient id="SVGID_00000064316746306884266540000016869092256685318051_" gradientUnits="userSpaceOnUse" x1="-1701.0063" y1="1424.7441" x2="-1680.9063" y2="1452.1534" gradientTransform="matrix(-0.9977 0.0685 0.0685 0.9977 458.6043 -7.6026)">
					<stop  offset="0" style="stop-color:#09005D"/>
					<stop  offset="1" style="stop-color:#1A0F91"/>
				</linearGradient>
				<path style="fill-rule:evenodd;clip-rule:evenodd;fill:url(#SVGID_00000064316746306884266540000016869092256685318051_);" d="
					M2227.969,1308.675c0,0,6.858,19.067,23.407,20.389l-3.659-21.745C2247.718,1307.319,2234.899,1307.224,2227.969,1308.675z"/>
				
					<linearGradient id="SVGID_00000159461793884083343600000015504253215074984832_" gradientUnits="userSpaceOnUse" x1="2212.9968" y1="1247.9102" x2="2108.0017" y2="1400.9031">
					<stop  offset="0" style="stop-color:#FE7062"/>
					<stop  offset="1" style="stop-color:#FF928E"/>
				</linearGradient>
				<path style="fill-rule:evenodd;clip-rule:evenodd;fill:url(#SVGID_00000159461793884083343600000015504253215074984832_);" d="
					M2273.741,1204.527c0,0-24.521,15.764-54.298,14.012c-24.833-1.461-39.92-7.795-48.309-14.937c-3-2.554-7.266-2.971-10.58-0.839
					c-3.625,2.333-8.452,5.962-13.524,11.26c-1.274,1.33-1.533,3.368-0.563,4.933c7.234,11.685,14.946,19.855,23.123,24.606
					c2.768,3.05,4.252,7.051,4.144,11.169l-1.51,57.398c-0.042,1.591,1.063,2.977,2.627,3.274
					c10.885,2.065,52.194,9.257,77.872,4.726v-61.907c0-4.602,2.545-8.789,6.569-11.022c5.393-2.994,13.425-8.859,21.456-19.902
					L2273.741,1204.527z"/>
				
					<linearGradient id="SVGID_00000017479292445066088760000011806466157746182025_" gradientUnits="userSpaceOnUse" x1="2178.749" y1="1135.8143" x2="2181.249" y2="1213.3148">
					<stop  offset="0" style="stop-color:#FF928E"/>
					<stop  offset="1" style="stop-color:#FEB3B1"/>
				</linearGradient>
				<path style="fill-rule:evenodd;clip-rule:evenodd;fill:url(#SVGID_00000017479292445066088760000011806466157746182025_);" d="
					M2182.771,1181.872c0,0,2.088-5.891-3.234-6.94s-0.245,14.592-0.245,14.592L2182.771,1181.872z"/>
				
					<linearGradient id="SVGID_00000070077612487202384490000006069571187995138224_" gradientUnits="userSpaceOnUse" x1="2215.1594" y1="1190.2191" x2="2217.1594" y2="1257.2191">
					<stop  offset="0" style="stop-color:#FF928E"/>
					<stop  offset="1" style="stop-color:#FEB3B1"/>
				</linearGradient>
				<path style="fill-rule:evenodd;clip-rule:evenodd;fill:url(#SVGID_00000070077612487202384490000006069571187995138224_);" d="
					M2225.321,1197.855l2.102,23.085c0,0-12.184,7.119-22.667,0.895l1.862-20.163L2225.321,1197.855z"/>
				
					<linearGradient id="SVGID_00000115485242244461447980000004742036701574323859_" gradientUnits="userSpaceOnUse" x1="-2643.7102" y1="78.5324" x2="-2670.7278" y2="26.9048" gradientTransform="matrix(-0.9011 -0.4336 -0.4336 0.9011 -153.2839 -33.5377)">
					<stop  offset="0" style="stop-color:#09005D"/>
					<stop  offset="1" style="stop-color:#1A0F91"/>
				</linearGradient>
				<path style="fill-rule:evenodd;clip-rule:evenodd;fill:url(#SVGID_00000115485242244461447980000004742036701574323859_);" d="
					M2180.067,1181.816c-2.432-1.61-4.444-3.465-5.663-5.677c-1.905-3.458-3.85-7.575-2.233-11.176
					c1.084-2.415,3.675-4.255,3.683-6.902c0.006-1.948-1.435-3.589-1.916-5.476c-0.759-2.978,1.068-6.147,3.636-7.834
					s5.722-2.188,8.781-2.484c1.423-0.138,2.904-0.257,4.138-0.978c1.437-0.84,2.312-2.357,3.417-3.601
					c4.34-4.884,13.048-4.821,17.318,0.125c2.201,2.55,3.396,6.156,6.399,7.684c1.65,0.84,3.572,0.888,5.386,1.255
					c4.178,0.846,7.816,3.419,10.874,6.388c4.575,4.443,8.231,9.075,9.417,15.457c0.629,3.385,0.63,6.851,0.629,10.294
					c-0.001,4.378-0.042,8.937-1.985,12.86c-1.917,3.87-5.521,6.755-7.173,10.745c-0.537,1.297-0.86,2.696-1.611,3.882
					s-2.105,2.149-3.484,1.887c-1.656-0.315-2.496-2.103-3.384-3.536c-4.4-7.099-19.073-10.349-26.41-13.876
					C2194.37,1188.202,2185.977,1185.729,2180.067,1181.816z"/>
				
					<linearGradient id="SVGID_00000040569438840836604450000017792464006081088168_" gradientUnits="userSpaceOnUse" x1="2204.9817" y1="1134.9684" x2="2207.4817" y2="1212.4685">
					<stop  offset="0" style="stop-color:#FF928E"/>
					<stop  offset="1" style="stop-color:#FEB3B1"/>
				</linearGradient>
				<path style="fill-rule:evenodd;clip-rule:evenodd;fill:url(#SVGID_00000040569438840836604450000017792464006081088168_);" d="
					M2190.185,1162.32c0,0-25.417,38.298,0.844,50.029c24.784,11.072,35.228-14.359,35.228-14.359s10.898-11.292,7.238-19.985
					S2196.379,1157.561,2190.185,1162.32z"/>
				
					<linearGradient id="SVGID_00000090282479185429703360000001616077314418852772_" gradientUnits="userSpaceOnUse" x1="-2561.4558" y1="386.8011" x2="-2586.0222" y2="339.8571" gradientTransform="matrix(-0.9402 -0.3405 -0.3405 0.9402 -75.341 -53.91)">
					<stop  offset="0" style="stop-color:#09005D"/>
					<stop  offset="1" style="stop-color:#1A0F91"/>
				</linearGradient>
				<path style="fill-rule:evenodd;clip-rule:evenodd;fill:url(#SVGID_00000090282479185429703360000001616077314418852772_);" d="
					M2228.9,1190.23c-1.422-0.31-2.822-1.228-4.041-2.948c-1.806-2.547-2.183-5.818-3.436-8.678
					c-2.014-4.594-6.354-7.986-11.196-9.294c-4.381-1.184-9.007-0.775-13.543-0.873c-6.177-0.133-20.11-4.612-8.803-10.677
					c8.135-4.364,17.479-0.27,25.542,1.97c7.711,2.142,16.661,6.526,21.711,13.025c2.176,2.801,3.483,6.69,2.722,10.23
					C2236.925,1187.312,2232.827,1191.087,2228.9,1190.23z"/>
				
					<linearGradient id="SVGID_00000068666548652036543900000013108099104773178529_" gradientUnits="userSpaceOnUse" x1="2226.967" y1="1134.259" x2="2229.467" y2="1211.7593">
					<stop  offset="0" style="stop-color:#FF928E"/>
					<stop  offset="1" style="stop-color:#FEB3B1"/>
				</linearGradient>
				<path style="fill-rule:evenodd;clip-rule:evenodd;fill:url(#SVGID_00000068666548652036543900000013108099104773178529_);" d="
					M2222.994,1201.408l4.419-12.148c0,0,8.539-3.924,7.414,2.685C2233.702,1198.554,2226.029,1202.205,2222.994,1201.408z"/>
			</g>
		</g>
	</g>
</g>
</svg>
