<?xml version="1.0" encoding="utf-8"?>
<!-- Generator: Adobe Illustrator 27.5.0, SVG Export Plug-In . SVG Version: 6.00 Build 0)  -->
<svg version="1.1" xmlns="http://www.w3.org/2000/svg" xmlns:xlink="http://www.w3.org/1999/xlink" x="0px" y="0px"
	 viewBox="0 0 750 500" style="enable-background:new 0 0 750 500;" xml:space="preserve">
<g id="BACKGROUND">
	<g>
		<rect style="fill:#FFFFFF;" width="750" height="500"/>
	</g>
</g>
<g id="OBJECTS">
	<g style="opacity:0.2;">
		<path style="opacity:0.43;fill:#01AFB8;" d="M362.99,141.933l-44.026,48.118v80.013h-28.365V155.395h-7.213l-20.538-19.191
			l-20.649,19.191h-7.094v154.748h-56.712h-47.65v84.287h301.022V206.848H362.99V141.933z M283.386,247.992h-41.068v-4.195h41.068
			V247.992z M283.386,239.62h-41.068v-4.195h41.068V239.62z M283.386,231.247h-41.068v-4.186h41.068V231.247z M283.386,222.876
			h-41.068v-4.186h41.068V222.876z M283.386,214.512h-41.068v-4.195h41.068V214.512z M283.386,206.14h-41.068v-4.195h41.068V206.14z
			 M283.386,197.768h-41.068v-4.186h41.068V197.768z M283.386,189.396h-41.068v-4.186h41.068V189.396z M283.386,181.023h-41.068
			v-4.186h41.068V181.023z M283.386,172.66h-41.068v-4.195h41.068V172.66z M283.386,164.288h-41.068v-4.186h41.068V164.288z
			 M357.405,368.194h-4.263V162.19l4.263-4.672V368.194z"/>
		<path style="opacity:0.43;fill:#01AFB8;" d="M604.604,310.141V155.393h-7.209l-20.538-19.186l-20.646,19.186h-7.094v154.748
			H444.75v84.29h157.664v0.322h40.967v-84.612H604.604z M597.395,247.99h-41.069v-4.19h41.069V247.99z M597.395,239.617h-41.069
			v-4.19h41.069V239.617z M597.395,231.245h-41.069v-4.182h41.069V231.245z M597.395,222.873h-41.069v-4.182h41.069V222.873z
			 M597.395,214.509h-41.069v-4.19h41.069V214.509z M597.395,206.137h-41.069v-4.19h41.069V206.137z M597.395,197.765h-41.069
			v-4.182h41.069V197.765z M597.395,189.393h-41.069v-4.182h41.069V189.393z M597.395,181.021h-41.069v-4.182h41.069V181.021z
			 M597.395,172.657h-41.069v-4.19h41.069V172.657z M597.395,164.285h-41.069v-4.182h41.069V164.285z"/>
		<path style="fill:#01AFB8;" d="M559.417,315.895V169.181h-6.612v-14.844h-49.029v14.844h-6.572v184.443h-47.996v-83.529h-69.893
			v109.608h-33.768V183.366H276.7V334.21h-8.08v-89.792h-12.453l-34.719-18.336v18.336h-7.594v110.896h-16.858V205.135h-17.048
			v-52.686h-2.334v52.686h-17.048v189.619h444.039v-78.86H559.417z M192.886,301.635h-28.128v-3.264h28.128V301.635z
			 M192.886,294.083h-28.128v-3.264h28.128V294.083z M192.886,286.52h-28.128v-3.264h28.128V286.52z M192.886,278.968h-28.128
			v-3.264h28.128V278.968z M192.886,271.416h-28.128v-3.264h28.128V271.416z M192.886,263.853h-28.128v-3.264h28.128V263.853z
			 M192.886,256.301h-28.128v-3.264h28.128V256.301z M192.886,248.748h-28.128v-3.264h28.128V248.748z M192.886,241.186h-28.128
			v-3.264h28.128V241.186z M192.886,233.633h-28.128v-3.264h28.128V233.633z M192.886,226.081h-28.128v-3.264h28.128V226.081z
			 M192.886,218.518h-28.128v-3.264h28.128V218.518z M192.886,210.966h-28.128v-3.264h28.128V210.966z M291.53,255.941h-8.376
			v-8.365h8.376V255.941z M291.53,241.988h-8.376v-8.376h8.376V241.988z M291.53,228.024h-8.376v-8.365h8.376V228.024z
			 M291.53,214.071h-8.376v-8.376h8.376V214.071z M291.53,200.108h-8.376v-8.376h8.376V200.108z M307.437,255.941h-8.366v-8.365
			h8.366V255.941z M307.437,241.988h-8.366v-8.376h8.366V241.988z M307.437,228.024h-8.366v-8.365h8.366V228.024z M307.437,214.071
			h-8.366v-8.376h8.366V214.071z M307.437,200.108h-8.366v-8.376h8.366V200.108z M323.354,255.941h-8.376v-8.365h8.376V255.941z
			 M323.354,241.988h-8.376v-8.376h8.376V241.988z M323.354,228.024h-8.376v-8.365h8.376V228.024z M323.354,214.071h-8.376v-8.376
			h8.376V214.071z M323.354,200.108h-8.376v-8.376h8.376V200.108z M339.262,255.941h-8.365v-8.365h8.365V255.941z M339.262,241.988
			h-8.365v-8.376h8.365V241.988z M339.262,228.024h-8.365v-8.365h8.365V228.024z M339.262,214.071h-8.365v-8.376h8.365V214.071z
			 M568.121,384.942h-8.703v-8.704h8.703V384.942z M568.121,367.514h-8.703v-8.703h8.703V367.514z M568.121,350.086h-8.703v-8.704
			h8.703V350.086z M568.121,332.657h-8.703v-8.704h8.703V332.657z M584.271,384.942h-8.703v-8.704h8.703V384.942z M584.271,367.514
			h-8.703v-8.703h8.703V367.514z M584.271,350.086h-8.703v-8.704h8.703V350.086z M584.271,332.657h-8.703v-8.704h8.703V332.657z
			 M600.421,384.942h-8.714v-8.704h8.714V384.942z M600.421,367.514h-8.714v-8.703h8.714V367.514z M600.421,350.086h-8.714v-8.704
			h8.714V350.086z M600.421,332.657h-8.714v-8.704h8.714V332.657z"/>
		<path style="fill:#01AFB8;" d="M549.782,183.364h-68.849V334.21h-8.083v-89.792h-12.447l-34.726-18.336v18.336h-7.588v110.899
			h-16.86V205.139h-17.049v-52.691h-2.334v52.691h-17.049v189.613h184.829L549.782,183.364z M397.121,301.637h-28.127v-3.266h28.127
			V301.637z M397.121,294.081h-28.127v-3.266h28.127V294.081z M397.121,286.518h-28.127v-3.258h28.127V286.518z M397.121,278.97
			h-28.127v-3.266h28.127V278.97z M397.121,271.415h-28.127v-3.266h28.127V271.415z M397.121,263.851h-28.127v-3.266h28.127V263.851
			z M397.121,256.304h-28.127v-3.266h28.127V256.304z M397.121,248.748h-28.127v-3.266h28.127V248.748z M397.121,241.185h-28.127
			v-3.266h28.127V241.185z M397.121,233.629h-28.127v-3.258h28.127V233.629z M397.121,226.082h-28.127v-3.266h28.127V226.082z
			 M397.121,218.518h-28.127v-3.266h28.127V218.518z M397.121,210.963h-28.127v-3.258h28.127V210.963z M495.763,255.941h-8.38
			v-8.364h8.38V255.941z M495.763,241.985h-8.38v-8.372h8.38V241.985z M495.763,228.029h-8.38v-8.372h8.38V228.029z
			 M495.763,214.072h-8.38v-8.38h8.38V214.072z M495.763,200.108h-8.38v-8.38h8.38V200.108z M511.666,255.941h-8.364v-8.364h8.364
			V255.941z M511.666,241.985h-8.364v-8.372h8.364V241.985z M511.666,228.029h-8.364v-8.372h8.364V228.029z M511.666,214.072h-8.364
			v-8.38h8.364V214.072z M511.666,200.108h-8.364v-8.38h8.364V200.108z M527.586,255.941h-8.372v-8.364h8.372V255.941z
			 M527.586,241.985h-8.372v-8.372h8.372V241.985z M527.586,228.029h-8.372v-8.372h8.372V228.029z M527.586,214.072h-8.372v-8.38
			h8.372V214.072z M527.586,200.108h-8.372v-8.38h8.372V200.108z M543.497,255.941h-8.364v-8.364h8.364V255.941z M543.497,241.985
			h-8.364v-8.372h8.364V241.985z M543.497,228.029h-8.364v-8.372h8.364V228.029z M543.497,214.072h-8.364v-8.38h8.364V214.072z"/>
		<g>
			<rect x="330.891" y="359.239" style="fill:#DCFFFF;" width="8.376" height="8.376"/>
			<rect x="283.153" y="373.197" style="fill:#DCFFFF;" width="8.376" height="8.376"/>
			<rect x="299.066" y="373.197" style="fill:#DCFFFF;" width="8.376" height="8.376"/>
			<rect x="314.978" y="373.197" style="fill:#DCFFFF;" width="8.376" height="8.376"/>
			<rect x="330.891" y="373.197" style="fill:#DCFFFF;" width="8.376" height="8.376"/>
			<rect x="330.891" y="219.654" style="fill:#DCFFFF;" width="8.376" height="8.376"/>
			<rect x="283.153" y="233.612" style="fill:#DCFFFF;" width="8.376" height="8.376"/>
			<rect x="299.066" y="233.612" style="fill:#DCFFFF;" width="8.376" height="8.376"/>
			<rect x="314.978" y="233.612" style="fill:#DCFFFF;" width="8.376" height="8.376"/>
			<rect x="330.891" y="233.612" style="fill:#DCFFFF;" width="8.376" height="8.376"/>
			<rect x="283.153" y="247.571" style="fill:#DCFFFF;" width="8.376" height="8.376"/>
			<rect x="299.066" y="247.571" style="fill:#DCFFFF;" width="8.376" height="8.376"/>
			<rect x="314.978" y="247.571" style="fill:#DCFFFF;" width="8.376" height="8.376"/>
			<rect x="330.891" y="247.571" style="fill:#DCFFFF;" width="8.376" height="8.376"/>
			<rect x="283.153" y="261.529" style="fill:#DCFFFF;" width="8.376" height="8.376"/>
			<rect x="299.066" y="261.529" style="fill:#DCFFFF;" width="8.376" height="8.376"/>
			<rect x="314.978" y="261.529" style="fill:#DCFFFF;" width="8.376" height="8.376"/>
			<rect x="330.891" y="261.529" style="fill:#DCFFFF;" width="8.376" height="8.376"/>
			<rect x="283.153" y="275.488" style="fill:#DCFFFF;" width="8.376" height="8.376"/>
			<rect x="299.066" y="275.488" style="fill:#DCFFFF;" width="8.376" height="8.376"/>
			<rect x="314.978" y="275.488" style="fill:#DCFFFF;" width="8.376" height="8.376"/>
			<rect x="330.891" y="275.488" style="fill:#DCFFFF;" width="8.376" height="8.376"/>
			<rect x="283.153" y="289.446" style="fill:#DCFFFF;" width="8.376" height="8.376"/>
			<rect x="299.066" y="289.446" style="fill:#DCFFFF;" width="8.376" height="8.376"/>
			<rect x="314.978" y="289.446" style="fill:#DCFFFF;" width="8.376" height="8.376"/>
			<rect x="330.891" y="289.446" style="fill:#DCFFFF;" width="8.376" height="8.376"/>
			<rect x="283.153" y="303.405" style="fill:#DCFFFF;" width="8.376" height="8.376"/>
			<rect x="299.066" y="303.405" style="fill:#DCFFFF;" width="8.376" height="8.376"/>
			<rect x="314.978" y="303.405" style="fill:#DCFFFF;" width="8.376" height="8.376"/>
			<rect x="330.891" y="303.405" style="fill:#DCFFFF;" width="8.376" height="8.376"/>
			<rect x="283.153" y="317.363" style="fill:#DCFFFF;" width="8.376" height="8.376"/>
			<rect x="299.066" y="317.363" style="fill:#DCFFFF;" width="8.376" height="8.376"/>
			<rect x="314.978" y="317.363" style="fill:#DCFFFF;" width="8.376" height="8.376"/>
			<rect x="330.891" y="317.363" style="fill:#DCFFFF;" width="8.376" height="8.376"/>
			<rect x="283.153" y="331.322" style="fill:#DCFFFF;" width="8.376" height="8.376"/>
			<rect x="299.066" y="331.322" style="fill:#DCFFFF;" width="8.376" height="8.376"/>
			<rect x="314.978" y="331.322" style="fill:#DCFFFF;" width="8.376" height="8.376"/>
			<rect x="330.891" y="331.322" style="fill:#DCFFFF;" width="8.376" height="8.376"/>
			<rect x="283.153" y="345.28" style="fill:#DCFFFF;" width="8.376" height="8.376"/>
			<rect x="299.066" y="345.28" style="fill:#DCFFFF;" width="8.376" height="8.376"/>
			<rect x="314.978" y="345.28" style="fill:#DCFFFF;" width="8.376" height="8.376"/>
			<rect x="330.891" y="345.28" style="fill:#DCFFFF;" width="8.376" height="8.376"/>
			<rect x="283.153" y="359.239" style="fill:#DCFFFF;" width="8.376" height="8.376"/>
			<rect x="299.066" y="359.239" style="fill:#DCFFFF;" width="8.376" height="8.376"/>
			<rect x="314.978" y="359.239" style="fill:#DCFFFF;" width="8.376" height="8.376"/>
			<rect x="283.153" y="191.732" style="fill:#DCFFFF;" width="8.376" height="8.376"/>
			<rect x="299.066" y="191.732" style="fill:#DCFFFF;" width="8.376" height="8.376"/>
			<rect x="314.978" y="191.732" style="fill:#DCFFFF;" width="8.376" height="8.376"/>
			<rect x="283.153" y="205.695" style="fill:#DCFFFF;" width="8.376" height="8.376"/>
			<rect x="299.066" y="205.695" style="fill:#DCFFFF;" width="8.376" height="8.376"/>
			<rect x="314.978" y="205.695" style="fill:#DCFFFF;" width="8.376" height="8.376"/>
			<rect x="330.891" y="205.695" style="fill:#DCFFFF;" width="8.376" height="8.376"/>
			<rect x="283.153" y="219.654" style="fill:#DCFFFF;" width="8.376" height="8.376"/>
			<rect x="299.066" y="219.654" style="fill:#DCFFFF;" width="8.376" height="8.376"/>
			<rect x="314.978" y="219.654" style="fill:#DCFFFF;" width="8.376" height="8.376"/>
		</g>
	</g>
	<g>
		<g>
			<g>
				<path style="fill:#9DEDE9;" d="M361.405,364.654c-1.75-2.809-3.548-5.755-3.838-9.052c-0.268-3.055-0.767-6.427-0.305-9.459
					c0.462-3.034,0.254-6.143-0.416-9.137c-2.102-9.388-6.045-8.346-7.478-7.628c-1.408,0.706-2.07,2.247-2.137,4.728
					c-0.054,1.995,1.388,11.324-1.661,9.96c-3.529-1.579-3.473-11.329-4.047-14.574c-0.859-4.853-2.882-10.032-6.622-13.383
					c-1.843-1.652-4.547-2.853-6.761-1.747c-1.326,0.662-2.174,2.024-2.643,3.43c-1.41,4.234,0.084,8.615,1.769,12.526
					c0.704,1.636,6.397,9.182,1.735,8.477c-1.113-0.168-10.442-7.37-11.296,0.168c-0.301,2.654,2.685,5.354,7.418,8.723
					c2.956,2.104,13.877,7.573,13.35,10.511c-0.527,2.938-6.591-1.705-5.838,3.752c0.422,3.057,4.457,5.232,7.191,6.367
					c1.301,0.54,2.706,0.819,3.968,1.443c1.498,0.74,3.337,2.543,2.212,4.322c-0.492,0.777-1.452,1.17-1.918,1.963
					c-0.473,0.805-0.314,1.867,0.185,2.656c0.498,0.789,1.282,1.353,2.081,1.835c5.124,3.093,11.521,3.554,17.383,2.347
					c5.863-1.207,11.291-3.95,16.475-6.942"/>
			</g>
			<g style="opacity:0.25;">
				
					<path style="fill:none;stroke:#FFFFFF;stroke-width:0.6983;stroke-linecap:round;stroke-linejoin:round;stroke-miterlimit:10;" d="
					M331.072,319.445c0,0,6.404,31.927,25.953,51.719"/>
				
					<path style="fill:none;stroke:#FFFFFF;stroke-width:0.6983;stroke-linecap:round;stroke-linejoin:round;stroke-miterlimit:10;" d="
					M322.375,340.587c0,0,10.9,8.379,19.824,9.531"/>
				
					<path style="fill:none;stroke:#FFFFFF;stroke-width:0.6983;stroke-linecap:round;stroke-linejoin:round;stroke-miterlimit:10;" d="
					M351.038,333.352c0.605,5.023,1.153,19.052-3.555,25.858"/>
				
					<path style="fill:none;stroke:#FFFFFF;stroke-width:0.6983;stroke-linecap:round;stroke-linejoin:round;stroke-miterlimit:10;" d="
					M336.639,362.967c0,0,4.285,3.65,17.468,5.045"/>
				
					<path style="fill:none;stroke:#FFFFFF;stroke-width:0.6983;stroke-linecap:round;stroke-linejoin:round;stroke-miterlimit:10;" d="
					M346.679,376.907c0,0,6.81,1.147,12.833-2.454"/>
			</g>
		</g>
		<g>
			<g>
				<path style="fill:#9DEDE9;" d="M382.242,301.951c-1.75-2.809-3.548-5.755-3.838-9.052c-0.268-3.055-0.767-6.427-0.305-9.459
					c0.462-3.033,0.254-6.142-0.416-9.137c-2.102-9.388-6.045-8.346-7.478-7.628c-1.408,0.706-2.07,2.247-2.138,4.728
					c-0.054,1.995,1.388,11.324-1.661,9.96c-3.529-1.579-3.473-11.329-4.047-14.574c-0.859-4.853-2.882-10.032-6.623-13.383
					c-1.843-1.652-4.547-2.853-6.761-1.747c-1.326,0.662-2.174,2.024-2.643,3.43c-1.41,4.234,0.084,8.615,1.769,12.527
					c0.704,1.635,6.397,9.181,1.735,8.477c-1.113-0.168-10.442-7.37-11.296,0.168c-0.301,2.654,2.685,5.354,7.418,8.723
					c2.956,2.104,13.877,7.574,13.35,10.511c-0.527,2.938-6.591-1.705-5.838,3.752c0.422,3.057,4.457,5.232,7.191,6.367
					c1.301,0.54,2.706,0.819,3.968,1.443c1.498,0.74,3.337,2.543,2.212,4.322c-0.492,0.777-1.452,1.17-1.918,1.962
					c-0.473,0.805-0.314,1.867,0.185,2.656c0.498,0.789,1.282,1.353,2.081,1.835c5.124,3.093,11.521,3.554,17.383,2.347
					c5.863-1.207,11.291-3.95,16.475-6.942"/>
			</g>
			<g style="opacity:0.25;">
				
					<path style="fill:none;stroke:#FFFFFF;stroke-width:0.6983;stroke-linecap:round;stroke-linejoin:round;stroke-miterlimit:10;" d="
					M351.909,256.742c0,0,6.404,31.927,25.953,51.718"/>
				
					<path style="fill:none;stroke:#FFFFFF;stroke-width:0.6983;stroke-linecap:round;stroke-linejoin:round;stroke-miterlimit:10;" d="
					M343.212,277.885c0,0,10.9,8.379,19.824,9.531"/>
				
					<path style="fill:none;stroke:#FFFFFF;stroke-width:0.6983;stroke-linecap:round;stroke-linejoin:round;stroke-miterlimit:10;" d="
					M371.874,270.649c0.605,5.023,1.153,19.052-3.555,25.858"/>
				
					<path style="fill:none;stroke:#FFFFFF;stroke-width:0.6983;stroke-linecap:round;stroke-linejoin:round;stroke-miterlimit:10;" d="
					M357.475,300.264c0,0,4.285,3.649,17.468,5.045"/>
				
					<path style="fill:none;stroke:#FFFFFF;stroke-width:0.6983;stroke-linecap:round;stroke-linejoin:round;stroke-miterlimit:10;" d="
					M367.515,314.204c0,0,6.81,1.147,12.833-2.454"/>
			</g>
		</g>
		<g>
			<path style="fill:#78D1CF;" d="M371.845,363.398c-0.673-3.814-7.697-27.787-20.024-21.421
				c-7.322,3.782-6.005,17.706,5.431,28.226c-2.244-2.171-4.837-4.633-7.9-5.241c-1.655-0.328-3.68,0.433-4.919,1.578
				c-1.103,1.018-1.427,2.627-1.478,4.127c-0.185,5.456,2.659,10.918,7.236,13.895c-2.53-1.413-4.721-3.183-7.608-3.431
				c-0.938-0.081-2.528,0.457-2.962,1.292c-0.472,0.909-0.439,4.318,5.129,6.863c-22.698-4.305-24.022,5.37-15.863,5.37
				c8.159,0,66.914,0,66.914,0"/>
		</g>
		<g>
			<path style="fill:#78D1CF;" d="M616.376,363.497c0.673-3.814,7.698-27.787,20.024-21.421c7.322,3.782,6.005,17.706-5.432,28.226
				c2.245-2.171,4.837-4.633,7.9-5.241c1.655-0.328,3.68,0.433,4.919,1.578c1.103,1.018,1.427,2.627,1.478,4.127
				c0.185,5.456-2.659,10.918-7.236,13.895c2.529-1.413,4.721-3.183,7.608-3.431c0.938-0.081,2.528,0.457,2.962,1.292
				c0.472,0.91,0.439,4.318-5.129,6.863c22.698-4.305,24.022,5.37,15.863,5.37c-8.159,0-53.92,0-53.92,0"/>
		</g>
		<g>
			<g>
				<path style="fill:#9DEDE9;" d="M610.104,353.065c1.425-2.987,2.882-6.116,2.8-9.425c-0.075-3.066,0.042-6.472-0.756-9.433
					c-0.798-2.963-0.94-6.075-0.609-9.126c1.038-9.564,5.072-8.971,6.577-8.417c1.478,0.544,2.309,2.001,2.653,4.459
					c0.277,1.977-0.111,11.408,2.766,9.711c3.33-1.964,2.182-11.647,2.39-14.935c0.31-4.919,1.741-10.292,5.082-14.041
					c1.647-1.848,4.199-3.344,6.523-2.493c1.391,0.509,2.387,1.768,3.01,3.112c1.876,4.05,0.88,8.57-0.355,12.646
					c-0.517,1.704-5.329,9.84-0.775,8.618c1.088-0.292,9.552-8.493,11.244-1.098c0.596,2.604-2.068,5.621-6.395,9.498
					c-2.702,2.422-12.942,9.079-12.089,11.94c0.852,2.86,6.359-2.432,6.221,3.075c-0.077,3.085-3.843,5.698-6.433,7.132
					c-1.232,0.682-2.596,1.117-3.782,1.878c-1.406,0.903-3.032,2.901-1.714,4.542c0.576,0.717,1.574,1,2.125,1.736
					c0.56,0.747,0.521,1.82,0.114,2.66c-0.407,0.84-1.122,1.488-1.863,2.057c-4.746,3.648-11.05,4.822-17.011,4.279
					c-5.961-0.543-11.662-2.661-17.149-5.054"/>
			</g>
			<g style="opacity:0.25;">
				
					<path style="fill:none;stroke:#FFFFFF;stroke-width:0.6983;stroke-linecap:round;stroke-linejoin:round;stroke-miterlimit:10;" d="
					M635.185,304.744c0,0-2.789,32.444-20,54.299"/>
				
					<path style="fill:none;stroke:#FFFFFF;stroke-width:0.6983;stroke-linecap:round;stroke-linejoin:round;stroke-miterlimit:10;" d="
					M646.194,324.78c0,0-9.894,9.546-18.632,11.69"/>
				
					<path style="fill:none;stroke:#FFFFFF;stroke-width:0.6983;stroke-linecap:round;stroke-linejoin:round;stroke-miterlimit:10;" d="
					M616.902,320.799c-0.039,5.059,0.987,19.061,6.428,25.297"/>
				
					<path style="fill:none;stroke:#FFFFFF;stroke-width:0.6983;stroke-linecap:round;stroke-linejoin:round;stroke-miterlimit:10;" d="
					M634.526,348.616c0,0-3.849,4.106-16.793,6.969"/>
				
					<path style="fill:none;stroke:#FFFFFF;stroke-width:0.6983;stroke-linecap:round;stroke-linejoin:round;stroke-miterlimit:10;" d="
					M626.11,363.591c0,0-6.638,1.902-13.027-1.002"/>
			</g>
		</g>
		<path style="fill:#78D1CF;" d="M171.707,394.755c0,0,0.63-6.514-4.35-11.895c0,0,3.947,1.633,6.981,6.161
			c0,0,2.766-8.123,7.486-8.525c0,0-5.247,5.496-5.251,14.259"/>
		<path style="fill:#78D1CF;" d="M220.754,394.755c0,0,0.418-4.324-2.888-7.896c0,0,2.62,1.084,4.634,4.09
			c0,0,1.836-5.392,4.97-5.659c0,0-3.483,3.648-3.486,9.465"/>
		<path style="fill:#78D1CF;" d="M311.973,394.755c0,0,0.656-6.789-4.535-12.398c0,0,4.114,1.702,7.277,6.422
			c0,0,2.883-8.467,7.803-8.886c0,0-5.469,5.729-5.473,14.862"/>
	</g>
	<g>
		<g>
			<g>
				<rect x="375.324" y="194.718" style="fill:#01AFB8;" width="231.675" height="99.67"/>
				<g>
					<g>
						<rect x="375.324" y="200.11" style="fill:#079E9E;" width="8.822" height="6.465"/>
						<rect x="375.324" y="209.676" style="fill:#079E9E;" width="6.355" height="6.465"/>
						<rect x="375.324" y="219.242" style="fill:#079E9E;" width="8.822" height="6.465"/>
						<rect x="375.324" y="228.808" style="fill:#079E9E;" width="6.355" height="6.465"/>
						<rect x="375.324" y="238.374" style="fill:#079E9E;" width="8.822" height="6.465"/>
						<rect x="375.324" y="247.94" style="fill:#079E9E;" width="6.355" height="6.465"/>
						<rect x="375.324" y="257.506" style="fill:#079E9E;" width="8.822" height="6.465"/>
						<rect x="375.324" y="267.072" style="fill:#079E9E;" width="6.355" height="6.465"/>
						<rect x="375.324" y="276.638" style="fill:#079E9E;" width="8.822" height="6.465"/>
					</g>
				</g>
				<g>
					<g>
						
							<rect x="598.177" y="200.11" transform="matrix(-1 -1.224647e-16 1.224647e-16 -1 1205.176 406.6848)" style="fill:#079E9E;" width="8.822" height="6.465"/>
						
							<rect x="600.644" y="209.676" transform="matrix(-1 -1.224647e-16 1.224647e-16 -1 1207.6431 425.8172)" style="fill:#079E9E;" width="6.355" height="6.465"/>
						
							<rect x="598.177" y="219.242" transform="matrix(-1 -1.224647e-16 1.224647e-16 -1 1205.176 444.9494)" style="fill:#079E9E;" width="8.822" height="6.465"/>
						
							<rect x="600.644" y="228.808" transform="matrix(-1 -1.224647e-16 1.224647e-16 -1 1207.6431 464.0814)" style="fill:#079E9E;" width="6.355" height="6.465"/>
						
							<rect x="598.177" y="238.374" transform="matrix(-1 -1.224647e-16 1.224647e-16 -1 1205.176 483.2136)" style="fill:#079E9E;" width="8.822" height="6.465"/>
						
							<rect x="600.644" y="247.94" transform="matrix(-1 -1.224647e-16 1.224647e-16 -1 1207.6431 502.346)" style="fill:#079E9E;" width="6.355" height="6.465"/>
						
							<rect x="598.177" y="257.506" transform="matrix(-1 -1.224647e-16 1.224647e-16 -1 1205.176 521.478)" style="fill:#079E9E;" width="8.822" height="6.465"/>
						
							<rect x="600.644" y="267.072" transform="matrix(-1 -1.224647e-16 1.224647e-16 -1 1207.6431 540.6102)" style="fill:#079E9E;" width="6.355" height="6.465"/>
						
							<rect x="598.177" y="276.638" transform="matrix(-1 -1.224647e-16 1.224647e-16 -1 1205.176 559.7424)" style="fill:#079E9E;" width="8.822" height="6.465"/>
					</g>
				</g>
			</g>
			<rect x="370.381" y="294.29" style="fill:#01AFB8;" width="243.646" height="100.286"/>
			<rect x="365.732" y="382.686" style="fill:#2C4D60;" width="252.946" height="11.89"/>
			<line style="fill:#2C4D60;" x1="628.725" y1="294.906" x2="618.677" y2="283.016"/>
			<g>
				<rect x="401.718" y="203.939" style="fill:#04A5A5;" width="36.31" height="44.04"/>
				<rect x="403.401" y="205.586" style="fill:#1EE2E2;" width="32.946" height="40.823"/>
				<polygon style="opacity:0.3;fill:#FFFFFF;" points="433.698,203.939 401.718,235.919 401.718,227.009 424.777,203.939 				"/>
				<polygon style="opacity:0.3;fill:#FFFFFF;" points="438.028,203.939 438.028,204.924 401.718,241.234 401.718,238.203 
					435.982,203.939 				"/>
				<polygon style="opacity:0.3;fill:#FFFFFF;" points="438.028,218.034 438.028,226.933 416.982,247.979 408.084,247.979 				"/>
				<polygon style="opacity:0.3;fill:#FFFFFF;" points="438.028,229.217 438.028,232.259 422.309,247.979 419.267,247.979 				"/>
				<rect x="400.609" y="247.977" style="fill:#FFFFFF;" width="38.529" height="2.086"/>
				<rect x="400.609" y="202.013" style="fill:#FFFFFF;" width="38.529" height="2.086"/>
				
					<rect x="397.056" y="224.759" transform="matrix(-1.836970e-16 1 -1 -1.836970e-16 645.6758 -194.0716)" style="fill:#FFFFFF;" width="45.635" height="2.086"/>
				<rect x="399.672" y="250.063" style="fill:#FFFFFF;" width="40.402" height="2.086"/>
				<rect x="399.672" y="252.163" style="fill:#2C4D60;" width="40.402" height="1.79"/>
			</g>
			<g>
				<rect x="473.006" y="203.939" style="fill:#04A5A5;" width="36.31" height="44.04"/>
				<rect x="474.689" y="205.586" style="fill:#1EE2E2;" width="32.946" height="40.823"/>
				<polygon style="opacity:0.3;fill:#FFFFFF;" points="504.986,203.939 473.006,235.919 473.006,227.009 496.065,203.939 				"/>
				<polygon style="opacity:0.3;fill:#FFFFFF;" points="509.316,203.939 509.316,204.924 473.006,241.234 473.006,238.203 
					507.27,203.939 				"/>
				<polygon style="opacity:0.3;fill:#FFFFFF;" points="509.316,218.034 509.316,226.933 488.271,247.979 479.372,247.979 				"/>
				<polygon style="opacity:0.3;fill:#FFFFFF;" points="509.316,229.217 509.316,232.259 493.597,247.979 490.555,247.979 				"/>
				<rect x="471.897" y="247.977" style="fill:#FFFFFF;" width="38.529" height="2.086"/>
				<rect x="471.897" y="202.013" style="fill:#FFFFFF;" width="38.529" height="2.086"/>
				
					<rect x="468.344" y="224.759" transform="matrix(-1.836970e-16 1 -1 -1.836970e-16 716.9639 -265.3597)" style="fill:#FFFFFF;" width="45.635" height="2.086"/>
				<rect x="470.96" y="250.063" style="fill:#FFFFFF;" width="40.403" height="2.086"/>
				<rect x="470.96" y="252.163" style="fill:#2C4D60;" width="40.403" height="1.79"/>
			</g>
			<g>
				<rect x="544.294" y="203.939" style="fill:#04A5A5;" width="36.31" height="44.04"/>
				<rect x="545.977" y="205.586" style="fill:#1EE2E2;" width="32.946" height="40.823"/>
				<polygon style="opacity:0.3;fill:#FFFFFF;" points="576.274,203.939 544.294,235.919 544.294,227.009 567.353,203.939 				"/>
				<polygon style="opacity:0.3;fill:#FFFFFF;" points="580.604,203.939 580.604,204.924 544.294,241.234 544.294,238.203 
					578.558,203.939 				"/>
				<polygon style="opacity:0.3;fill:#FFFFFF;" points="580.604,218.034 580.604,226.933 559.559,247.979 550.66,247.979 				"/>
				<polygon style="opacity:0.3;fill:#FFFFFF;" points="580.604,229.217 580.604,232.259 564.885,247.979 561.843,247.979 				"/>
				<rect x="543.186" y="247.977" style="fill:#FFFFFF;" width="38.528" height="2.086"/>
				<rect x="543.186" y="202.013" style="fill:#FFFFFF;" width="38.528" height="2.086"/>
				
					<rect x="539.633" y="224.759" transform="matrix(-1.836970e-16 1 -1 -1.836970e-16 788.2519 -336.6477)" style="fill:#FFFFFF;" width="45.635" height="2.086"/>
				<rect x="542.249" y="250.063" style="fill:#FFFFFF;" width="40.403" height="2.086"/>
				<rect x="542.249" y="252.163" style="fill:#2C4D60;" width="40.403" height="1.79"/>
			</g>
			<g>
				<g>
					<rect x="370.381" y="296.898" style="fill:#079E9E;" width="8.822" height="6.465"/>
					<rect x="370.381" y="306.464" style="fill:#079E9E;" width="6.355" height="6.465"/>
					<rect x="370.381" y="316.03" style="fill:#079E9E;" width="8.822" height="6.465"/>
					<rect x="370.381" y="325.596" style="fill:#079E9E;" width="6.355" height="6.465"/>
					<rect x="370.381" y="335.163" style="fill:#079E9E;" width="8.822" height="6.465"/>
					<rect x="370.381" y="344.729" style="fill:#079E9E;" width="6.355" height="6.465"/>
					<rect x="370.381" y="354.295" style="fill:#079E9E;" width="8.822" height="6.465"/>
					<rect x="370.381" y="363.861" style="fill:#079E9E;" width="6.355" height="6.465"/>
					<rect x="370.381" y="373.427" style="fill:#079E9E;" width="8.822" height="6.465"/>
				</g>
			</g>
			<g>
				<g>
					
						<rect x="605.206" y="373.427" transform="matrix(-1 -1.224647e-16 1.224647e-16 -1 1219.2332 753.3192)" style="fill:#079E9E;" width="8.822" height="6.465"/>
					
						<rect x="607.673" y="363.861" transform="matrix(-1 -1.224647e-16 1.224647e-16 -1 1221.7003 734.187)" style="fill:#079E9E;" width="6.355" height="6.465"/>
					
						<rect x="605.206" y="354.295" transform="matrix(-1 -1.224647e-16 1.224647e-16 -1 1219.2332 715.0546)" style="fill:#079E9E;" width="8.822" height="6.465"/>
					
						<rect x="607.673" y="344.729" transform="matrix(-1 -1.224647e-16 1.224647e-16 -1 1221.7003 695.9226)" style="fill:#079E9E;" width="6.355" height="6.465"/>
					
						<rect x="605.206" y="335.163" transform="matrix(-1 -1.224647e-16 1.224647e-16 -1 1219.2332 676.7904)" style="fill:#079E9E;" width="8.822" height="6.465"/>
					
						<rect x="607.673" y="325.596" transform="matrix(-1 -1.224647e-16 1.224647e-16 -1 1221.7003 657.6582)" style="fill:#079E9E;" width="6.355" height="6.465"/>
					
						<rect x="605.206" y="316.03" transform="matrix(-1 -1.224647e-16 1.224647e-16 -1 1219.2332 638.526)" style="fill:#079E9E;" width="8.822" height="6.465"/>
					
						<rect x="607.673" y="306.464" transform="matrix(-1 -1.224647e-16 1.224647e-16 -1 1221.7003 619.3938)" style="fill:#079E9E;" width="6.355" height="6.465"/>
					
						<rect x="605.206" y="296.898" transform="matrix(-1 -1.224647e-16 1.224647e-16 -1 1219.2332 600.2616)" style="fill:#079E9E;" width="8.822" height="6.465"/>
				</g>
			</g>
			<g>
				<rect x="504.956" y="308.618" style="fill:#04A5A5;" width="89.315" height="54.54"/>
				<rect x="507.041" y="310.659" style="fill:#1EE2E2;" width="85.148" height="50.555"/>
				<polygon style="opacity:0.3;fill:#FFFFFF;" points="547.143,308.618 507.539,348.223 507.539,337.189 536.096,308.618 				"/>
				<polygon style="opacity:0.3;fill:#FFFFFF;" points="553.738,308.619 507.542,354.802 507.542,351.048 549.972,308.619 				"/>
				<polygon style="opacity:0.3;fill:#FFFFFF;" points="591.689,326.074 591.689,337.095 565.626,363.158 554.605,363.158 				"/>
				<polygon style="opacity:0.3;fill:#FFFFFF;" points="591.689,339.924 591.689,343.691 572.222,363.158 568.455,363.158 				"/>
				<rect x="503.584" y="363.156" style="fill:#FFFFFF;" width="92.062" height="2.583"/>
				<rect x="503.584" y="306.234" style="fill:#FFFFFF;" width="92.062" height="2.583"/>
				
					<rect x="506.901" y="334.403" transform="matrix(-1.836970e-16 1 -1 -1.836970e-16 870.8529 -199.4643)" style="fill:#FFFFFF;" width="56.514" height="2.583"/>
				
					<rect x="477.991" y="334.403" transform="matrix(-1.836970e-16 1 -1 -1.836970e-16 841.9421 -170.5535)" style="fill:#FFFFFF;" width="56.514" height="2.583"/>
				
					<rect x="535.812" y="334.403" transform="matrix(-1.836970e-16 1 -1 -1.836970e-16 899.7637 -228.3751)" style="fill:#FFFFFF;" width="56.514" height="2.583"/>
				
					<rect x="564.723" y="334.403" transform="matrix(-1.836970e-16 1 -1 -1.836970e-16 928.6745 -257.2859)" style="fill:#FFFFFF;" width="56.514" height="2.583"/>
				<rect x="502.423" y="365.739" style="fill:#FFFFFF;" width="94.383" height="2.583"/>
				<rect x="502.423" y="368.34" style="fill:#2C4D60;" width="94.383" height="2.217"/>
			</g>
			<g>
				<rect x="534.513" y="270.305" style="fill:#12C6C6;" width="30.202" height="1.694"/>
				<rect x="534.513" y="274.02" style="fill:#12C6C6;" width="30.202" height="1.694"/>
				<rect x="526.524" y="277.736" style="fill:#12C6C6;" width="45.541" height="1.694"/>
				<rect x="519.342" y="281.451" style="fill:#12C6C6;" width="58.366" height="1.694"/>
				<rect x="513.676" y="285.166" style="fill:#12C6C6;" width="73.02" height="1.694"/>
				<rect x="506.248" y="288.881" style="fill:#12C6C6;" width="86.986" height="1.694"/>
				<rect x="498.593" y="292.597" style="fill:#12C6C6;" width="102.706" height="1.694"/>
			</g>
			<polygon style="fill:#376277;" points="365.731,294.739 418.773,264.231 542.249,264.231 483.909,294.739 			"/>
			<polygon style="fill:#2C4D60;" points="598.006,282.852 549.239,254.803 496.454,282.852 365.731,282.852 365.731,294.739 
				499.148,294.739 549.239,268.631 599.33,294.739 599.357,294.739 618.674,294.739 618.674,282.852 			"/>
			<g>
				<rect x="542.739" y="147.294" style="fill:#264656;" width="28.429" height="33.944"/>
				<rect x="540.944" y="140.669" style="fill:#2C4D60;" width="32.02" height="6.625"/>
			</g>
			<polygon style="fill:#2C4D60;" points="371.755,194.878 492.204,132.096 612.654,194.878 			"/>
			<g>
				<rect x="410.967" y="304.771" style="fill:#079E9E;" width="53.947" height="77.915"/>
				<rect x="411.827" y="305.874" style="fill:#008989;" width="52.181" height="76.812"/>
				<rect x="416.878" y="312.227" style="fill:#0D9995;" width="42.077" height="63.987"/>
				<rect x="435.88" y="309.697" style="fill:#008989;" width="4.073" height="68.599"/>
				
					<rect x="435.835" y="309.074" transform="matrix(-1.836970e-16 1 -1 -1.836970e-16 770.7634 -104.9785)" style="fill:#008989;" width="4.073" height="47.636"/>
				
					<rect x="435.835" y="331.776" transform="matrix(-1.836970e-16 1 -1 -1.836970e-16 793.4653 -82.2766)" style="fill:#008989;" width="4.073" height="47.636"/>
				<rect x="418.197" y="313.519" style="fill:#17AAA3;" width="16.366" height="16.044"/>
				<rect x="418.197" y="336.258" style="fill:#17AAA3;" width="16.366" height="16.044"/>
				<rect x="418.197" y="358.997" style="fill:#17AAA3;" width="16.366" height="16.044"/>
				<rect x="441.299" y="313.519" style="fill:#17AAA3;" width="16.366" height="16.044"/>
				<rect x="441.299" y="336.258" style="fill:#17AAA3;" width="16.366" height="16.044"/>
				<rect x="441.299" y="358.997" style="fill:#17AAA3;" width="16.366" height="16.044"/>
				<path style="fill:#2C4D60;" d="M463.371,344.021c0,1.036-0.84,1.875-1.875,1.875c-1.036,0-1.875-0.84-1.875-1.875
					c0-1.036,0.84-1.875,1.875-1.875C462.531,342.146,463.371,342.985,463.371,344.021z"/>
			</g>
			<rect x="378.565" y="292.109" style="fill:#2C4D60;" width="6.228" height="91.933"/>
			<rect x="493.145" y="292.109" style="fill:#2C4D60;" width="6.229" height="91.933"/>
			<rect x="599.308" y="292.109" style="fill:#2C4D60;" width="6.229" height="91.933"/>
			<rect x="407.272" y="382.686" style="fill:#497687;" width="61.289" height="5.945"/>
			<rect x="404.746" y="388.631" style="fill:#3C6275;" width="66.342" height="5.945"/>
			<path style="fill:#2C4D60;" d="M407.525,353.371c0-1.102-0.893-1.995-1.995-1.995c-1.102,0-1.995,0.893-1.995,1.995
				c0,0.785,0.458,1.458,1.117,1.783v28.888h1.756v-28.888C407.067,354.829,407.525,354.156,407.525,353.371z"/>
			<path style="fill:#2C4D60;" d="M472.551,353.371c0-1.102-0.893-1.995-1.995-1.995c-1.102,0-1.995,0.893-1.995,1.995
				c0,0.785,0.458,1.458,1.117,1.783v28.888h1.756v-28.888C472.094,354.829,472.551,354.156,472.551,353.371z"/>
		</g>
		<g>
			
				<line style="fill:#FFFFFF;stroke:#231F20;stroke-linecap:round;stroke-miterlimit:10;" x1="118.796" y1="394.755" x2="672" y2="394.755"/>
			
				<line style="fill:#FFFFFF;stroke:#231F20;stroke-linecap:round;stroke-miterlimit:10;" x1="114.845" y1="394.755" x2="88.501" y2="394.755"/>
		</g>
	</g>
	<g>
		<g>
			<path style="fill:#01AFB8;" d="M359.1,328.462c0,0.755-0.612,1.367-1.367,1.367c-0.755,0-1.367-0.612-1.367-1.367
				c0-0.755,0.612-1.367,1.367-1.367C358.488,327.095,359.1,327.707,359.1,328.462z"/>
			<path style="fill:#01AFB8;" d="M437.945,125.687c0,0.755-0.612,1.367-1.367,1.367c-0.755,0-1.367-0.612-1.367-1.367
				c0-0.755,0.612-1.367,1.367-1.367C437.333,124.32,437.945,124.932,437.945,125.687z"/>
			<path style="fill:#01AFB8;" d="M436.578,157.629c0,0.755-0.612,1.367-1.367,1.367c-0.755,0-1.367-0.612-1.367-1.367
				c0-0.755,0.612-1.367,1.367-1.367C435.966,156.262,436.578,156.874,436.578,157.629z"/>
			<path style="fill:#01AFB8;" d="M513.648,107.799c0,0.755-0.612,1.367-1.367,1.367c-0.755,0-1.367-0.612-1.367-1.367
				s0.612-1.367,1.367-1.367C513.037,106.433,513.648,107.045,513.648,107.799z"/>
			<path style="fill:#01AFB8;" d="M611.21,167.1c0,0.755-0.612,1.367-1.367,1.367c-0.755,0-1.367-0.612-1.367-1.367
				c0-0.755,0.612-1.367,1.367-1.367C610.598,165.734,611.21,166.346,611.21,167.1z"/>
			<path style="fill:#01AFB8;" d="M619.873,255.943h-1.357v-1.357c0-0.296-0.24-0.537-0.537-0.537c-0.296,0-0.537,0.24-0.537,0.537
				v1.357h-1.357c-0.296,0-0.537,0.24-0.537,0.537c0,0.296,0.24,0.537,0.537,0.537h1.357v1.357c0,0.296,0.24,0.537,0.537,0.537
				c0.296,0,0.537-0.24,0.537-0.537v-1.357h1.357c0.296,0,0.537-0.24,0.537-0.537C620.409,256.183,620.169,255.943,619.873,255.943z
				"/>
			<path style="fill:#01AFB8;" d="M347.096,307.923h-1.357v-1.356c0-0.296-0.24-0.537-0.537-0.537c-0.296,0-0.537,0.241-0.537,0.537
				v1.356h-1.357c-0.296,0-0.537,0.241-0.537,0.537c0,0.296,0.24,0.537,0.537,0.537h1.357v1.356c0,0.296,0.24,0.537,0.537,0.537
				c0.296,0,0.537-0.241,0.537-0.537v-1.356h1.357c0.296,0,0.537-0.241,0.537-0.537
				C347.633,308.164,347.393,307.923,347.096,307.923z"/>
			<path style="fill:#01AFB8;" d="M639.51,233.076h-1.357v-1.357c0-0.296-0.241-0.537-0.537-0.537c-0.296,0-0.537,0.24-0.537,0.537
				v1.357h-1.356c-0.296,0-0.537,0.24-0.537,0.537s0.241,0.537,0.537,0.537h1.356v1.357c0,0.296,0.241,0.537,0.537,0.537
				c0.296,0,0.537-0.24,0.537-0.537v-1.357h1.357c0.296,0,0.537-0.24,0.537-0.537S639.806,233.076,639.51,233.076z"/>
			<path style="fill:#01AFB8;" d="M622.447,304.207h-1.356v-1.356c0-0.296-0.241-0.537-0.537-0.537s-0.537,0.241-0.537,0.537v1.356
				h-1.356c-0.296,0-0.537,0.241-0.537,0.537c0,0.296,0.241,0.537,0.537,0.537h1.356v1.356c0,0.296,0.241,0.537,0.537,0.537
				s0.537-0.241,0.537-0.537v-1.356h1.356c0.296,0,0.537-0.241,0.537-0.537C622.984,304.448,622.744,304.207,622.447,304.207z"/>
			<path style="fill:#01AFB8;" d="M555.132,135.848h-1.356v-1.357c0-0.296-0.241-0.537-0.537-0.537c-0.296,0-0.537,0.24-0.537,0.537
				v1.357h-1.357c-0.296,0-0.537,0.24-0.537,0.537s0.241,0.537,0.537,0.537h1.357v1.357c0,0.296,0.241,0.537,0.537,0.537
				c0.296,0,0.537-0.24,0.537-0.537v-1.357h1.356c0.296,0,0.537-0.24,0.537-0.537S555.428,135.848,555.132,135.848z"/>
		</g>
	</g>
	<g>
		<g>
			<defs>
				
					<ellipse id="SVGID_1_" transform="matrix(0.3891 -0.9212 0.9212 0.3891 54.1397 457.3205)" cx="371.855" cy="187.843" rx="53.917" ry="53.917"/>
			</defs>
			<clipPath id="SVGID_00000020394226555935686810000013136355420944801978_">
				<use xlink:href="#SVGID_1_"  style="overflow:visible;"/>
			</clipPath>
			<g style="clip-path:url(#SVGID_00000020394226555935686810000013136355420944801978_);">
				<g>
					<rect x="357.976" y="190.953" style="fill:#01AFB8;" width="264.646" height="113.855"/>
					<g>
						<g>
							<rect x="357.976" y="197.113" style="fill:#079E9E;" width="10.078" height="7.385"/>
							<rect x="357.976" y="208.04" style="fill:#079E9E;" width="7.26" height="7.386"/>
							<rect x="357.976" y="218.968" style="fill:#079E9E;" width="10.078" height="7.385"/>
							<rect x="357.976" y="229.895" style="fill:#079E9E;" width="7.26" height="7.385"/>
							<rect x="357.976" y="240.823" style="fill:#079E9E;" width="10.078" height="7.386"/>
							<rect x="357.976" y="251.75" style="fill:#079E9E;" width="7.26" height="7.385"/>
							<rect x="357.976" y="262.678" style="fill:#079E9E;" width="10.078" height="7.385"/>
							<rect x="357.976" y="273.605" style="fill:#079E9E;" width="7.26" height="7.386"/>
							<rect x="357.976" y="284.533" style="fill:#079E9E;" width="10.078" height="7.385"/>
						</g>
					</g>
					<g>
						<g>
							
								<rect x="612.544" y="197.113" transform="matrix(-1 -1.224647e-16 1.224647e-16 -1 1235.1649 401.6109)" style="fill:#079E9E;" width="10.078" height="7.385"/>
							
								<rect x="615.362" y="208.04" transform="matrix(-1 -1.224647e-16 1.224647e-16 -1 1237.983 423.466)" style="fill:#079E9E;" width="7.26" height="7.386"/>
							
								<rect x="612.544" y="218.968" transform="matrix(-1 -1.224647e-16 1.224647e-16 -1 1235.1649 445.3211)" style="fill:#079E9E;" width="10.078" height="7.385"/>
							
								<rect x="615.362" y="229.895" transform="matrix(-1 -1.224647e-16 1.224647e-16 -1 1237.983 467.1759)" style="fill:#079E9E;" width="7.26" height="7.385"/>
							
								<rect x="612.544" y="240.823" transform="matrix(-1 -1.224647e-16 1.224647e-16 -1 1235.1649 489.031)" style="fill:#079E9E;" width="10.078" height="7.386"/>
							
								<rect x="615.362" y="251.75" transform="matrix(-1 -1.224647e-16 1.224647e-16 -1 1237.983 510.8861)" style="fill:#079E9E;" width="7.26" height="7.385"/>
							
								<rect x="612.544" y="262.678" transform="matrix(-1 -1.224647e-16 1.224647e-16 -1 1235.1649 532.741)" style="fill:#079E9E;" width="10.078" height="7.385"/>
							
								<rect x="615.362" y="273.605" transform="matrix(-1 -1.224647e-16 1.224647e-16 -1 1237.983 554.596)" style="fill:#079E9E;" width="7.26" height="7.386"/>
							
								<rect x="612.544" y="284.533" transform="matrix(-1 -1.224647e-16 1.224647e-16 -1 1235.1649 576.4511)" style="fill:#079E9E;" width="10.078" height="7.385"/>
						</g>
					</g>
				</g>
				<rect x="352.329" y="304.697" style="fill:#01AFB8;" width="278.321" height="114.558"/>
				<rect x="347.018" y="405.672" style="fill:#2C4D60;" width="288.944" height="13.582"/>
				<line style="fill:#2C4D60;" x1="647.439" y1="305.4" x2="635.962" y2="291.817"/>
				<g>
					<rect x="388.125" y="201.487" style="fill:#04A5A5;" width="41.478" height="50.308"/>
					<rect x="390.048" y="203.368" style="fill:#1EE2E2;" width="37.634" height="46.633"/>
					<polygon style="opacity:0.3;fill:#FFFFFF;" points="424.656,201.487 388.125,238.018 388.125,227.84 414.466,201.487 					"/>
					<polygon style="opacity:0.3;fill:#FFFFFF;" points="429.603,201.487 429.603,202.612 388.125,244.09 388.125,240.627 
						427.266,201.487 					"/>
					<polygon style="opacity:0.3;fill:#FFFFFF;" points="429.603,217.588 429.603,227.753 405.562,251.794 395.397,251.794 					"/>
					<polygon style="opacity:0.3;fill:#FFFFFF;" points="429.603,230.363 429.603,233.838 411.647,251.794 408.172,251.794 					"/>
					<rect x="386.859" y="251.792" style="fill:#FFFFFF;" width="44.012" height="2.382"/>
					<rect x="386.859" y="199.287" style="fill:#FFFFFF;" width="44.012" height="2.382"/>
					
						<rect x="382.8" y="225.27" transform="matrix(-1.836970e-16 1 -1 -1.836970e-16 635.3264 -182.4034)" style="fill:#FFFFFF;" width="52.129" height="2.382"/>
					<rect x="385.789" y="254.175" style="fill:#FFFFFF;" width="46.152" height="2.382"/>
					<rect x="385.789" y="256.574" style="fill:#2C4D60;" width="46.152" height="2.045"/>
				</g>
				<g>
					<rect x="469.559" y="201.487" style="fill:#04A5A5;" width="41.478" height="50.308"/>
					<rect x="471.481" y="203.368" style="fill:#1EE2E2;" width="37.634" height="46.633"/>
					<polygon style="opacity:0.3;fill:#FFFFFF;" points="506.09,201.487 469.559,238.018 469.559,227.84 495.9,201.487 					"/>
					<polygon style="opacity:0.3;fill:#FFFFFF;" points="511.037,201.487 511.037,202.612 469.559,244.09 469.559,240.627 
						508.699,201.487 					"/>
					<polygon style="opacity:0.3;fill:#FFFFFF;" points="511.037,217.588 511.037,227.753 486.996,251.794 476.83,251.794 					"/>
					<polygon style="opacity:0.3;fill:#FFFFFF;" points="511.037,230.363 511.037,233.838 493.08,251.794 489.605,251.794 					"/>
					<rect x="468.292" y="251.792" style="fill:#FFFFFF;" width="44.012" height="2.382"/>
					<rect x="468.292" y="199.287" style="fill:#FFFFFF;" width="44.012" height="2.382"/>
					
						<rect x="464.234" y="225.27" transform="matrix(-1.836970e-16 1 -1 -1.836970e-16 716.7599 -263.8369)" style="fill:#FFFFFF;" width="52.129" height="2.382"/>
					<rect x="467.222" y="254.175" style="fill:#FFFFFF;" width="46.153" height="2.382"/>
					<rect x="467.222" y="256.574" style="fill:#2C4D60;" width="46.153" height="2.045"/>
				</g>
				<g>
					<rect x="550.992" y="201.487" style="fill:#04A5A5;" width="41.478" height="50.308"/>
					<rect x="552.915" y="203.368" style="fill:#1EE2E2;" width="37.634" height="46.633"/>
					<polygon style="opacity:0.3;fill:#FFFFFF;" points="587.523,201.487 550.992,238.018 550.992,227.84 577.333,201.487 					"/>
					<polygon style="opacity:0.3;fill:#FFFFFF;" points="592.47,201.487 592.47,202.612 550.992,244.09 550.992,240.627 
						590.133,201.487 					"/>
					<polygon style="opacity:0.3;fill:#FFFFFF;" points="592.47,217.588 592.47,227.753 568.429,251.794 558.264,251.794 					"/>
					<polygon style="opacity:0.3;fill:#FFFFFF;" points="592.47,230.363 592.47,233.838 574.514,251.794 571.039,251.794 					"/>
					<rect x="549.726" y="251.792" style="fill:#FFFFFF;" width="44.012" height="2.382"/>
					<rect x="549.726" y="199.287" style="fill:#FFFFFF;" width="44.012" height="2.382"/>
					
						<rect x="545.667" y="225.27" transform="matrix(-1.836970e-16 1 -1 -1.836970e-16 798.1935 -345.2705)" style="fill:#FFFFFF;" width="52.129" height="2.382"/>
					<rect x="548.656" y="254.175" style="fill:#FFFFFF;" width="46.152" height="2.382"/>
					<rect x="548.656" y="256.574" style="fill:#2C4D60;" width="46.152" height="2.045"/>
				</g>
				<g>
					<g>
						<rect x="352.329" y="307.676" style="fill:#079E9E;" width="10.078" height="7.386"/>
						<rect x="352.329" y="318.603" style="fill:#079E9E;" width="7.26" height="7.385"/>
						<rect x="352.329" y="329.531" style="fill:#079E9E;" width="10.078" height="7.385"/>
						<rect x="352.329" y="340.458" style="fill:#079E9E;" width="7.26" height="7.386"/>
						<rect x="352.329" y="351.386" style="fill:#079E9E;" width="10.078" height="7.385"/>
						<rect x="352.329" y="362.313" style="fill:#079E9E;" width="7.26" height="7.386"/>
						<rect x="352.329" y="373.241" style="fill:#079E9E;" width="10.078" height="7.385"/>
						<rect x="352.329" y="384.168" style="fill:#079E9E;" width="7.26" height="7.385"/>
						<rect x="352.329" y="395.096" style="fill:#079E9E;" width="10.078" height="7.386"/>
					</g>
				</g>
				<g>
					<g>
						
							<rect x="620.573" y="395.096" transform="matrix(-1 -1.224647e-16 1.224647e-16 -1 1251.2227 797.577)" style="fill:#079E9E;" width="10.078" height="7.386"/>
						
							<rect x="623.391" y="384.168" transform="matrix(-1 -1.224647e-16 1.224647e-16 -1 1254.0409 775.7219)" style="fill:#079E9E;" width="7.26" height="7.385"/>
						
							<rect x="620.573" y="373.241" transform="matrix(-1 -1.224647e-16 1.224647e-16 -1 1251.2227 753.8668)" style="fill:#079E9E;" width="10.078" height="7.386"/>
						
							<rect x="623.391" y="362.313" transform="matrix(-1 -1.224647e-16 1.224647e-16 -1 1254.0409 732.012)" style="fill:#079E9E;" width="7.26" height="7.386"/>
						
							<rect x="620.573" y="351.386" transform="matrix(-1 -1.224647e-16 1.224647e-16 -1 1251.2227 710.1569)" style="fill:#079E9E;" width="10.078" height="7.385"/>
						
							<rect x="623.391" y="340.458" transform="matrix(-1 -1.224647e-16 1.224647e-16 -1 1254.0409 688.3018)" style="fill:#079E9E;" width="7.26" height="7.386"/>
						
							<rect x="620.573" y="329.531" transform="matrix(-1 -1.224647e-16 1.224647e-16 -1 1251.2227 666.4469)" style="fill:#079E9E;" width="10.078" height="7.385"/>
						
							<rect x="623.391" y="318.603" transform="matrix(-1 -1.224647e-16 1.224647e-16 -1 1254.0409 644.5919)" style="fill:#079E9E;" width="7.26" height="7.385"/>
						
							<rect x="620.573" y="307.676" transform="matrix(-1 -1.224647e-16 1.224647e-16 -1 1251.2227 622.7368)" style="fill:#079E9E;" width="10.078" height="7.386"/>
					</g>
				</g>
				<g>
					<rect x="506.056" y="321.064" style="fill:#04A5A5;" width="102.026" height="62.301"/>
					<rect x="508.437" y="323.395" style="fill:#1EE2E2;" width="97.266" height="57.75"/>
					<polygon style="opacity:0.3;fill:#FFFFFF;" points="554.247,321.064 509.007,366.305 509.007,353.7 541.628,321.064 					"/>
					<polygon style="opacity:0.3;fill:#FFFFFF;" points="561.781,321.064 509.01,373.82 509.01,369.532 557.478,321.064 					"/>
					<polygon style="opacity:0.3;fill:#FFFFFF;" points="605.132,341.004 605.132,353.593 575.36,383.365 562.771,383.365 					"/>
					<polygon style="opacity:0.3;fill:#FFFFFF;" points="605.132,356.824 605.132,361.128 582.895,383.365 578.591,383.365 					"/>
					<rect x="504.488" y="383.363" style="fill:#FFFFFF;" width="105.164" height="2.95"/>
					<rect x="504.488" y="318.34" style="fill:#FFFFFF;" width="105.164" height="2.951"/>
					
						<rect x="508.278" y="350.518" transform="matrix(-1.836970e-16 1 -1 -1.836970e-16 892.5499 -188.5636)" style="fill:#FFFFFF;" width="64.557" height="2.95"/>
					
						<rect x="475.253" y="350.518" transform="matrix(-1.836970e-16 1 -1 -1.836970e-16 859.5247 -155.5383)" style="fill:#FFFFFF;" width="64.557" height="2.95"/>
					
						<rect x="541.303" y="350.518" transform="matrix(-1.836970e-16 1 -1 -1.836970e-16 925.5751 -221.5888)" style="fill:#FFFFFF;" width="64.557" height="2.95"/>
					
						<rect x="574.329" y="350.518" transform="matrix(-1.836970e-16 1 -1 -1.836970e-16 958.6005 -254.6141)" style="fill:#FFFFFF;" width="64.557" height="2.95"/>
					<rect x="503.163" y="386.314" style="fill:#FFFFFF;" width="107.815" height="2.951"/>
					<rect x="503.163" y="389.284" style="fill:#2C4D60;" width="107.815" height="2.533"/>
				</g>
				<g>
					<rect x="539.819" y="277.298" style="fill:#12C6C6;" width="34.5" height="1.935"/>
					<rect x="539.819" y="281.542" style="fill:#12C6C6;" width="34.5" height="1.935"/>
					<rect x="530.693" y="285.786" style="fill:#12C6C6;" width="52.022" height="1.935"/>
					<rect x="522.489" y="290.03" style="fill:#12C6C6;" width="66.673" height="1.935"/>
					<rect x="516.016" y="294.274" style="fill:#12C6C6;" width="83.412" height="1.935"/>
					<rect x="507.531" y="298.518" style="fill:#12C6C6;" width="99.366" height="1.935"/>
					<rect x="498.787" y="302.762" style="fill:#12C6C6;" width="117.323" height="1.935"/>
				</g>
				<polygon style="fill:#376277;" points="347.016,305.21 407.607,270.36 548.656,270.36 482.014,305.21 				"/>
				<polygon style="fill:#2C4D60;" points="612.349,291.63 556.641,259.589 496.344,291.63 347.016,291.63 347.016,305.21 
					499.422,305.21 556.641,275.385 613.86,305.21 613.892,305.21 635.958,305.21 635.958,291.63 				"/>
				<g>
					<rect x="549.216" y="136.78" style="fill:#264656;" width="32.475" height="38.775"/>
					<rect x="547.165" y="129.212" style="fill:#2C4D60;" width="36.577" height="7.567"/>
				</g>
				<polygon style="fill:#2C4D60;" points="353.898,191.136 491.49,119.419 629.081,191.136 				"/>
				<g>
					<rect x="398.691" y="316.669" style="fill:#079E9E;" width="61.624" height="89.003"/>
					<rect x="399.672" y="317.929" style="fill:#008989;" width="59.607" height="87.743"/>
					<rect x="405.443" y="325.186" style="fill:#0D9995;" width="48.065" height="73.093"/>
					<rect x="427.15" y="322.296" style="fill:#008989;" width="4.652" height="78.362"/>
					
						<rect x="427.097" y="321.585" transform="matrix(-1.836970e-16 1 -1 -1.836970e-16 778.216 -80.6309)" style="fill:#008989;" width="4.653" height="54.415"/>
					
						<rect x="427.097" y="347.518" transform="matrix(-1.836970e-16 1 -1 -1.836970e-16 804.1487 -54.6981)" style="fill:#008989;" width="4.653" height="54.415"/>
					<rect x="406.949" y="326.662" style="fill:#17AAA3;" width="18.695" height="18.328"/>
					<rect x="406.949" y="352.637" style="fill:#17AAA3;" width="18.695" height="18.328"/>
					<rect x="406.949" y="378.612" style="fill:#17AAA3;" width="18.695" height="18.328"/>
					<rect x="433.34" y="326.662" style="fill:#17AAA3;" width="18.695" height="18.328"/>
					<rect x="433.34" y="352.637" style="fill:#17AAA3;" width="18.695" height="18.328"/>
					<rect x="433.34" y="378.612" style="fill:#17AAA3;" width="18.695" height="18.328"/>
					<path style="fill:#2C4D60;" d="M458.553,361.505c0,1.183-0.959,2.142-2.142,2.142c-1.183,0-2.142-0.959-2.142-2.142
						s0.959-2.142,2.142-2.142C457.594,359.362,458.553,360.322,458.553,361.505z"/>
				</g>
				<rect x="361.678" y="302.205" style="fill:#2C4D60;" width="7.115" height="105.017"/>
				<rect x="492.564" y="302.205" style="fill:#2C4D60;" width="7.115" height="105.017"/>
				<rect x="613.836" y="302.205" style="fill:#2C4D60;" width="7.115" height="105.017"/>
				<rect x="394.47" y="405.672" style="fill:#497687;" width="70.011" height="6.791"/>
				<rect x="391.584" y="412.464" style="fill:#3C6275;" width="75.784" height="6.791"/>
				<path style="fill:#2C4D60;" d="M394.759,372.186c0-1.259-1.02-2.279-2.279-2.279c-1.259,0-2.279,1.02-2.279,2.279
					c0,0.897,0.523,1.665,1.276,2.037v32.999h2.005v-32.999C394.236,373.851,394.759,373.083,394.759,372.186z"/>
				<path style="fill:#2C4D60;" d="M469.039,372.186c0-1.259-1.02-2.279-2.279-2.279c-1.259,0-2.279,1.02-2.279,2.279
					c0,0.897,0.523,1.665,1.276,2.037v32.999h2.006v-32.999C468.516,373.851,469.039,373.083,469.039,372.186z"/>
			</g>
		</g>
		<g>
			<path style="fill:#FFCCAF;" d="M282.61,438.048l0.716,6.762c0,0,2.596,2.158,5.23,2.108c1.064-0.02,2.884-1.173,2.884-2.108
				v-7.239"/>
			<path style="fill:#FFCCAF;" d="M229.944,433.012l-2.195,6.435c0,0-1.316,1.374-0.524,2.379c0.651,0.826,3.295,1.254,4.382,1.734
				c0.974,0.429,3.11,0.149,3.503-0.699l3.045-6.567"/>
			<g>
				<path style="fill:#281968;" d="M248.108,339.663c0,0-7.256-21.333,13.33-38.908c0,0,11.033,4.392,19.868,4.923
					c6.957,0.417,10.49-0.223,10.49-0.223s0.586,18.953,0.61,29.168L248.108,339.663z"/>
				<path style="fill:#281968;" d="M294.061,374.082L294.061,374.082l0.772-0.335l-2.428-41.895l-0.115,0.024
					c-0.128-3.003-0.227-5.162-0.279-5.878c-0.242-3.347-0.802-8.235-2.418-8.846c-7.963-3.005-21.924,7.183-20.354,19.486
					l-1.771,0.366c0,0,4.858,27.41,10.595,44.008c0,0.003-0.001,0.005-0.002,0.008c0,0-2.915,9.597,3.538,57.325
					c0,0,1.476,0.407,3.64,0.547c1.578,0.102,3.538,0.064,5.575-0.356c0.547-0.115,1.094-0.267,1.655-0.445
					c0,0,1.909-54.271,2.367-64.338L294.061,374.082z"/>
				<path style="fill:#281968;" d="M273.061,339.666c0,0-9.393,37.368-11.098,43.732c-1.515,5.638-19.391,44.378-23.502,53.059
					c-4.574-0.557-7.643-2.491-9.247-3.306c0.382-2.113,1.044-5.473,2.011-9.724c2.533-11.073,7.127-28.23,14.408-45.285
					c0,0-0.191-28.688,1.336-50.389l3.36,1.336c4.862-8.782,16.139-11.837,21.574-6.822c1.273,1.171,1.553,7.764,0.522,10.959
					c-0.204,0.649-0.713,2.66-1.413,5.486L273.061,339.666z"/>
				<g>
					<path style="fill:#00C2F0;" d="M303.054,252.983c-3.223-6.193-7.485-12.43-7.485-12.43l-8.069,25.11
						c0,0,2.924-1.226,4.975,2.592c0.432,0.805,0.863,1.602,1.294,2.397c2.99-0.971,9.167-3.246,14.21-6.818
						C306.299,259.826,304.494,255.751,303.054,252.983z"/>
					<path style="fill:#FFCCAF;" d="M312.918,276.486c-0.493-1.576-3.051-6.729-5.399-12.334c-5.41,3.284-8.705,4.655-11.822,5.838
						c3.593,6.625,6.857,12.018,10.857,16.799C303.954,278.764,312.918,276.486,312.918,276.486z"/>
				</g>
				<path style="fill:#FFCCAF;" d="M328.108,253.671c0,0,6.638,4.212,5.592,5.233c-1.045,1.021-18.186,26.784-23.384,27.181
					c-2.142,0.164-4.925-2.391-5.493-5.111c-0.212-1.016-0.379-2.069-0.517-3.147C306.442,269.666,328.108,253.671,328.108,253.671z
					"/>
				<path style="fill:#FFA180;" d="M338.492,247.454c0,0,0.553,1.566,0.473,3.547l-1.45-1.774L338.492,247.454z"/>
				<g>
					<path style="fill:#00C2F0;" d="M295.288,240.265c-2.156-1.793-3.957-2.043-10.411-2.996c-1.618-0.07-3.564-0.452-5.852-0.38
						c-6.54,0.206-24.351,1.286-26.342,5.661c-1.017,2.236-2.11,25.14-0.62,33.037c1.12,5.938,2.864,20.895,2.864,24.446
						c0,3.55-0.785,4.824,0.104,5.855c1.993,2.309,15.622,3.278,22.02,3.278c5.695,0,14.293-0.566,14.784-2.39
						c0.73-2.708-0.016-3.56-0.266-6.398c-0.25-2.839,2.879-38.608,4.376-42.636C297.084,254.685,297.906,242.443,295.288,240.265z"
						/>
					<path style="fill:#FFCCAF;" d="M280.478,229.84c0,0-0.033,5.478,0.362,6.107c0.628,1,2.077,1.15,2.077,1.15
						s0.359,5.315-2.926,6.056c-7.23,1.63-12.948-5.387-12.948-5.387s1.663-0.622,1.836-1.137
						c1.149-3.412,0.041-11.022,0.041-11.022"/>
					<path style="fill:#FFCCAF;" d="M277.774,204.826c1.41,0.384,6.506-2.144,7.532-0.606c1.025,1.538,3.275,11.734,3.832,13.838
						c0.352,1.334,1.878,9.844-1.051,12.516c-3.094,2.823-11.77,0.297-12.775-0.029c-2.612-0.849-7.532-3.583-8.204-6.021
						l-0.357-14.828L277.774,204.826z"/>
					<g>
						<g>
							<path style="fill:#FFA180;" d="M282.333,306.86c3.25,0.49,4.451,1.697,6.282,3.506c0.15,0.148,0.308,0.333,0.274,0.541
								c-0.042,0.259-0.347,0.374-0.606,0.416c-1.509,0.242-1.755-0.722-3.166-1.311c-0.953-0.398-1.899-0.81-2.845-1.223"/>
						</g>
						<g>
							<path style="fill:#065C6C;" d="M266.692,352.42c1.889,0,3.741-0.917,4.859-2.61l70.253-106.327
								c1.771-2.681,1.034-6.289-1.646-8.06c-2.68-1.771-6.29-1.034-8.06,1.647l-70.253,106.327c-1.771,2.68-1.034,6.289,1.646,8.06
								C264.478,352.109,265.591,352.42,266.692,352.42z"/>
							<path style="fill:#004D59;" d="M261.964,349.99c0.405,0.574,0.911,1.063,1.519,1.468c0.996,0.658,2.109,0.962,3.206,0.962
								c1.89,0,3.746-0.911,4.86-2.615l70.261-106.32c1.772-2.683,1.029-6.294-1.654-8.065c-0.321-0.219-0.675-0.405-1.029-0.523
								c1.384,1.907,1.519,4.522,0.152,6.598L269.017,347.83c-1.114,1.687-2.97,2.599-4.86,2.599
								C263.415,350.428,262.673,350.294,261.964,349.99z"/>
							
								<ellipse transform="matrix(0.3891 -0.9212 0.9212 0.3891 54.1397 457.3205)" style="opacity:0.2;fill:#FFFFFF;" cx="371.855" cy="187.843" rx="53.917" ry="53.917"/>
							<path style="opacity:0.08;fill:#FFFFFF;" d="M329.936,166.624c8.402-7.883,19.692-12.685,32.101-12.685
								c25.97,0,47.008,21.038,47.008,46.992c0,7.608-1.801,14.794-5.028,21.136c9.132-8.548,14.826-20.714,14.826-34.226
								c0-25.954-21.039-46.992-46.992-46.992C353.537,140.849,337.673,151.328,329.936,166.624z"/>
							<path style="fill:#FFD864;" d="M338.383,238.107c-13.556-8.956-22.811-22.654-26.063-38.571
								c-3.251-15.917-0.11-32.147,8.846-45.702l0,0c18.486-27.98,56.293-35.702,84.271-17.217
								c13.556,8.956,22.811,22.654,26.063,38.571c3.251,15.916,0.11,32.147-8.846,45.702
								c-11.683,17.682-31.08,27.274-50.837,27.274C360.311,248.164,348.681,244.91,338.383,238.107z M329.221,159.157
								L329.221,159.157c-7.535,11.403-10.177,25.057-7.442,38.448c2.736,13.39,10.521,24.914,21.924,32.448
								c23.542,15.552,55.343,9.055,70.895-14.484c7.535-11.403,10.177-25.057,7.442-38.448
								c-2.736-13.39-10.521-24.914-21.924-32.448c-8.666-5.725-18.445-8.461-28.127-8.461
								C355.37,136.212,339.049,144.282,329.221,159.157z"/>
							<path style="fill:#FFC700;" d="M336.556,240.873c-14.295-9.444-24.054-23.889-27.484-40.674
								c-3.428-16.784-0.116-33.899,9.329-48.193l0,0c19.494-29.505,59.362-37.648,88.865-18.155
								c14.295,9.444,24.054,23.889,27.484,40.673c3.428,16.784,0.116,33.899-9.329,48.193
								c-12.319,18.646-32.775,28.761-53.608,28.761C359.678,251.479,347.414,248.048,336.556,240.873z M326.894,157.619
								L326.894,157.619c-7.946,12.025-10.732,26.423-7.848,40.544c2.885,14.12,11.095,26.272,23.12,34.217
								c24.826,16.4,58.361,9.549,74.761-15.274c7.946-12.025,10.732-26.423,7.848-40.544c-2.885-14.12-11.095-26.272-23.12-34.217
								c-9.138-6.037-19.451-8.922-29.66-8.922C354.468,133.423,337.257,141.933,326.894,157.619z"/>
						</g>
						<g>
							<path style="fill:#FFCCAF;" d="M273.18,304.283c2.52,0.526,9.238,2.53,9.943,2.863c0.843,0.397,3.625,2.507,4.283,3.167
								c2.528,2.535,1.235,3.718,2.231,7.156c0.051,0.177,0.061,0.36,0.062,0.545c0.001,0.359-0.484,0.668-0.973,0.333
								c-0.263,0.443-1.043,0.169-1.422-0.313c0.006,0.343-0.475,0.56-1.249,0.132c-0.417-0.231-0.342-0.21-1.308-1.071
								c-0.69-0.616-1.492-1.104-2.734-1.664c-0.836-0.377-1.901-0.714-2.667-1.218c-1.021-0.672-2.841-0.831-3.738-3.745
								c-0.198-0.644-0.831-1.041-1.402-1.4c-1.369-0.859-2.738-1.718-4.108-2.577"/>
						</g>
						<path style="fill:#FFCCAF;" d="M237.824,288.98c1.255,3.657,12.62,10.237,21.319,13.65c7.66,3.006,13.648,5.548,13.648,5.548
							l6.317-2.311l-6.276-4.465l-21.695-15.652c0,0,2.384-5.977,4.389-14.967c-8.846-2.729-11.278-4.041-13.729-5.384
							C239.321,276.551,236.451,284.981,237.824,288.98z"/>
						<path style="fill:#00C2F0;" d="M260.88,256.281l-4.04-16.436c0,0-5.796,1.004-8.445,4.473
							c-3.482,4.56-6.456,13.06-8.238,21.082c2.452,1.342,7.981,3.635,16.7,5.801C258.638,265.913,260.303,260.286,260.88,256.281z"
							/>
						<g>
							<path style="fill:#FFA180;" d="M283.376,313.792c0,0,0.302,0.158,0.739,0.423c0.215,0.137,0.463,0.302,0.725,0.49
								c0.272,0.181,0.516,0.448,0.743,0.698c0.237,0.25,0.433,0.531,0.622,0.787c0.193,0.254,0.35,0.505,0.489,0.717
								c0.279,0.423,0.45,0.722,0.45,0.722s-0.272-0.214-0.617-0.592c-0.174-0.188-0.375-0.408-0.569-0.658
								c-0.199-0.247-0.419-0.5-0.624-0.764c-0.405-0.535-0.925-0.929-1.318-1.266C283.633,314.015,283.376,313.792,283.376,313.792
								z"/>
						</g>
						<g>
							<path style="fill:#FFA180;" d="M284.756,312.133c0,0,0.1,0.037,0.258,0.147c0.155,0.111,0.363,0.285,0.593,0.514
								c0.225,0.234,0.474,0.518,0.728,0.834c0.129,0.157,0.247,0.33,0.368,0.506c0.114,0.165,0.25,0.384,0.329,0.576
								c0.364,0.769,0.729,1.537,1.002,2.114c0.275,0.579,0.43,0.984,0.43,0.984s-0.269-0.339-0.615-0.882
								c-0.173-0.271-0.377-0.588-0.563-0.946c-0.19-0.356-0.397-0.734-0.556-1.137c-0.077-0.208-0.17-0.353-0.285-0.54
								c-0.115-0.173-0.227-0.344-0.337-0.509c-0.219-0.332-0.436-0.634-0.634-0.882
								C285.098,312.394,284.756,312.133,284.756,312.133z"/>
						</g>
						<g>
							<path style="fill:#FFA180;" d="M286.34,310.791c0,0,0.063,0.084,0.191,0.212c0.13,0.127,0.315,0.309,0.537,0.526
								c0.226,0.217,0.482,0.47,0.74,0.782c0.253,0.348,0.41,0.711,0.594,1.096c0.352,0.762,0.592,1.572,0.709,2.188
								c0.126,0.616,0.137,1.037,0.137,1.037s-0.137-0.392-0.344-0.981c-0.208-0.585-0.487-1.356-0.801-2.116
								c-0.081-0.189-0.162-0.377-0.242-0.563c-0.09-0.182-0.146-0.38-0.249-0.52c-0.212-0.31-0.462-0.58-0.653-0.824
								c-0.196-0.243-0.359-0.446-0.466-0.595C286.387,310.884,286.34,310.791,286.34,310.791z"/>
						</g>
						<path style="fill:#FFCCAF;" d="M336.278,253.52c0,0-1.293-3.309-1.685-4.176c-0.392-0.867-0.811-1.651-1.063-1.455
							c-0.252,0.196-0.336,0.532-0.196,1.203c0.14,0.672,0.895,2.854,0.895,2.854"/>
					</g>
				</g>
				<path style="fill:#FFCCAF;" d="M333.701,258.904c0,0,0.807-1.409,1.618-2.085s3.085-1.757,3.604-2.704
					c0.519-0.946-0.022-5.948-1.509-6.421c-1.487-0.473-3.033,3.312-3.713,4.731c-0.68,1.419-0.15,3.416-0.15,3.416l-1.026,1.693
					C332.524,257.535,333.239,258.253,333.701,258.904z"/>
				<path style="fill:#FFCCAF;" d="M338.492,249.115c0,0-1.008-2.444-1.399-3.312c-0.392-0.867-0.811-1.651-1.063-1.455
					c-0.252,0.196-0.403,0.697-0.263,1.369c0.14,0.671,0.895,2.854,0.895,2.854"/>
				<path style="fill:#FFCCAF;" d="M337.825,250.69c0,0-1.56-3.993-2.033-5.04c-0.473-1.047-0.979-1.992-1.283-1.756
					c-0.304,0.236-0.405,0.641-0.236,1.452c0.169,0.81,1.08,3.444,1.08,3.444"/>
				<path style="fill:#FFCCAF;" d="M336.763,251.781c0,0-1.293-3.309-1.684-4.176c-0.392-0.867-0.811-1.65-1.063-1.455
					c-0.252,0.196-0.336,0.532-0.196,1.203c0.14,0.671,0.895,2.854,0.895,2.854"/>
			</g>
			<path style="fill:#2D1857;" d="M288.084,195.166c0,0-2.557,3.56-7.926,1.987c-5.369-1.572-15.535-0.598-15.535,5.101
				c0,0-3.2-0.646-5.897,3.4c-2.107,3.162-1.185,7.406-0.941,8.67c0.986,5.119,5.189,10.624,11.481,14.107l-0.156-1.279
				c0,0-2.206-4.82-0.471-7.706c1.929-2.502,4.103,0.348,5.387,1.546c0.18,0.168,0.477,0.044,0.483-0.202
				c0.034-1.388-0.438-2.165,0.466-4.6c1.031-2.78-0.572-5.035-0.97-5.651c0,0,6.379,1.147,10.644-2.363
				C288.911,204.667,288.084,195.166,288.084,195.166z"/>
			<path style="fill:#4F4896;" d="M229.71,428.052c0,0,5.394,2.475,11.386,3.96l-2.386,5.222c0,0-5.129,0.417-10.432-3.508
				L229.71,428.052z"/>
			<path style="fill:#4F4896;" d="M280.454,433.648c0,0,6.206,0.28,12.603-0.635l-0.265,6.269c0,0-4.808,2.156-11.496,0.434
				L280.454,433.648z"/>
			<g>
				<path style="fill:#00B1DA;" d="M244.588,267.398l3.085,0.914c1.023,0.316,2.049,0.617,3.078,0.906
					c2.05,0.602,4.108,1.165,6.18,1.626l-0.419,0.24l3.111-8.945c-0.257,1.565-0.642,3.105-1.061,4.63
					c-0.407,1.53-0.865,3.043-1.358,4.548l-0.1,0.304l-0.319-0.064c-2.124-0.422-4.189-1.046-6.225-1.735
					c-1.012-0.363-2.018-0.742-3.018-1.133C246.546,268.283,245.556,267.867,244.588,267.398z"/>
			</g>
			<g>
				<path style="fill:#00B1DA;" d="M294.675,254.107c0,0-0.032,2.188-0.168,5.464c-0.082,1.637-0.145,3.549-0.273,5.593
					c-0.126,2.044-0.26,4.225-0.394,6.406c-0.168,2.178-0.335,4.357-0.493,6.399c-0.154,2.043-0.357,3.945-0.501,5.577
					c-0.316,3.263-0.588,5.434-0.588,5.434s0.031-2.188,0.167-5.464c0.083-1.637,0.144-3.549,0.273-5.594
					c0.126-2.044,0.26-4.225,0.394-6.406c0.168-2.178,0.336-4.357,0.493-6.399c0.156-2.042,0.357-3.945,0.501-5.577
					C294.404,256.278,294.675,254.107,294.675,254.107z"/>
			</g>
			<path style="fill:#0682CE;" d="M283.117,444.386c-0.223,0.068-0.366,0.281-0.385,0.513c-0.038,0.453-0.155,1.415-0.52,2.734
				c-0.416,1.503-0.459,3.135-0.086,4.399c0.15,0.508,0.623,0.852,1.153,0.852l19.775,0c0,0,2.851,0.029,2.905-1.843
				c0.034-1.167-0.996-1.021-3.422-1.657c-2.426-0.636-8.512-4.375-11.097-4.574c0,0-1.71,1.869-3.659,1.472
				C286.041,445.926,284.223,444.051,283.117,444.386z"/>
			<path style="fill:#0682CE;" d="M227.749,439.448c0,0-0.823-0.326-1.738,0.788c-0.915,1.114-3.023,4.296-3.142,5.012
				c-0.119,0.716,2.599,2.386,3.341,3.182c0.742,0.796,3.977,4.097,6.152,4.455c2.174,0.358,8.273,0.385,9.44,0
				c1.167-0.385,1.507-2.612-0.705-3.142c-2.212-0.53-5.141-6.018-5.987-6.88c-0.547-0.557-1.661-1.393-4.259-0.862
				c-0.971,0.198-1.686,0.695-2.174,0.318C226.856,440.914,227.749,439.448,227.749,439.448z"/>
			
				<line style="fill:#FFFFFF;stroke:#231F20;stroke-linecap:round;stroke-miterlimit:10;" x1="316.259" y1="453.162" x2="180.285" y2="453.162"/>
			
				<line style="fill:#FFFFFF;stroke:#231F20;stroke-linecap:round;stroke-miterlimit:10;" x1="320.007" y1="453.162" x2="343.189" y2="453.162"/>
		</g>
	</g>
	<g>
		<path style="fill:#38EF33;" d="M442.358,135.921c-44.963,13.335-72.481,86.022-72.481,86.022
			c-16.547-31.931-42.223-44.866-43.011-45.254c-0.012-0.012-0.024-0.012-0.024-0.012c20.911,0.667,42.126,19.202,42.126,19.202
			C401.493,134.442,442.358,135.921,442.358,135.921z"/>
		<path style="fill:#22E046;" d="M442.358,135.921c-44.963,13.335-72.481,86.022-72.481,86.022
			c-16.547-31.931-42.223-44.866-43.011-45.254c0.776,0.267,26.039,9.201,41.326,33.87
			C368.193,210.559,396.729,146.746,442.358,135.921z"/>
	</g>
	<g>
		<path style="opacity:0.1;fill:#01AFB8;" d="M83.306,189.22h84.36c0,0,5.186-21.975-13.853-24.609
			c-15.378-2.128-31.337,18.038-31.337,18.038s0.59-11.946-7.399-12.041c-12.135-0.145-17.941,12.573-17.941,12.573
			S85.095,177.657,83.306,189.22z"/>
		<path style="opacity:0.1;fill:#01AFB8;" d="M425.503,85.774h84.36c0,0,5.186-21.975-13.853-24.609
			c-15.378-2.128-31.337,18.038-31.337,18.038s0.59-11.946-7.399-12.041c-12.135-0.145-17.941,12.573-17.941,12.573
			S427.292,74.211,425.503,85.774z"/>
		<path style="opacity:0.08;fill:#01AFB8;" d="M213.285,118.142H349.43c0,0,8.369-35.464-22.356-39.715
			c-24.818-3.434-50.573,29.111-50.573,29.111s0.952-19.279-11.941-19.433c-19.585-0.234-28.954,20.292-28.954,20.292
			S216.173,99.48,213.285,118.142z"/>
		<path style="opacity:0.05;fill:#01AFB8;" d="M530.467,127.408h133.585c0,0,8.211-34.797-21.936-38.968
			c-24.352-3.369-49.622,28.563-49.622,28.563s0.935-18.916-11.716-19.068c-19.216-0.23-28.41,19.91-28.41,19.91
			S533.301,109.097,530.467,127.408z"/>
	</g>
</g>
<g id="DESIGNED_BY_FREEPIK">
	<g>
		<g id="XMLID_1_">
			<g id="XMLID_20_">
				<path id="XMLID_28_" style="fill:#A5B7C6;" d="M385.104,473.813c-0.432,0.443-0.803,0.931-1.108,1.453l-0.465-0.241
					c-0.067-0.298-0.349-0.503-0.659-0.466c-0.331,0.039-0.567,0.339-0.529,0.67c0.039,0.331,0.339,0.568,0.67,0.529
					c0.066-0.008,0.127-0.026,0.184-0.052l0.451,0.234c-0.251,0.554-0.433,1.139-0.539,1.744l0.747,0.132
					c0.23-1.306,0.85-2.507,1.792-3.473L385.104,473.813z"/>
				<path id="XMLID_27_" style="fill:#A5B7C6;" d="M390.592,471.511c-0.171,0-0.341,0.006-0.51,0.017l-0.074-0.626
					c0.188-0.149,0.296-0.389,0.266-0.645c-0.046-0.393-0.402-0.674-0.795-0.628c-0.393,0.046-0.674,0.402-0.628,0.795
					c0.03,0.254,0.189,0.461,0.404,0.564l0.074,0.624c-0.714,0.116-1.403,0.332-2.06,0.646l0.327,0.684
					c0.934-0.447,1.942-0.673,2.995-0.673c0.496,0,0.993,0.053,1.475,0.158l0.161-0.741
					C391.692,471.569,391.142,471.511,390.592,471.511z"/>
				<path id="XMLID_26_" style="fill:#A5B7C6;" d="M397.194,474.058c0.331-0.04,0.566-0.341,0.526-0.672
					c-0.04-0.331-0.341-0.566-0.672-0.526c-0.309,0.038-0.535,0.304-0.53,0.609l-0.416,0.363c-0.418-0.43-0.889-0.813-1.408-1.139
					l-0.404,0.641c1.134,0.715,2.021,1.726,2.563,2.925l0.69-0.313c-0.251-0.554-0.567-1.072-0.942-1.545l0.402-0.351
					C397.065,474.063,397.129,474.066,397.194,474.058z"/>
				<path id="XMLID_25_" style="fill:#A5B7C6;" d="M390.044,481.719c-0.386,0.023-0.775,0.035-1.157,0.035
					c-0.88,0-1.733-0.061-2.478-0.179c-0.39-0.062-0.846-0.155-1.27-0.292c1.046,1.861,3.069,3.125,5.388,3.125
					c2.855,0,5.262-1.916,5.95-4.504c-0.682,0.449-1.505,0.825-2.459,1.123C392.839,481.394,391.463,481.634,390.044,481.719z"/>
				<path id="XMLID_21_" style="fill:#A5B7C6;" d="M390.592,473.027c-3.352,0-6.08,2.666-6.08,5.944
					c0,0.425,0.046,0.849,0.137,1.261c0.673,0.483,2.706,0.89,5.348,0.731c2.879-0.173,5.297-0.957,6.672-2.159
					c-0.006-0.195-0.021-0.39-0.045-0.582C396.244,475.26,393.65,473.027,390.592,473.027z M388.432,479.542
					c-1.02,0-1.85-0.83-1.85-1.85c0-1.02,0.83-1.85,1.85-1.85c1.02,0,1.85,0.83,1.85,1.85
					C390.282,478.712,389.452,479.542,388.432,479.542z M393.17,478.633c-0.75,0-1.36-0.61-1.36-1.36s0.61-1.361,1.36-1.361
					c0.75,0,1.361,0.61,1.361,1.361S393.92,478.633,393.17,478.633z"/>
			</g>
			<path id="XMLID_18_" style="fill:#A5B7C6;" d="M406.595,474.894c-0.295-0.116-0.805-0.309-1.382-0.237
				c-0.551,0.069-0.844,0.341-0.844,1.007v0.866h2.228v1.717h-2.228v5.455h-1.932v-5.455h-1.34v-1.717h1.34v-0.888
				c0-1.68,0.896-2.783,2.568-2.783c0.643,0,1.157,0.122,1.59,0.308L406.595,474.894z"/>
			<path id="XMLID_16_" style="fill:#A5B7C6;" d="M411.298,478.226c-0.177-0.03-0.358-0.046-0.526-0.046
				c-0.896,0-1.51,0.548-1.51,1.614v3.908h-1.932v-7.172h1.873v0.785c0.451-0.673,1.14-0.977,2.021-0.977
				c0.414,0,0.848,0.128,1.094,0.337L411.298,478.226z"/>
			<path id="XMLID_13_" style="fill:#A5B7C6;" d="M418.965,480.104c0,0.222-0.015,0.489-0.037,0.651h-5.085
				c0.207,1.036,0.933,1.488,1.843,1.488c0.622,0,1.295-0.252,1.813-0.688l1.133,1.243c-0.814,0.748-1.85,1.088-3.057,1.088
				c-2.198,0-3.723-1.495-3.723-3.753c0-2.258,1.48-3.797,3.627-3.797C417.544,476.337,418.958,477.869,418.965,480.104z
				 M413.851,479.438h3.175c-0.177-0.918-0.733-1.436-1.562-1.436C414.554,478.002,414.021,478.55,413.851,479.438z"/>
			<path id="XMLID_10_" style="fill:#A5B7C6;" d="M426.618,480.104c0,0.222-0.015,0.489-0.037,0.651h-5.085
				c0.207,1.036,0.933,1.488,1.843,1.488c0.622,0,1.295-0.252,1.814-0.688l1.132,1.243c-0.814,0.748-1.85,1.088-3.057,1.088
				c-2.198,0-3.723-1.495-3.723-3.753c0-2.258,1.48-3.797,3.627-3.797C425.197,476.337,426.611,477.869,426.618,480.104z
				 M421.504,479.438h3.175c-0.178-0.918-0.733-1.436-1.562-1.436C422.207,478.002,421.674,478.55,421.504,479.438z"/>
			<path id="XMLID_7_" style="fill:#A5B7C6;" d="M434.964,480.112c0,2.154-1.495,3.775-3.471,3.775
				c-0.962,0-1.643-0.378-2.109-0.933v3.708h-1.924v-10.133h1.887v0.792c0.466-0.585,1.155-0.984,2.139-0.984
				C433.469,476.337,434.964,477.958,434.964,480.112z M429.287,480.112c0,1.132,0.748,1.976,1.843,1.976
				c1.14,0,1.85-0.881,1.85-1.976c0-1.095-0.71-1.976-1.85-1.976C430.035,478.135,429.287,478.979,429.287,480.112z"/>
			<path id="XMLID_4_" style="fill:#A5B7C6;" d="M438.068,474.183c0,0.696-0.54,1.229-1.236,1.229c-0.696,0-1.229-0.533-1.229-1.229
				c0-0.696,0.533-1.243,1.229-1.243C437.527,472.94,438.068,473.487,438.068,474.183z M437.809,483.701h-1.932v-7.172h1.932
				V483.701z"/>
			<path id="XMLID_2_" style="fill:#A5B7C6;" d="M441.032,479.083l2.701-2.554h2.368l-3.479,3.375l3.501,3.797h-2.376l-2.716-2.901
				v2.901H439.1v-10.658h1.932V479.083z"/>
		</g>
		<g>
			<path style="fill:#A5B7C6;" d="M309.412,483.636v-1.055c-0.527,0.718-1.391,1.23-2.387,1.23c-1.846,0-3.149-1.406-3.149-3.706
				c0-2.256,1.289-3.721,3.149-3.721c0.952,0,1.816,0.469,2.387,1.245v-3.765h1.099v9.77H309.412z M309.412,481.717v-3.208
				c-0.395-0.615-1.245-1.143-2.124-1.143c-1.421,0-2.27,1.172-2.27,2.739c0,1.567,0.85,2.724,2.27,2.724
				C308.168,482.831,309.017,482.333,309.412,481.717z"/>
			<path style="fill:#A5B7C6;" d="M311.932,480.091c0-2.051,1.465-3.706,3.486-3.706c2.139,0,3.398,1.67,3.398,3.794v0.279h-5.727
				c0.088,1.333,1.025,2.446,2.549,2.446c0.805,0,1.626-0.322,2.182-0.893l0.527,0.718c-0.703,0.703-1.655,1.084-2.812,1.084
				C313.44,483.812,311.932,482.303,311.932,480.091z M315.404,477.294c-1.509,0-2.256,1.274-2.314,2.358h4.643
				C317.718,478.597,317.015,477.294,315.404,477.294z"/>
			<path style="fill:#A5B7C6;" d="M319.607,482.699l0.571-0.791c0.469,0.542,1.362,1.011,2.329,1.011c1.084,0,1.67-0.513,1.67-1.216
				c0-1.714-4.38-0.659-4.38-3.281c0-1.098,0.952-2.036,2.636-2.036c1.201,0,2.051,0.454,2.622,1.026l-0.513,0.762
				c-0.424-0.513-1.201-0.894-2.109-0.894c-0.967,0-1.567,0.483-1.567,1.113c0,1.552,4.38,0.527,4.38,3.281
				c0,1.187-0.952,2.138-2.783,2.138C321.306,483.812,320.325,483.46,319.607,482.699z"/>
			<path style="fill:#A5B7C6;" d="M326.477,474.818c0-0.41,0.337-0.747,0.732-0.747c0.41,0,0.747,0.337,0.747,0.747
				c0,0.41-0.337,0.732-0.747,0.732C326.814,475.55,326.477,475.228,326.477,474.818z M326.667,483.636v-7.075h1.099v7.075H326.667z
				"/>
			<path style="fill:#A5B7C6;" d="M329.582,485.453l0.556-0.82c0.586,0.703,1.289,0.967,2.3,0.967c1.172,0,2.27-0.571,2.27-2.124
				v-1.011c-0.513,0.718-1.377,1.26-2.373,1.26c-1.845,0-3.149-1.377-3.149-3.662c0-2.27,1.289-3.677,3.149-3.677
				c0.952,0,1.802,0.469,2.373,1.245v-1.069h1.098v6.87c0,2.344-1.641,3.076-3.369,3.076
				C331.237,486.507,330.417,486.273,329.582,485.453z M334.709,481.6v-3.091c-0.381-0.615-1.231-1.143-2.109-1.143
				c-1.421,0-2.27,1.128-2.27,2.695c0,1.553,0.849,2.695,2.27,2.695C333.478,482.757,334.328,482.216,334.709,481.6z"/>
			<path style="fill:#A5B7C6;" d="M342.413,483.636v-4.629c0-1.245-0.63-1.641-1.582-1.641c-0.865,0-1.685,0.527-2.095,1.099v5.17
				h-1.099v-7.075h1.099v1.025c0.498-0.586,1.465-1.201,2.519-1.201c1.48,0,2.256,0.747,2.256,2.285v4.966H342.413z"/>
			<path style="fill:#A5B7C6;" d="M344.932,480.091c0-2.051,1.465-3.706,3.486-3.706c2.138,0,3.398,1.67,3.398,3.794v0.279h-5.727
				c0.088,1.333,1.025,2.446,2.549,2.446c0.806,0,1.626-0.322,2.183-0.893l0.527,0.718c-0.703,0.703-1.655,1.084-2.812,1.084
				C346.441,483.812,344.932,482.303,344.932,480.091z M348.404,477.294c-1.509,0-2.256,1.274-2.314,2.358h4.643
				C350.718,478.597,350.015,477.294,348.404,477.294z"/>
			<path style="fill:#A5B7C6;" d="M358.35,483.636v-1.055c-0.527,0.718-1.392,1.23-2.388,1.23c-1.845,0-3.149-1.406-3.149-3.706
				c0-2.256,1.289-3.721,3.149-3.721c0.952,0,1.817,0.469,2.388,1.245v-3.765h1.098v9.77H358.35z M358.35,481.717v-3.208
				c-0.396-0.615-1.245-1.143-2.124-1.143c-1.421,0-2.27,1.172-2.27,2.739c0,1.567,0.849,2.724,2.27,2.724
				C357.105,482.831,357.954,482.333,358.35,481.717z"/>
			<path style="fill:#A5B7C6;" d="M364.692,483.636v-9.77h1.098v3.765c0.572-0.776,1.421-1.245,2.388-1.245
				c1.845,0,3.149,1.465,3.149,3.721c0,2.299-1.304,3.706-3.149,3.706c-0.996,0-1.86-0.513-2.388-1.23v1.055H364.692z
				 M367.9,482.831c1.436,0,2.286-1.157,2.286-2.724c0-1.568-0.85-2.739-2.286-2.739c-0.864,0-1.728,0.527-2.109,1.143v3.208
				C366.172,482.333,367.036,482.831,367.9,482.831z"/>
			<path style="fill:#A5B7C6;" d="M372.529,485.409c0.161,0.073,0.425,0.117,0.601,0.117c0.483,0,0.806-0.161,1.055-0.747
				l0.469-1.069l-2.959-7.148h1.187l2.358,5.8l2.344-5.8h1.201l-3.545,8.51c-0.425,1.025-1.143,1.421-2.08,1.435
				c-0.234,0-0.601-0.044-0.806-0.103L372.529,485.409z"/>
		</g>
	</g>
</g>
</svg>
